{
  "asset": {
    "generator": "ArenaPro Web VCode Exporter",
    "version": "2.0"
  },
  "extensionsUsed": [
    "KHR_materials_unlit"
  ],
  "accessors": [
    {
      "name": "positions_0",
      "componentType": 5126,
      "count": 108,
      "type": "VEC3",
      "bufferView": 0,
      "byteOffset": 0,
      "min": [
        0,
        0,
        0
      ],
      "max": [
        11,
        7,
        8
      ]
    },
    {
      "name": "texcoords_0",
      "componentType": 5126,
      "count": 108,
      "type": "VEC2",
      "bufferView": 1,
      "byteOffset": 0,
      "min": [
        0.1891891891891892,
        0.575
      ],
      "max": [
        0.972972972972973,
        0.975
      ]
    },
    {
      "name": "indices_0",
      "componentType": 5121,
      "count": 162,
      "type": "SCALAR",
      "bufferView": 2,
      "byteOffset": 0,
      "min": [
        0
      ],
      "max": [
        107
      ]
    },
    {
      "name": "positions_1",
      "componentType": 5126,
      "count": 56,
      "type": "VEC3",
      "bufferView": 3,
      "byteOffset": 0,
      "min": [
        0,
        0,
        0
      ],
      "max": [
        5,
        6,
        5
      ]
    },
    {
      "name": "texcoords_1",
      "componentType": 5126,
      "count": 56,
      "type": "VEC2",
      "bufferView": 4,
      "byteOffset": 0,
      "min": [
        0.9459459459459459,
        0.575
      ],
      "max": [
        0.972972972972973,
        0.6
      ]
    },
    {
      "name": "indices_1",
      "componentType": 5121,
      "count": 84,
      "type": "SCALAR",
      "bufferView": 5,
      "byteOffset": 0,
      "min": [
        0
      ],
      "max": [
        55
      ]
    },
    {
      "name": "positions_2",
      "componentType": 5126,
      "count": 56,
      "type": "VEC3",
      "bufferView": 6,
      "byteOffset": 0,
      "min": [
        0,
        0,
        0
      ],
      "max": [
        5,
        8,
        5
      ]
    },
    {
      "name": "texcoords_2",
      "componentType": 5126,
      "count": 56,
      "type": "VEC2",
      "bufferView": 7,
      "byteOffset": 0,
      "min": [
        0.02702702702702703,
        0.575
      ],
      "max": [
        0.972972972972973,
        0.9
      ]
    },
    {
      "name": "indices_2",
      "componentType": 5121,
      "count": 84,
      "type": "SCALAR",
      "bufferView": 8,
      "byteOffset": 0,
      "min": [
        0
      ],
      "max": [
        55
      ]
    },
    {
      "name": "positions_3",
      "componentType": 5126,
      "count": 56,
      "type": "VEC3",
      "bufferView": 9,
      "byteOffset": 0,
      "min": [
        0,
        0,
        0
      ],
      "max": [
        5,
        4,
        6
      ]
    },
    {
      "name": "texcoords_3",
      "componentType": 5126,
      "count": 56,
      "type": "VEC2",
      "bufferView": 10,
      "byteOffset": 0,
      "min": [
        0.3783783783783784,
        0.175
      ],
      "max": [
        0.972972972972973,
        0.825
      ]
    },
    {
      "name": "indices_3",
      "componentType": 5121,
      "count": 84,
      "type": "SCALAR",
      "bufferView": 11,
      "byteOffset": 0,
      "min": [
        0
      ],
      "max": [
        55
      ]
    },
    {
      "name": "positions_4",
      "componentType": 5126,
      "count": 56,
      "type": "VEC3",
      "bufferView": 12,
      "byteOffset": 0,
      "min": [
        0,
        0,
        0
      ],
      "max": [
        5,
        6,
        5
      ]
    },
    {
      "name": "texcoords_4",
      "componentType": 5126,
      "count": 56,
      "type": "VEC2",
      "bufferView": 13,
      "byteOffset": 0,
      "min": [
        0.9459459459459459,
        0.575
      ],
      "max": [
        0.972972972972973,
        0.6
      ]
    },
    {
      "name": "indices_4",
      "componentType": 5121,
      "count": 84,
      "type": "SCALAR",
      "bufferView": 14,
      "byteOffset": 0,
      "min": [
        0
      ],
      "max": [
        55
      ]
    },
    {
      "name": "positions_5",
      "componentType": 5126,
      "count": 56,
      "type": "VEC3",
      "bufferView": 15,
      "byteOffset": 0,
      "min": [
        0,
        0,
        0
      ],
      "max": [
        5,
        8,
        5
      ]
    },
    {
      "name": "texcoords_5",
      "componentType": 5126,
      "count": 56,
      "type": "VEC2",
      "bufferView": 16,
      "byteOffset": 0,
      "min": [
        0.02702702702702703,
        0.575
      ],
      "max": [
        0.972972972972973,
        0.9
      ]
    },
    {
      "name": "indices_5",
      "componentType": 5121,
      "count": 84,
      "type": "SCALAR",
      "bufferView": 17,
      "byteOffset": 0,
      "min": [
        0
      ],
      "max": [
        55
      ]
    },
    {
      "name": "positions_6",
      "componentType": 5126,
      "count": 56,
      "type": "VEC3",
      "bufferView": 18,
      "byteOffset": 0,
      "min": [
        0,
        0,
        0
      ],
      "max": [
        5,
        4,
        6
      ]
    },
    {
      "name": "texcoords_6",
      "componentType": 5126,
      "count": 56,
      "type": "VEC2",
      "bufferView": 19,
      "byteOffset": 0,
      "min": [
        0.3783783783783784,
        0.175
      ],
      "max": [
        0.972972972972973,
        0.825
      ]
    },
    {
      "name": "indices_6",
      "componentType": 5121,
      "count": 84,
      "type": "SCALAR",
      "bufferView": 20,
      "byteOffset": 0,
      "min": [
        0
      ],
      "max": [
        55
      ]
    },
    {
      "name": "positions_7",
      "componentType": 5126,
      "count": 72,
      "type": "VEC3",
      "bufferView": 21,
      "byteOffset": 0,
      "min": [
        0,
        0,
        0
      ],
      "max": [
        11,
        8,
        8
      ]
    },
    {
      "name": "texcoords_7",
      "componentType": 5126,
      "count": 72,
      "type": "VEC2",
      "bufferView": 22,
      "byteOffset": 0,
      "min": [
        0.02702702702702703,
        0.025
      ],
      "max": [
        0.972972972972973,
        0.975
      ]
    },
    {
      "name": "indices_7",
      "componentType": 5121,
      "count": 108,
      "type": "SCALAR",
      "bufferView": 23,
      "byteOffset": 0,
      "min": [
        0
      ],
      "max": [
        71
      ]
    },
    {
      "name": "positions_8",
      "componentType": 5126,
      "count": 24,
      "type": "VEC3",
      "bufferView": 24,
      "byteOffset": 0,
      "min": [
        0,
        0,
        0
      ],
      "max": [
        3,
        6,
        3
      ]
    },
    {
      "name": "texcoords_8",
      "componentType": 5126,
      "count": 24,
      "type": "VEC2",
      "bufferView": 25,
      "byteOffset": 0,
      "min": [
        0.9459459459459459,
        0.375
      ],
      "max": [
        0.972972972972973,
        0.9
      ]
    },
    {
      "name": "indices_8",
      "componentType": 5121,
      "count": 36,
      "type": "SCALAR",
      "bufferView": 26,
      "byteOffset": 0,
      "min": [
        0
      ],
      "max": [
        23
      ]
    },
    {
      "name": "positions_9",
      "componentType": 5126,
      "count": 40,
      "type": "VEC3",
      "bufferView": 27,
      "byteOffset": 0,
      "min": [
        0,
        0,
        0
      ],
      "max": [
        3,
        4,
        3
      ]
    },
    {
      "name": "texcoords_9",
      "componentType": 5126,
      "count": 40,
      "type": "VEC2",
      "bufferView": 28,
      "byteOffset": 0,
      "min": [
        0.9459459459459459,
        0.575
      ],
      "max": [
        0.972972972972973,
        0.6
      ]
    },
    {
      "name": "indices_9",
      "componentType": 5121,
      "count": 60,
      "type": "SCALAR",
      "bufferView": 29,
      "byteOffset": 0,
      "min": [
        0
      ],
      "max": [
        39
      ]
    },
    {
      "name": "positions_10",
      "componentType": 5126,
      "count": 128,
      "type": "VEC3",
      "bufferView": 30,
      "byteOffset": 0,
      "min": [
        1,
        0,
        0
      ],
      "max": [
        5,
        4,
        10
      ]
    },
    {
      "name": "texcoords_10",
      "componentType": 5126,
      "count": 128,
      "type": "VEC2",
      "bufferView": 31,
      "byteOffset": 0,
      "min": [
        0.21621621621621623,
        0.275
      ],
      "max": [
        0.972972972972973,
        0.9
      ]
    },
    {
      "name": "indices_10",
      "componentType": 5121,
      "count": 192,
      "type": "SCALAR",
      "bufferView": 32,
      "byteOffset": 0,
      "min": [
        0
      ],
      "max": [
        127
      ]
    },
    {
      "name": "positions_11",
      "componentType": 5126,
      "count": 24,
      "type": "VEC3",
      "bufferView": 33,
      "byteOffset": 0,
      "min": [
        0,
        0,
        0
      ],
      "max": [
        3,
        6,
        3
      ]
    },
    {
      "name": "texcoords_11",
      "componentType": 5126,
      "count": 24,
      "type": "VEC2",
      "bufferView": 34,
      "byteOffset": 0,
      "min": [
        0.9459459459459459,
        0.375
      ],
      "max": [
        0.972972972972973,
        0.9
      ]
    },
    {
      "name": "indices_11",
      "componentType": 5121,
      "count": 36,
      "type": "SCALAR",
      "bufferView": 35,
      "byteOffset": 0,
      "min": [
        0
      ],
      "max": [
        23
      ]
    },
    {
      "name": "positions_12",
      "componentType": 5126,
      "count": 40,
      "type": "VEC3",
      "bufferView": 36,
      "byteOffset": 0,
      "min": [
        0,
        0,
        0
      ],
      "max": [
        3,
        4,
        3
      ]
    },
    {
      "name": "texcoords_12",
      "componentType": 5126,
      "count": 40,
      "type": "VEC2",
      "bufferView": 37,
      "byteOffset": 0,
      "min": [
        0.9459459459459459,
        0.575
      ],
      "max": [
        0.972972972972973,
        0.6
      ]
    },
    {
      "name": "indices_12",
      "componentType": 5121,
      "count": 60,
      "type": "SCALAR",
      "bufferView": 38,
      "byteOffset": 0,
      "min": [
        0
      ],
      "max": [
        39
      ]
    },
    {
      "name": "positions_13",
      "componentType": 5126,
      "count": 48,
      "type": "VEC3",
      "bufferView": 39,
      "byteOffset": 0,
      "min": [
        0,
        0,
        0
      ],
      "max": [
        4,
        4,
        6
      ]
    },
    {
      "name": "texcoords_13",
      "componentType": 5126,
      "count": 48,
      "type": "VEC2",
      "bufferView": 40,
      "byteOffset": 0,
      "min": [
        0.02702702702702703,
        0.025
      ],
      "max": [
        0.972972972972973,
        0.825
      ]
    },
    {
      "name": "indices_13",
      "componentType": 5121,
      "count": 72,
      "type": "SCALAR",
      "bufferView": 41,
      "byteOffset": 0,
      "min": [
        0
      ],
      "max": [
        47
      ]
    },
    {
      "name": "positions_14",
      "componentType": 5126,
      "count": 532,
      "type": "VEC3",
      "bufferView": 42,
      "byteOffset": 0,
      "min": [
        0,
        0,
        0
      ],
      "max": [
        19,
        20,
        14
      ]
    },
    {
      "name": "texcoords_14",
      "componentType": 5126,
      "count": 532,
      "type": "VEC2",
      "bufferView": 43,
      "byteOffset": 0,
      "min": [
        0.02702702702702703,
        0.025
      ],
      "max": [
        0.972972972972973,
        0.975
      ]
    },
    {
      "name": "indices_14",
      "componentType": 5123,
      "count": 798,
      "type": "SCALAR",
      "bufferView": 44,
      "byteOffset": 0,
      "min": [
        0
      ],
      "max": [
        531
      ]
    }
  ],
  "bufferViews": [
    {
      "name": "bufferView_positions_0",
      "buffer": 0,
      "byteLength": 1296,
      "byteOffset": 0,
      "byteStride": 12,
      "target": 34962
    },
    {
      "name": "bufferView_texcoords_0",
      "buffer": 0,
      "byteLength": 864,
      "byteOffset": 1296,
      "byteStride": 8,
      "target": 34962
    },
    {
      "name": "bufferView_indices_0",
      "buffer": 0,
      "byteLength": 162,
      "byteOffset": 2160,
      "target": 34963
    },
    {
      "name": "bufferView_positions_1",
      "buffer": 0,
      "byteLength": 672,
      "byteOffset": 2324,
      "byteStride": 12,
      "target": 34962
    },
    {
      "name": "bufferView_texcoords_1",
      "buffer": 0,
      "byteLength": 448,
      "byteOffset": 2996,
      "byteStride": 8,
      "target": 34962
    },
    {
      "name": "bufferView_indices_1",
      "buffer": 0,
      "byteLength": 84,
      "byteOffset": 3444,
      "target": 34963
    },
    {
      "name": "bufferView_positions_2",
      "buffer": 0,
      "byteLength": 672,
      "byteOffset": 3528,
      "byteStride": 12,
      "target": 34962
    },
    {
      "name": "bufferView_texcoords_2",
      "buffer": 0,
      "byteLength": 448,
      "byteOffset": 4200,
      "byteStride": 8,
      "target": 34962
    },
    {
      "name": "bufferView_indices_2",
      "buffer": 0,
      "byteLength": 84,
      "byteOffset": 4648,
      "target": 34963
    },
    {
      "name": "bufferView_positions_3",
      "buffer": 0,
      "byteLength": 672,
      "byteOffset": 4732,
      "byteStride": 12,
      "target": 34962
    },
    {
      "name": "bufferView_texcoords_3",
      "buffer": 0,
      "byteLength": 448,
      "byteOffset": 5404,
      "byteStride": 8,
      "target": 34962
    },
    {
      "name": "bufferView_indices_3",
      "buffer": 0,
      "byteLength": 84,
      "byteOffset": 5852,
      "target": 34963
    },
    {
      "name": "bufferView_positions_4",
      "buffer": 0,
      "byteLength": 672,
      "byteOffset": 5936,
      "byteStride": 12,
      "target": 34962
    },
    {
      "name": "bufferView_texcoords_4",
      "buffer": 0,
      "byteLength": 448,
      "byteOffset": 6608,
      "byteStride": 8,
      "target": 34962
    },
    {
      "name": "bufferView_indices_4",
      "buffer": 0,
      "byteLength": 84,
      "byteOffset": 7056,
      "target": 34963
    },
    {
      "name": "bufferView_positions_5",
      "buffer": 0,
      "byteLength": 672,
      "byteOffset": 7140,
      "byteStride": 12,
      "target": 34962
    },
    {
      "name": "bufferView_texcoords_5",
      "buffer": 0,
      "byteLength": 448,
      "byteOffset": 7812,
      "byteStride": 8,
      "target": 34962
    },
    {
      "name": "bufferView_indices_5",
      "buffer": 0,
      "byteLength": 84,
      "byteOffset": 8260,
      "target": 34963
    },
    {
      "name": "bufferView_positions_6",
      "buffer": 0,
      "byteLength": 672,
      "byteOffset": 8344,
      "byteStride": 12,
      "target": 34962
    },
    {
      "name": "bufferView_texcoords_6",
      "buffer": 0,
      "byteLength": 448,
      "byteOffset": 9016,
      "byteStride": 8,
      "target": 34962
    },
    {
      "name": "bufferView_indices_6",
      "buffer": 0,
      "byteLength": 84,
      "byteOffset": 9464,
      "target": 34963
    },
    {
      "name": "bufferView_positions_7",
      "buffer": 0,
      "byteLength": 864,
      "byteOffset": 9548,
      "byteStride": 12,
      "target": 34962
    },
    {
      "name": "bufferView_texcoords_7",
      "buffer": 0,
      "byteLength": 576,
      "byteOffset": 10412,
      "byteStride": 8,
      "target": 34962
    },
    {
      "name": "bufferView_indices_7",
      "buffer": 0,
      "byteLength": 108,
      "byteOffset": 10988,
      "target": 34963
    },
    {
      "name": "bufferView_positions_8",
      "buffer": 0,
      "byteLength": 288,
      "byteOffset": 11096,
      "byteStride": 12,
      "target": 34962
    },
    {
      "name": "bufferView_texcoords_8",
      "buffer": 0,
      "byteLength": 192,
      "byteOffset": 11384,
      "byteStride": 8,
      "target": 34962
    },
    {
      "name": "bufferView_indices_8",
      "buffer": 0,
      "byteLength": 36,
      "byteOffset": 11576,
      "target": 34963
    },
    {
      "name": "bufferView_positions_9",
      "buffer": 0,
      "byteLength": 480,
      "byteOffset": 11612,
      "byteStride": 12,
      "target": 34962
    },
    {
      "name": "bufferView_texcoords_9",
      "buffer": 0,
      "byteLength": 320,
      "byteOffset": 12092,
      "byteStride": 8,
      "target": 34962
    },
    {
      "name": "bufferView_indices_9",
      "buffer": 0,
      "byteLength": 60,
      "byteOffset": 12412,
      "target": 34963
    },
    {
      "name": "bufferView_positions_10",
      "buffer": 0,
      "byteLength": 1536,
      "byteOffset": 12472,
      "byteStride": 12,
      "target": 34962
    },
    {
      "name": "bufferView_texcoords_10",
      "buffer": 0,
      "byteLength": 1024,
      "byteOffset": 14008,
      "byteStride": 8,
      "target": 34962
    },
    {
      "name": "bufferView_indices_10",
      "buffer": 0,
      "byteLength": 192,
      "byteOffset": 15032,
      "target": 34963
    },
    {
      "name": "bufferView_positions_11",
      "buffer": 0,
      "byteLength": 288,
      "byteOffset": 15224,
      "byteStride": 12,
      "target": 34962
    },
    {
      "name": "bufferView_texcoords_11",
      "buffer": 0,
      "byteLength": 192,
      "byteOffset": 15512,
      "byteStride": 8,
      "target": 34962
    },
    {
      "name": "bufferView_indices_11",
      "buffer": 0,
      "byteLength": 36,
      "byteOffset": 15704,
      "target": 34963
    },
    {
      "name": "bufferView_positions_12",
      "buffer": 0,
      "byteLength": 480,
      "byteOffset": 15740,
      "byteStride": 12,
      "target": 34962
    },
    {
      "name": "bufferView_texcoords_12",
      "buffer": 0,
      "byteLength": 320,
      "byteOffset": 16220,
      "byteStride": 8,
      "target": 34962
    },
    {
      "name": "bufferView_indices_12",
      "buffer": 0,
      "byteLength": 60,
      "byteOffset": 16540,
      "target": 34963
    },
    {
      "name": "bufferView_positions_13",
      "buffer": 0,
      "byteLength": 576,
      "byteOffset": 16600,
      "byteStride": 12,
      "target": 34962
    },
    {
      "name": "bufferView_texcoords_13",
      "buffer": 0,
      "byteLength": 384,
      "byteOffset": 17176,
      "byteStride": 8,
      "target": 34962
    },
    {
      "name": "bufferView_indices_13",
      "buffer": 0,
      "byteLength": 72,
      "byteOffset": 17560,
      "target": 34963
    },
    {
      "name": "bufferView_positions_14",
      "buffer": 0,
      "byteLength": 6384,
      "byteOffset": 17632,
      "byteStride": 12,
      "target": 34962
    },
    {
      "name": "bufferView_texcoords_14",
      "buffer": 0,
      "byteLength": 4256,
      "byteOffset": 24016,
      "byteStride": 8,
      "target": 34962
    },
    {
      "name": "bufferView_indices_14",
      "buffer": 0,
      "byteLength": 1596,
      "byteOffset": 28272,
      "target": 34963
    },
    {
      "name": "bufferView_image",
      "buffer": 0,
      "byteLength": 970,
      "byteOffset": 29868
    },
    {
      "name": "bufferView_emissive_image",
      "buffer": 0,
      "byteLength": 172,
      "byteOffset": 30838
    }
  ],
  "buffers": [
    {
      "name": "y4BfghMQfODLWdQcBw1Bl-gpvLyVbkE4CBSvWuyBLDc",
      "byteLength": 31012,
      "uri": "data:application/octet-stream;base64,"
    }
  ],
  "images": [
    {
      "name": "image",
      "mimeType": "image/png",
      "bufferView": 45
    },
    {
      "name": "emissive image",
      "mimeType": "image/png",
      "bufferView": 46
    }
  ],
  "materials": [
    {
      "name": "material",
      "pbrMetallicRoughness": {
        "baseColorTexture": {
          "index": 0
        },
        "baseColorFactor": [
          1,
          1,
          1,
          1
        ],
        "metallicFactor": 0,
        "roughnessFactor": 1
      },
      "emissiveTexture": {
        "index": 1
      },
      "emissiveFactor": [
        0,
        0,
        0
      ],
      "alphaMode": "OPAQUE",
      "doubleSided": true,
      "extensions": {
        "KHR_materials_unlit": {}
      }
    }
  ],
  "meshes": [
    {
      "name": "mesh_0",
      "primitives": [
        {
          "attributes": {
            "POSITION": 0,
            "TEXCOORD_0": 1
          },
          "indices": 2,
          "material": 0,
          "mode": 4
        }
      ]
    },
    {
      "name": "mesh_1",
      "primitives": [
        {
          "attributes": {
            "POSITION": 3,
            "TEXCOORD_0": 4
          },
          "indices": 5,
          "material": 0,
          "mode": 4
        }
      ]
    },
    {
      "name": "mesh_2",
      "primitives": [
        {
          "attributes": {
            "POSITION": 6,
            "TEXCOORD_0": 7
          },
          "indices": 8,
          "material": 0,
          "mode": 4
        }
      ]
    },
    {
      "name": "mesh_3",
      "primitives": [
        {
          "attributes": {
            "POSITION": 9,
            "TEXCOORD_0": 10
          },
          "indices": 11,
          "material": 0,
          "mode": 4
        }
      ]
    },
    {
      "name": "mesh_4",
      "primitives": [
        {
          "attributes": {
            "POSITION": 12,
            "TEXCOORD_0": 13
          },
          "indices": 14,
          "material": 0,
          "mode": 4
        }
      ]
    },
    {
      "name": "mesh_5",
      "primitives": [
        {
          "attributes": {
            "POSITION": 15,
            "TEXCOORD_0": 16
          },
          "indices": 17,
          "material": 0,
          "mode": 4
        }
      ]
    },
    {
      "name": "mesh_6",
      "primitives": [
        {
          "attributes": {
            "POSITION": 18,
            "TEXCOORD_0": 19
          },
          "indices": 20,
          "material": 0,
          "mode": 4
        }
      ]
    },
    {
      "name": "mesh_7",
      "primitives": [
        {
          "attributes": {
            "POSITION": 21,
            "TEXCOORD_0": 22
          },
          "indices": 23,
          "material": 0,
          "mode": 4
        }
      ]
    },
    {
      "name": "mesh_8",
      "primitives": [
        {
          "attributes": {
            "POSITION": 24,
            "TEXCOORD_0": 25
          },
          "indices": 26,
          "material": 0,
          "mode": 4
        }
      ]
    },
    {
      "name": "mesh_9",
      "primitives": [
        {
          "attributes": {
            "POSITION": 27,
            "TEXCOORD_0": 28
          },
          "indices": 29,
          "material": 0,
          "mode": 4
        }
      ]
    },
    {
      "name": "mesh_10",
      "primitives": [
        {
          "attributes": {
            "POSITION": 30,
            "TEXCOORD_0": 31
          },
          "indices": 32,
          "material": 0,
          "mode": 4
        }
      ]
    },
    {
      "name": "mesh_11",
      "primitives": [
        {
          "attributes": {
            "POSITION": 33,
            "TEXCOORD_0": 34
          },
          "indices": 35,
          "material": 0,
          "mode": 4
        }
      ]
    },
    {
      "name": "mesh_12",
      "primitives": [
        {
          "attributes": {
            "POSITION": 36,
            "TEXCOORD_0": 37
          },
          "indices": 38,
          "material": 0,
          "mode": 4
        }
      ]
    },
    {
      "name": "mesh_13",
      "primitives": [
        {
          "attributes": {
            "POSITION": 39,
            "TEXCOORD_0": 40
          },
          "indices": 41,
          "material": 0,
          "mode": 4
        }
      ]
    },
    {
      "name": "mesh_14",
      "primitives": [
        {
          "attributes": {
            "POSITION": 42,
            "TEXCOORD_0": 43
          },
          "indices": 44,
          "material": 0,
          "mode": 4
        }
      ]
    }
  ],
  "nodes": [
    {
      "name": "Root",
      "rotation": [
        0,
        0,
        0,
        1
      ],
      "scale": [
        1,
        1,
        1
      ],
      "translation": [
        0,
        0,
        0
      ],
      "children": [
        1,
        34
      ]
    },
    {
      "name": "Root",
      "rotation": [
        0,
        0,
        0,
        1
      ],
      "scale": [
        1,
        1,
        1
      ],
      "translation": [
        0,
        0,
        0
      ],
      "children": [
        2
      ]
    },
    {
      "name": "all",
      "rotation": [
        0,
        0,
        0,
        1
      ],
      "scale": [
        1,
        1,
        1
      ],
      "translation": [
        9.5,
        10,
        7
      ],
      "children": [
        3
      ]
    },
    {
      "name": "臀部",
      "rotation": [
        0,
        0,
        0,
        1
      ],
      "scale": [
        1,
        1,
        1
      ],
      "translation": [
        0,
        13.144299507141113,
        0
      ],
      "children": [
        4,
        5,
        11,
        17
      ]
    },
    {
      "name": "Hip",
      "mesh": 0,
      "rotation": [
        0,
        0,
        0,
        1
      ],
      "scale": [
        1,
        1,
        1
      ],
      "translation": [
        -5.5,
        -3.5,
        -4
      ]
    },
    {
      "name": "右大腿",
      "rotation": [
        0,
        0,
        0,
        1
      ],
      "scale": [
        1,
        1,
        1
      ],
      "translation": [
        -2.80747652053833,
        -4.393732070922852,
        0
      ],
      "children": [
        6,
        7
      ]
    },
    {
      "name": "Right lower leg",
      "mesh": 1,
      "rotation": [
        0,
        0,
        0,
        1
      ],
      "scale": [
        1,
        1,
        1
      ],
      "translation": [
        -2.5,
        -3,
        -2.5
      ]
    },
    {
      "name": "右小腿",
      "rotation": [
        0,
        0,
        0,
        1
      ],
      "scale": [
        1,
        1,
        1
      ],
      "translation": [
        0,
        -3.3287105560302734,
        0
      ],
      "children": [
        8,
        9
      ]
    },
    {
      "name": "Right upper leg",
      "mesh": 2,
      "rotation": [
        0,
        0,
        0,
        1
      ],
      "scale": [
        1,
        1,
        1
      ],
      "translation": [
        -2.5,
        -4,
        -2.5
      ]
    },
    {
      "name": "右脚",
      "rotation": [
        0,
        0,
        0,
        1
      ],
      "scale": [
        1,
        1,
        1
      ],
      "translation": [
        -0.14114809036254883,
        -4.080622673034668,
        0
      ],
      "children": [
        10
      ]
    },
    {
      "name": "Right foot",
      "mesh": 3,
      "rotation": [
        0,
        0,
        0,
        1
      ],
      "scale": [
        1,
        1,
        1
      ],
      "translation": [
        -2.5,
        -2,
        -3
      ]
    },
    {
      "name": "左大腿",
      "rotation": [
        0,
        0,
        0,
        1
      ],
      "scale": [
        1,
        1,
        1
      ],
      "translation": [
        3.1531448364257812,
        -4.533783912658691,
        0
      ],
      "children": [
        12,
        13
      ]
    },
    {
      "name": "Left lower leg",
      "mesh": 4,
      "rotation": [
        0,
        0,
        0,
        1
      ],
      "scale": [
        1,
        1,
        1
      ],
      "translation": [
        -2.5,
        -3,
        -2.5
      ]
    },
    {
      "name": "左小腿",
      "rotation": [
        0,
        0,
        0,
        1
      ],
      "scale": [
        1,
        1,
        1
      ],
      "translation": [
        0,
        -3.598489761352539,
        0
      ],
      "children": [
        14,
        15
      ]
    },
    {
      "name": "Left upper leg",
      "mesh": 5,
      "rotation": [
        0,
        0,
        0,
        1
      ],
      "scale": [
        1,
        1,
        1
      ],
      "translation": [
        -2.5,
        -4,
        -2.5
      ]
    },
    {
      "name": "左脚",
      "rotation": [
        0,
        0,
        0,
        1
      ],
      "scale": [
        1,
        1,
        1
      ],
      "translation": [
        0,
        -3.6800174713134766,
        0
      ],
      "children": [
        16
      ]
    },
    {
      "name": "Left foot",
      "mesh": 6,
      "rotation": [
        0,
        0,
        0,
        1
      ],
      "scale": [
        1,
        1,
        1
      ],
      "translation": [
        -2.5,
        -2,
        -3
      ]
    },
    {
      "name": "身体",
      "rotation": [
        0,
        0,
        0,
        1
      ],
      "scale": [
        1,
        1,
        1
      ],
      "translation": [
        0,
        6.274001121520996,
        0
      ],
      "children": [
        18,
        19,
        20,
        26,
        32
      ]
    },
    {
      "name": "Body",
      "mesh": 7,
      "rotation": [
        0,
        0,
        0,
        1
      ],
      "scale": [
        1,
        1,
        1
      ],
      "translation": [
        -5.5,
        -4,
        -4
      ]
    },
    {
      "name": "Bone",
      "rotation": [
        0,
        0,
        0,
        1
      ],
      "scale": [
        1,
        1,
        1
      ],
      "translation": [
        0,
        0,
        0
      ]
    },
    {
      "name": "右膀",
      "rotation": [
        0,
        0,
        0,
        1
      ],
      "scale": [
        1,
        1,
        1
      ],
      "translation": [
        -6.374626159667969,
        1.1228046417236328,
        0
      ],
      "children": [
        21,
        22
      ]
    },
    {
      "name": "Right lower arm",
      "mesh": 8,
      "rotation": [
        0,
        0,
        0,
        1
      ],
      "scale": [
        1,
        1,
        1
      ],
      "translation": [
        -1.5,
        -3,
        -1.5
      ]
    },
    {
      "name": "右臂",
      "rotation": [
        0,
        0,
        0,
        1
      ],
      "scale": [
        1,
        1,
        1
      ],
      "translation": [
        0,
        -3.8506813049316406,
        0
      ],
      "children": [
        23,
        24
      ]
    },
    {
      "name": "Right upper arm",
      "mesh": 9,
      "rotation": [
        0,
        0,
        0,
        1
      ],
      "scale": [
        1,
        1,
        1
      ],
      "translation": [
        -1.5,
        -2,
        -1.5
      ]
    },
    {
      "name": "右手",
      "rotation": [
        0,
        0,
        0,
        1
      ],
      "scale": [
        1,
        1,
        1
      ],
      "translation": [
        0,
        -1.8815841674804688,
        0
      ],
      "children": [
        25
      ]
    },
    {
      "name": "Right hand",
      "mesh": 10,
      "rotation": [
        0,
        0,
        0,
        1
      ],
      "scale": [
        1,
        1,
        1
      ],
      "translation": [
        -3,
        -4,
        -5
      ]
    },
    {
      "name": "左膀",
      "rotation": [
        0,
        0,
        0,
        1
      ],
      "scale": [
        1,
        1,
        1
      ],
      "translation": [
        6.785036087036133,
        0.6639423370361328,
        0
      ],
      "children": [
        27,
        28
      ]
    },
    {
      "name": "Left lower arm",
      "mesh": 11,
      "rotation": [
        0,
        0,
        0,
        1
      ],
      "scale": [
        1,
        1,
        1
      ],
      "translation": [
        -1.5,
        -3,
        -1.5
      ]
    },
    {
      "name": "左臂",
      "rotation": [
        0,
        0,
        0,
        1
      ],
      "scale": [
        1,
        1,
        1
      ],
      "translation": [
        0,
        -3.414459228515625,
        0
      ],
      "children": [
        29,
        30
      ]
    },
    {
      "name": "Left upper arm",
      "mesh": 12,
      "rotation": [
        0,
        0,
        0,
        1
      ],
      "scale": [
        1,
        1,
        1
      ],
      "translation": [
        -1.5,
        -2,
        -1.5
      ]
    },
    {
      "name": "左手",
      "rotation": [
        0,
        0,
        0,
        1
      ],
      "scale": [
        1,
        1,
        1
      ],
      "translation": [
        0,
        -4.105861663818359,
        0
      ],
      "children": [
        31
      ]
    },
    {
      "name": "Left hand",
      "mesh": 13,
      "rotation": [
        0,
        0,
        0,
        1
      ],
      "scale": [
        1,
        1,
        1
      ],
      "translation": [
        -2,
        -2,
        -3
      ]
    },
    {
      "name": "脑袋",
      "rotation": [
        0,
        0,
        0,
        1
      ],
      "scale": [
        1,
        1,
        1
      ],
      "translation": [
        0,
        11.713645935058594,
        0
      ],
      "children": [
        33
      ]
    },
    {
      "name": "Head",
      "mesh": 14,
      "rotation": [
        0,
        0,
        0,
        1
      ],
      "scale": [
        1,
        1,
        1
      ],
      "translation": [
        -9.5,
        -10,
        -7
      ]
    },
    {
      "name": "Root",
      "rotation": [
        0,
        0,
        0,
        1
      ],
      "scale": [
        1,
        1,
        1
      ],
      "translation": [
        0,
        0,
        0
      ],
      "children": [
        35
      ]
    },
    {
      "name": "Group",
      "rotation": [
        0,
        0,
        0,
        1
      ],
      "scale": [
        1,
        1,
        1
      ],
      "translation": [
        16.285036087036133,
        33.51034927368164,
        7
      ]
    }
  ],
  "samplers": [
    {
      "wrapS": 33071,
      "wrapT": 33071,
      "magFilter": 9728,
      "minFilter": 9728
    }
  ],
  "scene": 0,
  "scenes": [
    {
      "nodes": [
        0
      ]
    }
  ],
  "textures": [
    {
      "name": "texture",
      "sampler": 0,
      "source": 0
    },
    {
      "name": "emissive texture",
      "sampler": 0,
      "source": 1
    }
  ]
}