{
  "asset": {
    "generator": "ArenaPro Web VCode Exporter",
    "version": "2.0"
  },
  "extensionsUsed": [
    "KHR_materials_unlit"
  ],
  "accessors": [
    {
      "name": "positions_0",
      "componentType": 5126,
      "count": 544,
      "type": "VEC3",
      "bufferView": 0,
      "byteOffset": 0,
      "min": [
        0,
        0,
        0
      ],
      "max": [
        134,
        79,
        70
      ]
    },
    {
      "name": "texcoords_0",
      "componentType": 5126,
      "count": 544,
      "type": "VEC2",
      "bufferView": 1,
      "byteOffset": 0,
      "min": [
        0.0037174721189591076,
        0.003676470588235294
      ],
      "max": [
        0.9962825278810409,
        0.9963235294117647
      ]
    },
    {
      "name": "indices_0",
      "componentType": 5123,
      "count": 816,
      "type": "SCALAR",
      "bufferView": 2,
      "byteOffset": 0,
      "min": [
        0
      ],
      "max": [
        543
      ]
    },
    {
      "name": "positions_1",
      "componentType": 5126,
      "count": 320,
      "type": "VEC3",
      "bufferView": 3,
      "byteOffset": 0,
      "min": [
        0,
        0,
        0
      ],
      "max": [
        135,
        9,
        35
      ]
    },
    {
      "name": "texcoords_1",
      "componentType": 5126,
      "count": 320,
      "type": "VEC2",
      "bufferView": 4,
      "byteOffset": 0,
      "min": [
        0.0037174721189591076,
        0.003676470588235294
      ],
      "max": [
        0.9962825278810409,
        0.9963235294117647
      ]
    },
    {
      "name": "indices_1",
      "componentType": 5123,
      "count": 480,
      "type": "SCALAR",
      "bufferView": 5,
      "byteOffset": 0,
      "min": [
        0
      ],
      "max": [
        319
      ]
    },
    {
      "name": "positions_2",
      "componentType": 5126,
      "count": 344,
      "type": "VEC3",
      "bufferView": 6,
      "byteOffset": 0,
      "min": [
        0,
        0,
        0
      ],
      "max": [
        135,
        10,
        31
      ]
    },
    {
      "name": "texcoords_2",
      "componentType": 5126,
      "count": 344,
      "type": "VEC2",
      "bufferView": 7,
      "byteOffset": 0,
      "min": [
        0.0037174721189591076,
        0.003676470588235294
      ],
      "max": [
        0.9962825278810409,
        0.9852941176470589
      ]
    },
    {
      "name": "indices_2",
      "componentType": 5123,
      "count": 516,
      "type": "SCALAR",
      "bufferView": 8,
      "byteOffset": 0,
      "min": [
        0
      ],
      "max": [
        343
      ]
    }
  ],
  "bufferViews": [
    {
      "name": "bufferView_positions_0",
      "buffer": 0,
      "byteLength": 6528,
      "byteOffset": 0,
      "byteStride": 12,
      "target": 34962
    },
    {
      "name": "bufferView_texcoords_0",
      "buffer": 0,
      "byteLength": 4352,
      "byteOffset": 6528,
      "byteStride": 8,
      "target": 34962
    },
    {
      "name": "bufferView_indices_0",
      "buffer": 0,
      "byteLength": 1632,
      "byteOffset": 10880,
      "target": 34963
    },
    {
      "name": "bufferView_positions_1",
      "buffer": 0,
      "byteLength": 3840,
      "byteOffset": 12512,
      "byteStride": 12,
      "target": 34962
    },
    {
      "name": "bufferView_texcoords_1",
      "buffer": 0,
      "byteLength": 2560,
      "byteOffset": 16352,
      "byteStride": 8,
      "target": 34962
    },
    {
      "name": "bufferView_indices_1",
      "buffer": 0,
      "byteLength": 960,
      "byteOffset": 18912,
      "target": 34963
    },
    {
      "name": "bufferView_positions_2",
      "buffer": 0,
      "byteLength": 4128,
      "byteOffset": 19872,
      "byteStride": 12,
      "target": 34962
    },
    {
      "name": "bufferView_texcoords_2",
      "buffer": 0,
      "byteLength": 2752,
      "byteOffset": 24000,
      "byteStride": 8,
      "target": 34962
    },
    {
      "name": "bufferView_indices_2",
      "buffer": 0,
      "byteLength": 1032,
      "byteOffset": 26752,
      "target": 34963
    },
    {
      "name": "bufferView_image",
      "buffer": 0,
      "byteLength": 6921,
      "byteOffset": 27784
    },
    {
      "name": "bufferView_emissive_image",
      "buffer": 0,
      "byteLength": 2772,
      "byteOffset": 34705
    }
  ],
  "buffers": [
    {
      "name": "dFLlu4mIvWOJmAVBUouWcjuybjA8d8Cst0kIa-7-4kA",
      "byteLength": 37480,
      "uri": "data:application/octet-stream;base64,"
    }
  ],
  "images": [
    {
      "name": "image",
      "mimeType": "image/png",
      "bufferView": 9
    },
    {
      "name": "emissive image",
      "mimeType": "image/png",
      "bufferView": 10
    }
  ],
  "materials": [
    {
      "name": "material",
      "pbrMetallicRoughness": {
        "baseColorTexture": {
          "index": 0
        },
        "baseColorFactor": [
          1,
          1,
          1,
          1
        ],
        "metallicFactor": 0,
        "roughnessFactor": 1
      },
      "emissiveTexture": {
        "index": 1
      },
      "emissiveFactor": [
        0,
        0,
        0
      ],
      "alphaMode": "OPAQUE",
      "doubleSided": true,
      "extensions": {
        "KHR_materials_unlit": {}
      }
    }
  ],
  "meshes": [
    {
      "name": "mesh_0",
      "primitives": [
        {
          "attributes": {
            "POSITION": 0,
            "TEXCOORD_0": 1
          },
          "indices": 2,
          "material": 0,
          "mode": 4
        }
      ]
    },
    {
      "name": "mesh_1",
      "primitives": [
        {
          "attributes": {
            "POSITION": 3,
            "TEXCOORD_0": 4
          },
          "indices": 5,
          "material": 0,
          "mode": 4
        }
      ]
    },
    {
      "name": "mesh_2",
      "primitives": [
        {
          "attributes": {
            "POSITION": 6,
            "TEXCOORD_0": 7
          },
          "indices": 8,
          "material": 0,
          "mode": 4
        }
      ]
    }
  ],
  "nodes": [
    {
      "name": "Root",
      "rotation": [
        0,
        0,
        0,
        1
      ],
      "scale": [
        1,
        1,
        1
      ],
      "translation": [
        0,
        0,
        0
      ],
      "children": [
        1,
        2
      ]
    },
    {
      "name": "Root",
      "rotation": [
        0,
        0,
        0,
        1
      ],
      "scale": [
        1,
        1,
        1
      ],
      "translation": [
        0,
        0,
        0
      ]
    },
    {
      "name": "Root",
      "rotation": [
        0,
        0,
        0,
        1
      ],
      "scale": [
        1,
        1,
        1
      ],
      "translation": [
        0,
        0,
        0
      ],
      "children": [
        3,
        4,
        5
      ]
    },
    {
      "name": "Object",
      "mesh": 0,
      "rotation": [
        0,
        0,
        0,
        1
      ],
      "scale": [
        1,
        1,
        1
      ],
      "translation": [
        0.5,
        0,
        0
      ]
    },
    {
      "name": "Object-1",
      "mesh": 1,
      "rotation": [
        0.5560792684555054,
        0,
        0,
        0.8311291933059692
      ],
      "scale": [
        1,
        1,
        1
      ],
      "translation": [
        0,
        76.59716033935547,
        20.109214782714844
      ]
    },
    {
      "name": "Object-2",
      "mesh": 2,
      "rotation": [
        0.16729451715946198,
        0,
        0,
        0.9859069585800171
      ],
      "scale": [
        1,
        1,
        1
      ],
      "translation": [
        0,
        40.510887145996094,
        36.86083984375
      ]
    }
  ],
  "samplers": [
    {
      "wrapS": 33071,
      "wrapT": 33071,
      "magFilter": 9728,
      "minFilter": 9728
    }
  ],
  "scene": 0,
  "scenes": [
    {
      "nodes": [
        0
      ]
    }
  ],
  "textures": [
    {
      "name": "texture",
      "sampler": 0,
      "source": 0
    },
    {
      "name": "emissive texture",
      "sampler": 0,
      "source": 1
    }
  ]
}