{
  "asset": {
    "generator": "ArenaPro Web VCode Exporter",
    "version": "2.0"
  },
  "extensionsUsed": [
    "KHR_materials_unlit"
  ],
  "accessors": [
    {
      "name": "positions_0",
      "componentType": 5126,
      "count": 56,
      "type": "VEC3",
      "bufferView": 0,
      "byteOffset": 0,
      "min": [
        0,
        0,
        0
      ],
      "max": [
        6,
        40,
        1
      ]
    },
    {
      "name": "texcoords_0",
      "componentType": 5126,
      "count": 56,
      "type": "VEC2",
      "bufferView": 1,
      "byteOffset": 0,
      "min": [
        0.02857142857142857,
        0.4
      ],
      "max": [
        0.9714285714285714,
        0.9666666666666667
      ]
    },
    {
      "name": "indices_0",
      "componentType": 5121,
      "count": 84,
      "type": "SCALAR",
      "bufferView": 2,
      "byteOffset": 0,
      "min": [
        0
      ],
      "max": [
        55
      ]
    },
    {
      "name": "positions_1",
      "componentType": 5126,
      "count": 56,
      "type": "VEC3",
      "bufferView": 3,
      "byteOffset": 0,
      "min": [
        0,
        0,
        0
      ],
      "max": [
        6,
        40,
        1
      ]
    },
    {
      "name": "texcoords_1",
      "componentType": 5126,
      "count": 56,
      "type": "VEC2",
      "bufferView": 4,
      "byteOffset": 0,
      "min": [
        0.02857142857142857,
        0.4
      ],
      "max": [
        0.9714285714285714,
        0.9666666666666667
      ]
    },
    {
      "name": "indices_1",
      "componentType": 5121,
      "count": 84,
      "type": "SCALAR",
      "bufferView": 5,
      "byteOffset": 0,
      "min": [
        0
      ],
      "max": [
        55
      ]
    },
    {
      "name": "positions_2",
      "componentType": 5126,
      "count": 56,
      "type": "VEC3",
      "bufferView": 6,
      "byteOffset": 0,
      "min": [
        0,
        7,
        0
      ],
      "max": [
        6,
        40,
        1
      ]
    },
    {
      "name": "texcoords_2",
      "componentType": 5126,
      "count": 56,
      "type": "VEC2",
      "bufferView": 7,
      "byteOffset": 0,
      "min": [
        0.02857142857142857,
        0.03333333333333333
      ],
      "max": [
        0.9714285714285714,
        0.9666666666666667
      ]
    },
    {
      "name": "indices_2",
      "componentType": 5121,
      "count": 84,
      "type": "SCALAR",
      "bufferView": 8,
      "byteOffset": 0,
      "min": [
        0
      ],
      "max": [
        55
      ]
    },
    {
      "name": "positions_3",
      "componentType": 5126,
      "count": 56,
      "type": "VEC3",
      "bufferView": 9,
      "byteOffset": 0,
      "min": [
        0,
        0,
        0
      ],
      "max": [
        6,
        40,
        1
      ]
    },
    {
      "name": "texcoords_3",
      "componentType": 5126,
      "count": 56,
      "type": "VEC2",
      "bufferView": 10,
      "byteOffset": 0,
      "min": [
        0.02857142857142857,
        0.4
      ],
      "max": [
        0.9714285714285714,
        0.9666666666666667
      ]
    },
    {
      "name": "indices_3",
      "componentType": 5121,
      "count": 84,
      "type": "SCALAR",
      "bufferView": 11,
      "byteOffset": 0,
      "min": [
        0
      ],
      "max": [
        55
      ]
    },
    {
      "name": "positions_4",
      "componentType": 5126,
      "count": 56,
      "type": "VEC3",
      "bufferView": 12,
      "byteOffset": 0,
      "min": [
        0,
        0,
        0
      ],
      "max": [
        6,
        40,
        1
      ]
    },
    {
      "name": "texcoords_4",
      "componentType": 5126,
      "count": 56,
      "type": "VEC2",
      "bufferView": 13,
      "byteOffset": 0,
      "min": [
        0.02857142857142857,
        0.4
      ],
      "max": [
        0.9714285714285714,
        0.9666666666666667
      ]
    },
    {
      "name": "indices_4",
      "componentType": 5121,
      "count": 84,
      "type": "SCALAR",
      "bufferView": 14,
      "byteOffset": 0,
      "min": [
        0
      ],
      "max": [
        55
      ]
    },
    {
      "name": "positions_5",
      "componentType": 5126,
      "count": 56,
      "type": "VEC3",
      "bufferView": 15,
      "byteOffset": 0,
      "min": [
        0,
        0,
        0
      ],
      "max": [
        6,
        40,
        1
      ]
    },
    {
      "name": "texcoords_5",
      "componentType": 5126,
      "count": 56,
      "type": "VEC2",
      "bufferView": 16,
      "byteOffset": 0,
      "min": [
        0.02857142857142857,
        0.4
      ],
      "max": [
        0.9714285714285714,
        0.9666666666666667
      ]
    },
    {
      "name": "indices_5",
      "componentType": 5121,
      "count": 84,
      "type": "SCALAR",
      "bufferView": 17,
      "byteOffset": 0,
      "min": [
        0
      ],
      "max": [
        55
      ]
    }
  ],
  "bufferViews": [
    {
      "name": "bufferView_positions_0",
      "buffer": 0,
      "byteLength": 672,
      "byteOffset": 0,
      "byteStride": 12,
      "target": 34962
    },
    {
      "name": "bufferView_texcoords_0",
      "buffer": 0,
      "byteLength": 448,
      "byteOffset": 672,
      "byteStride": 8,
      "target": 34962
    },
    {
      "name": "bufferView_indices_0",
      "buffer": 0,
      "byteLength": 84,
      "byteOffset": 1120,
      "target": 34963
    },
    {
      "name": "bufferView_positions_1",
      "buffer": 0,
      "byteLength": 672,
      "byteOffset": 1204,
      "byteStride": 12,
      "target": 34962
    },
    {
      "name": "bufferView_texcoords_1",
      "buffer": 0,
      "byteLength": 448,
      "byteOffset": 1876,
      "byteStride": 8,
      "target": 34962
    },
    {
      "name": "bufferView_indices_1",
      "buffer": 0,
      "byteLength": 84,
      "byteOffset": 2324,
      "target": 34963
    },
    {
      "name": "bufferView_positions_2",
      "buffer": 0,
      "byteLength": 672,
      "byteOffset": 2408,
      "byteStride": 12,
      "target": 34962
    },
    {
      "name": "bufferView_texcoords_2",
      "buffer": 0,
      "byteLength": 448,
      "byteOffset": 3080,
      "byteStride": 8,
      "target": 34962
    },
    {
      "name": "bufferView_indices_2",
      "buffer": 0,
      "byteLength": 84,
      "byteOffset": 3528,
      "target": 34963
    },
    {
      "name": "bufferView_positions_3",
      "buffer": 0,
      "byteLength": 672,
      "byteOffset": 3612,
      "byteStride": 12,
      "target": 34962
    },
    {
      "name": "bufferView_texcoords_3",
      "buffer": 0,
      "byteLength": 448,
      "byteOffset": 4284,
      "byteStride": 8,
      "target": 34962
    },
    {
      "name": "bufferView_indices_3",
      "buffer": 0,
      "byteLength": 84,
      "byteOffset": 4732,
      "target": 34963
    },
    {
      "name": "bufferView_positions_4",
      "buffer": 0,
      "byteLength": 672,
      "byteOffset": 4816,
      "byteStride": 12,
      "target": 34962
    },
    {
      "name": "bufferView_texcoords_4",
      "buffer": 0,
      "byteLength": 448,
      "byteOffset": 5488,
      "byteStride": 8,
      "target": 34962
    },
    {
      "name": "bufferView_indices_4",
      "buffer": 0,
      "byteLength": 84,
      "byteOffset": 5936,
      "target": 34963
    },
    {
      "name": "bufferView_positions_5",
      "buffer": 0,
      "byteLength": 672,
      "byteOffset": 6020,
      "byteStride": 12,
      "target": 34962
    },
    {
      "name": "bufferView_texcoords_5",
      "buffer": 0,
      "byteLength": 448,
      "byteOffset": 6692,
      "byteStride": 8,
      "target": 34962
    },
    {
      "name": "bufferView_indices_5",
      "buffer": 0,
      "byteLength": 84,
      "byteOffset": 7140,
      "target": 34963
    },
    {
      "name": "bufferView_image",
      "buffer": 0,
      "byteLength": 274,
      "byteOffset": 7224
    },
    {
      "name": "bufferView_emissive_image",
      "buffer": 0,
      "byteLength": 253,
      "byteOffset": 7498
    }
  ],
  "buffers": [
    {
      "name": "9IWxm9lk68LafD1280Sjy-vQh_XbQs4Bedt_BzjO3zY",
      "byteLength": 7752,
      "uri": "data:application/octet-stream;base64,"
    }
  ],
  "images": [
    {
      "name": "image",
      "mimeType": "image/png",
      "bufferView": 18
    },
    {
      "name": "emissive image",
      "mimeType": "image/png",
      "bufferView": 19
    }
  ],
  "materials": [
    {
      "name": "material",
      "pbrMetallicRoughness": {
        "baseColorTexture": {
          "index": 0
        },
        "baseColorFactor": [
          1,
          1,
          1,
          1
        ],
        "metallicFactor": 0,
        "roughnessFactor": 1
      },
      "emissiveTexture": {
        "index": 1
      },
      "emissiveFactor": [
        0,
        0,
        0
      ],
      "alphaMode": "OPAQUE",
      "doubleSided": true,
      "extensions": {
        "KHR_materials_unlit": {}
      }
    },
    {
      "name": "material",
      "pbrMetallicRoughness": {
        "baseColorTexture": {
          "index": 0
        },
        "baseColorFactor": [
          1,
          1,
          1,
          0.0196078431372549
        ],
        "metallicFactor": 0,
        "roughnessFactor": 1
      },
      "emissiveTexture": {
        "index": 1
      },
      "emissiveFactor": [
        0,
        0,
        0
      ],
      "alphaMode": "BLEND",
      "doubleSided": true,
      "extensions": {
        "KHR_materials_unlit": {}
      }
    }
  ],
  "meshes": [
    {
      "name": "mesh_0",
      "primitives": [
        {
          "attributes": {
            "POSITION": 0,
            "TEXCOORD_0": 1
          },
          "indices": 2,
          "material": 0,
          "mode": 4
        }
      ]
    },
    {
      "name": "mesh_1",
      "primitives": [
        {
          "attributes": {
            "POSITION": 3,
            "TEXCOORD_0": 4
          },
          "indices": 5,
          "material": 0,
          "mode": 4
        }
      ]
    },
    {
      "name": "mesh_2",
      "primitives": [
        {
          "attributes": {
            "POSITION": 6,
            "TEXCOORD_0": 7
          },
          "indices": 8,
          "material": 1,
          "mode": 4
        }
      ]
    },
    {
      "name": "mesh_3",
      "primitives": [
        {
          "attributes": {
            "POSITION": 9,
            "TEXCOORD_0": 10
          },
          "indices": 11,
          "material": 1,
          "mode": 4
        }
      ]
    },
    {
      "name": "mesh_4",
      "primitives": [
        {
          "attributes": {
            "POSITION": 12,
            "TEXCOORD_0": 13
          },
          "indices": 14,
          "material": 0,
          "mode": 4
        }
      ]
    },
    {
      "name": "mesh_5",
      "primitives": [
        {
          "attributes": {
            "POSITION": 15,
            "TEXCOORD_0": 16
          },
          "indices": 17,
          "material": 0,
          "mode": 4
        }
      ]
    }
  ],
  "nodes": [
    {
      "name": "Root",
      "rotation": [
        0,
        0,
        0,
        1
      ],
      "scale": [
        1,
        1,
        1
      ],
      "translation": [
        0,
        0,
        0
      ],
      "children": [
        1,
        15
      ]
    },
    {
      "name": "Root",
      "rotation": [
        0,
        0,
        0,
        1
      ],
      "scale": [
        1,
        1,
        1
      ],
      "translation": [
        0,
        0,
        0
      ],
      "children": [
        2
      ]
    },
    {
      "name": "Bone",
      "rotation": [
        0,
        0,
        0,
        1
      ],
      "scale": [
        1,
        1,
        1
      ],
      "translation": [
        -27.496076583862305,
        77.0123519897461,
        -0.4999971389770508
      ],
      "children": [
        3,
        7,
        11
      ]
    },
    {
      "name": "Bone-3",
      "rotation": [
        0,
        0,
        0,
        1
      ],
      "scale": [
        1,
        1,
        1
      ],
      "translation": [
        50.364620208740234,
        0,
        0
      ],
      "children": [
        4
      ]
    },
    {
      "name": "箭头闪2",
      "rotation": [
        0,
        0,
        0,
        1
      ],
      "scale": [
        1,
        1,
        1
      ],
      "translation": [
        0,
        0,
        0
      ],
      "children": [
        5,
        6
      ]
    },
    {
      "name": "箭头1",
      "mesh": 0,
      "rotation": [
        0.9203855395317078,
        0.3910120725631714,
        5.840978900550908e-8,
        -8.44427106017065e-9
      ],
      "scale": [
        1,
        1,
        1
      ],
      "translation": [
        -16.387807846069336,
        -0.494537353515625,
        0.4999971389770508
      ]
    },
    {
      "name": "箭头1",
      "mesh": 1,
      "rotation": [
        0.3743235170841217,
        0.9272981882095337,
        5.888851006830009e-8,
        3.05123641908267e-8
      ],
      "scale": [
        1,
        1,
        1
      ],
      "translation": [
        -12.249470710754395,
        -4.692560195922852,
        0.49999749660491943
      ]
    },
    {
      "name": "Bone-2",
      "rotation": [
        0,
        0,
        0,
        1
      ],
      "scale": [
        1,
        1,
        1
      ],
      "translation": [
        21.618541717529297,
        0,
        0
      ],
      "children": [
        8
      ]
    },
    {
      "name": "箭头透明",
      "rotation": [
        0,
        0,
        0,
        1
      ],
      "scale": [
        1,
        1,
        1
      ],
      "translation": [
        0,
        0,
        0
      ],
      "children": [
        9,
        10
      ]
    },
    {
      "name": "箭头1",
      "mesh": 2,
      "rotation": [
        0.9203855395317078,
        0.3910120725631714,
        5.840978900550908e-8,
        -8.44427106017065e-9
      ],
      "scale": [
        1,
        1,
        1
      ],
      "translation": [
        -16.387807846069336,
        -0.494537353515625,
        0.4999971389770508
      ]
    },
    {
      "name": "箭头1",
      "mesh": 3,
      "rotation": [
        0.3743235170841217,
        0.9272981882095337,
        5.888851006830009e-8,
        3.05123641908267e-8
      ],
      "scale": [
        1,
        1,
        1
      ],
      "translation": [
        -11.287549018859863,
        -5.354555130004883,
        0.49999749660491943
      ]
    },
    {
      "name": "Bone-1",
      "rotation": [
        0,
        0,
        0,
        1
      ],
      "scale": [
        1,
        1,
        1
      ],
      "translation": [
        0,
        0,
        0
      ],
      "children": [
        12
      ]
    },
    {
      "name": "箭头闪",
      "rotation": [
        0,
        0,
        0,
        1
      ],
      "scale": [
        1,
        1,
        1
      ],
      "translation": [
        0,
        0,
        0
      ],
      "children": [
        13,
        14
      ]
    },
    {
      "name": "箭头1",
      "mesh": 4,
      "rotation": [
        0.9203855395317078,
        0.3910120725631714,
        5.840978900550908e-8,
        -8.44427106017065e-9
      ],
      "scale": [
        1,
        1,
        1
      ],
      "translation": [
        -16.387807846069336,
        -0.494537353515625,
        0.4999971389770508
      ]
    },
    {
      "name": "箭头1",
      "mesh": 5,
      "rotation": [
        0.3743235170841217,
        0.9272981882095337,
        5.888851006830009e-8,
        3.05123641908267e-8
      ],
      "scale": [
        1,
        1,
        1
      ],
      "translation": [
        -12.249470710754395,
        -4.692560195922852,
        0.49999749660491943
      ]
    },
    {
      "name": "Root",
      "rotation": [
        0,
        0,
        0,
        1
      ],
      "scale": [
        1,
        1,
        1
      ],
      "translation": [
        0,
        0,
        0
      ]
    }
  ],
  "samplers": [
    {
      "wrapS": 33071,
      "wrapT": 33071,
      "magFilter": 9728,
      "minFilter": 9728
    }
  ],
  "scene": 0,
  "scenes": [
    {
      "nodes": [
        0
      ]
    }
  ],
  "textures": [
    {
      "name": "texture",
      "sampler": 0,
      "source": 0
    },
    {
      "name": "emissive texture",
      "sampler": 0,
      "source": 1
    }
  ]
}