{
  "asset": {
    "generator": "ArenaPro Web VCode Exporter",
    "version": "2.0"
  },
  "extensionsUsed": [
    "KHR_materials_unlit"
  ],
  "accessors": [
    {
      "name": "positions_0",
      "componentType": 5126,
      "count": 1388,
      "type": "VEC3",
      "bufferView": 0,
      "byteOffset": 0,
      "min": [
        0,
        0,
        0
      ],
      "max": [
        11,
        65,
        16
      ]
    },
    {
      "name": "texcoords_0",
      "componentType": 5126,
      "count": 1388,
      "type": "VEC2",
      "bufferView": 1,
      "byteOffset": 0,
      "min": [
        0.018867924528301886,
        0.041666666666666664
      ],
      "max": [
        0.9811320754716981,
        0.9583333333333334
      ]
    },
    {
      "name": "indices_0",
      "componentType": 5123,
      "count": 2082,
      "type": "SCALAR",
      "bufferView": 2,
      "byteOffset": 0,
      "min": [
        0
      ],
      "max": [
        1387
      ]
    },
    {
      "name": "positions_1",
      "componentType": 5126,
      "count": 1388,
      "type": "VEC3",
      "bufferView": 3,
      "byteOffset": 0,
      "min": [
        0,
        0,
        0
      ],
      "max": [
        11,
        65,
        16
      ]
    },
    {
      "name": "texcoords_1",
      "componentType": 5126,
      "count": 1388,
      "type": "VEC2",
      "bufferView": 4,
      "byteOffset": 0,
      "min": [
        0.018867924528301886,
        0.041666666666666664
      ],
      "max": [
        0.9811320754716981,
        0.9583333333333334
      ]
    },
    {
      "name": "indices_1",
      "componentType": 5123,
      "count": 2082,
      "type": "SCALAR",
      "bufferView": 5,
      "byteOffset": 0,
      "min": [
        0
      ],
      "max": [
        1387
      ]
    },
    {
      "name": "positions_2",
      "componentType": 5126,
      "count": 1388,
      "type": "VEC3",
      "bufferView": 6,
      "byteOffset": 0,
      "min": [
        0,
        0,
        0
      ],
      "max": [
        11,
        65,
        16
      ]
    },
    {
      "name": "texcoords_2",
      "componentType": 5126,
      "count": 1388,
      "type": "VEC2",
      "bufferView": 7,
      "byteOffset": 0,
      "min": [
        0.018867924528301886,
        0.041666666666666664
      ],
      "max": [
        0.9811320754716981,
        0.9583333333333334
      ]
    },
    {
      "name": "indices_2",
      "componentType": 5123,
      "count": 2082,
      "type": "SCALAR",
      "bufferView": 8,
      "byteOffset": 0,
      "min": [
        0
      ],
      "max": [
        1387
      ]
    },
    {
      "name": "positions_3",
      "componentType": 5126,
      "count": 1388,
      "type": "VEC3",
      "bufferView": 9,
      "byteOffset": 0,
      "min": [
        0,
        0,
        0
      ],
      "max": [
        11,
        65,
        16
      ]
    },
    {
      "name": "texcoords_3",
      "componentType": 5126,
      "count": 1388,
      "type": "VEC2",
      "bufferView": 10,
      "byteOffset": 0,
      "min": [
        0.018867924528301886,
        0.041666666666666664
      ],
      "max": [
        0.9811320754716981,
        0.9583333333333334
      ]
    },
    {
      "name": "indices_3",
      "componentType": 5123,
      "count": 2082,
      "type": "SCALAR",
      "bufferView": 11,
      "byteOffset": 0,
      "min": [
        0
      ],
      "max": [
        1387
      ]
    },
    {
      "name": "positions_4",
      "componentType": 5126,
      "count": 1388,
      "type": "VEC3",
      "bufferView": 12,
      "byteOffset": 0,
      "min": [
        0,
        0,
        0
      ],
      "max": [
        11,
        65,
        16
      ]
    },
    {
      "name": "texcoords_4",
      "componentType": 5126,
      "count": 1388,
      "type": "VEC2",
      "bufferView": 13,
      "byteOffset": 0,
      "min": [
        0.018867924528301886,
        0.041666666666666664
      ],
      "max": [
        0.9811320754716981,
        0.9583333333333334
      ]
    },
    {
      "name": "indices_4",
      "componentType": 5123,
      "count": 2082,
      "type": "SCALAR",
      "bufferView": 14,
      "byteOffset": 0,
      "min": [
        0
      ],
      "max": [
        1387
      ]
    },
    {
      "name": "positions_5",
      "componentType": 5126,
      "count": 1388,
      "type": "VEC3",
      "bufferView": 15,
      "byteOffset": 0,
      "min": [
        0,
        0,
        0
      ],
      "max": [
        11,
        65,
        16
      ]
    },
    {
      "name": "texcoords_5",
      "componentType": 5126,
      "count": 1388,
      "type": "VEC2",
      "bufferView": 16,
      "byteOffset": 0,
      "min": [
        0.018867924528301886,
        0.041666666666666664
      ],
      "max": [
        0.9811320754716981,
        0.9583333333333334
      ]
    },
    {
      "name": "indices_5",
      "componentType": 5123,
      "count": 2082,
      "type": "SCALAR",
      "bufferView": 17,
      "byteOffset": 0,
      "min": [
        0
      ],
      "max": [
        1387
      ]
    }
  ],
  "bufferViews": [
    {
      "name": "bufferView_positions_0",
      "buffer": 0,
      "byteLength": 16656,
      "byteOffset": 0,
      "byteStride": 12,
      "target": 34962
    },
    {
      "name": "bufferView_texcoords_0",
      "buffer": 0,
      "byteLength": 11104,
      "byteOffset": 16656,
      "byteStride": 8,
      "target": 34962
    },
    {
      "name": "bufferView_indices_0",
      "buffer": 0,
      "byteLength": 4164,
      "byteOffset": 27760,
      "target": 34963
    },
    {
      "name": "bufferView_positions_1",
      "buffer": 0,
      "byteLength": 16656,
      "byteOffset": 31924,
      "byteStride": 12,
      "target": 34962
    },
    {
      "name": "bufferView_texcoords_1",
      "buffer": 0,
      "byteLength": 11104,
      "byteOffset": 48580,
      "byteStride": 8,
      "target": 34962
    },
    {
      "name": "bufferView_indices_1",
      "buffer": 0,
      "byteLength": 4164,
      "byteOffset": 59684,
      "target": 34963
    },
    {
      "name": "bufferView_positions_2",
      "buffer": 0,
      "byteLength": 16656,
      "byteOffset": 63848,
      "byteStride": 12,
      "target": 34962
    },
    {
      "name": "bufferView_texcoords_2",
      "buffer": 0,
      "byteLength": 11104,
      "byteOffset": 80504,
      "byteStride": 8,
      "target": 34962
    },
    {
      "name": "bufferView_indices_2",
      "buffer": 0,
      "byteLength": 4164,
      "byteOffset": 91608,
      "target": 34963
    },
    {
      "name": "bufferView_positions_3",
      "buffer": 0,
      "byteLength": 16656,
      "byteOffset": 95772,
      "byteStride": 12,
      "target": 34962
    },
    {
      "name": "bufferView_texcoords_3",
      "buffer": 0,
      "byteLength": 11104,
      "byteOffset": 112428,
      "byteStride": 8,
      "target": 34962
    },
    {
      "name": "bufferView_indices_3",
      "buffer": 0,
      "byteLength": 4164,
      "byteOffset": 123532,
      "target": 34963
    },
    {
      "name": "bufferView_positions_4",
      "buffer": 0,
      "byteLength": 16656,
      "byteOffset": 127696,
      "byteStride": 12,
      "target": 34962
    },
    {
      "name": "bufferView_texcoords_4",
      "buffer": 0,
      "byteLength": 11104,
      "byteOffset": 144352,
      "byteStride": 8,
      "target": 34962
    },
    {
      "name": "bufferView_indices_4",
      "buffer": 0,
      "byteLength": 4164,
      "byteOffset": 155456,
      "target": 34963
    },
    {
      "name": "bufferView_positions_5",
      "buffer": 0,
      "byteLength": 16656,
      "byteOffset": 159620,
      "byteStride": 12,
      "target": 34962
    },
    {
      "name": "bufferView_texcoords_5",
      "buffer": 0,
      "byteLength": 11104,
      "byteOffset": 176276,
      "byteStride": 8,
      "target": 34962
    },
    {
      "name": "bufferView_indices_5",
      "buffer": 0,
      "byteLength": 4164,
      "byteOffset": 187380,
      "target": 34963
    },
    {
      "name": "bufferView_image",
      "buffer": 0,
      "byteLength": 341,
      "byteOffset": 191544
    },
    {
      "name": "bufferView_emissive_image",
      "buffer": 0,
      "byteLength": 306,
      "byteOffset": 191885
    }
  ],
  "buffers": [
    {
      "name": "eHmV8wAl8eH2_SMmdaYVS26Li2AWaFYZIs7saYLp7Nw",
      "byteLength": 192192,
      "uri": "data:application/octet-stream;base64,"
    }
  ],
  "images": [
    {
      "name": "image",
      "mimeType": "image/png",
      "bufferView": 18
    },
    {
      "name": "emissive image",
      "mimeType": "image/png",
      "bufferView": 19
    }
  ],
  "materials": [
    {
      "name": "material",
      "pbrMetallicRoughness": {
        "baseColorTexture": {
          "index": 0
        },
        "baseColorFactor": [
          1,
          1,
          1,
          1
        ],
        "metallicFactor": 0,
        "roughnessFactor": 1
      },
      "emissiveTexture": {
        "index": 1
      },
      "emissiveFactor": [
        0,
        0,
        0
      ],
      "alphaMode": "OPAQUE",
      "doubleSided": true,
      "extensions": {
        "KHR_materials_unlit": {}
      }
    }
  ],
  "meshes": [
    {
      "name": "mesh_0",
      "primitives": [
        {
          "attributes": {
            "POSITION": 0,
            "TEXCOORD_0": 1
          },
          "indices": 2,
          "material": 0,
          "mode": 4
        }
      ]
    },
    {
      "name": "mesh_1",
      "primitives": [
        {
          "attributes": {
            "POSITION": 3,
            "TEXCOORD_0": 4
          },
          "indices": 5,
          "material": 0,
          "mode": 4
        }
      ]
    },
    {
      "name": "mesh_2",
      "primitives": [
        {
          "attributes": {
            "POSITION": 6,
            "TEXCOORD_0": 7
          },
          "indices": 8,
          "material": 0,
          "mode": 4
        }
      ]
    },
    {
      "name": "mesh_3",
      "primitives": [
        {
          "attributes": {
            "POSITION": 9,
            "TEXCOORD_0": 10
          },
          "indices": 11,
          "material": 0,
          "mode": 4
        }
      ]
    },
    {
      "name": "mesh_4",
      "primitives": [
        {
          "attributes": {
            "POSITION": 12,
            "TEXCOORD_0": 13
          },
          "indices": 14,
          "material": 0,
          "mode": 4
        }
      ]
    },
    {
      "name": "mesh_5",
      "primitives": [
        {
          "attributes": {
            "POSITION": 15,
            "TEXCOORD_0": 16
          },
          "indices": 17,
          "material": 0,
          "mode": 4
        }
      ]
    }
  ],
  "nodes": [
    {
      "name": "Root",
      "rotation": [
        0,
        0,
        0,
        1
      ],
      "scale": [
        1,
        1,
        1
      ],
      "translation": [
        0,
        0,
        0
      ],
      "children": [
        1,
        2
      ]
    },
    {
      "name": "Root",
      "rotation": [
        0,
        0,
        0,
        1
      ],
      "scale": [
        1,
        1,
        1
      ],
      "translation": [
        0,
        0,
        0
      ]
    },
    {
      "name": "Root",
      "rotation": [
        0,
        0,
        0,
        1
      ],
      "scale": [
        1,
        1,
        1
      ],
      "translation": [
        0,
        0,
        0
      ],
      "children": [
        3,
        4,
        5,
        6,
        7,
        8
      ]
    },
    {
      "name": "Object",
      "mesh": 0,
      "rotation": [
        0.7640284895896912,
        -0.6406686305999756,
        -0.061052337288856506,
        0.04557110369205475
      ],
      "scale": [
        1,
        1,
        1
      ],
      "translation": [
        145.8199462890625,
        82.76961517333984,
        17.958345413208008
      ]
    },
    {
      "name": "Object",
      "mesh": 1,
      "rotation": [
        0.9475208520889282,
        -0.2623843550682068,
        0.15275661647319794,
        0.10012026876211166
      ],
      "scale": [
        1,
        1,
        1
      ],
      "translation": [
        114.68704223632812,
        133.88442993164062,
        16.688961029052734
      ]
    },
    {
      "name": "Object",
      "mesh": 2,
      "rotation": [
        -0.27102339267730713,
        0.941342294216156,
        0.14413008093833923,
        0.14016948640346527
      ],
      "scale": [
        1,
        1,
        1
      ],
      "translation": [
        124.80059814453125,
        5.168306350708008,
        17.549591064453125
      ]
    },
    {
      "name": "Object",
      "mesh": 3,
      "rotation": [
        0.7632763981819153,
        0.635714054107666,
        0.08637747913599014,
        0.07626091688871384
      ],
      "scale": [
        1,
        1,
        1
      ],
      "translation": [
        0,
        72.23421478271484,
        14.907695770263672
      ]
    },
    {
      "name": "Object",
      "mesh": 4,
      "rotation": [
        0.9474169611930847,
        0.24542126059532166,
        -0.18129973113536835,
        0.09643562138080597
      ],
      "scale": [
        1,
        1,
        1
      ],
      "translation": [
        25.55821990966797,
        129.52687072753906,
        21.093355178833008
      ]
    },
    {
      "name": "Object",
      "mesh": 5,
      "rotation": [
        0.27102339267730713,
        0.941342294216156,
        0.14413008093833923,
        -0.14016945660114288
      ],
      "scale": [
        1,
        1,
        1
      ],
      "translation": [
        31.98021697998047,
        0,
        13.787369728088379
      ]
    }
  ],
  "samplers": [
    {
      "wrapS": 33071,
      "wrapT": 33071,
      "magFilter": 9728,
      "minFilter": 9728
    }
  ],
  "scene": 0,
  "scenes": [
    {
      "nodes": [
        0
      ]
    }
  ],
  "textures": [
    {
      "name": "texture",
      "sampler": 0,
      "source": 0
    },
    {
      "name": "emissive texture",
      "sampler": 0,
      "source": 1
    }
  ]
}