{
  "asset": {
    "generator": "ArenaPro Web VCode Exporter",
    "version": "2.0"
  },
  "extensionsUsed": [
    "KHR_materials_unlit"
  ],
  "accessors": [
    {
      "name": "positions_0",
      "componentType": 5126,
      "count": 468,
      "type": "VEC3",
      "bufferView": 0,
      "byteOffset": 0,
      "min": [
        0,
        0,
        0
      ],
      "max": [
        22,
        25,
        64
      ]
    },
    {
      "name": "texcoords_0",
      "componentType": 5126,
      "count": 468,
      "type": "VEC2",
      "bufferView": 1,
      "byteOffset": 0,
      "min": [
        0.016129032258064516,
        0.015151515151515152
      ],
      "max": [
        0.9838709677419355,
        0.9848484848484849
      ]
    },
    {
      "name": "indices_0",
      "componentType": 5123,
      "count": 702,
      "type": "SCALAR",
      "bufferView": 2,
      "byteOffset": 0,
      "min": [
        0
      ],
      "max": [
        467
      ]
    },
    {
      "name": "positions_1",
      "componentType": 5126,
      "count": 536,
      "type": "VEC3",
      "bufferView": 3,
      "byteOffset": 0,
      "min": [
        0,
        0,
        0
      ],
      "max": [
        40,
        39,
        39
      ]
    },
    {
      "name": "texcoords_1",
      "componentType": 5126,
      "count": 536,
      "type": "VEC2",
      "bufferView": 4,
      "byteOffset": 0,
      "min": [
        0.1935483870967742,
        0.8787878787878788
      ],
      "max": [
        0.9193548387096774,
        0.9848484848484849
      ]
    },
    {
      "name": "indices_1",
      "componentType": 5123,
      "count": 804,
      "type": "SCALAR",
      "bufferView": 5,
      "byteOffset": 0,
      "min": [
        0
      ],
      "max": [
        535
      ]
    }
  ],
  "bufferViews": [
    {
      "name": "bufferView_positions_0",
      "buffer": 0,
      "byteLength": 5616,
      "byteOffset": 0,
      "byteStride": 12,
      "target": 34962
    },
    {
      "name": "bufferView_texcoords_0",
      "buffer": 0,
      "byteLength": 3744,
      "byteOffset": 5616,
      "byteStride": 8,
      "target": 34962
    },
    {
      "name": "bufferView_indices_0",
      "buffer": 0,
      "byteLength": 1404,
      "byteOffset": 9360,
      "target": 34963
    },
    {
      "name": "bufferView_positions_1",
      "buffer": 0,
      "byteLength": 6432,
      "byteOffset": 10764,
      "byteStride": 12,
      "target": 34962
    },
    {
      "name": "bufferView_texcoords_1",
      "buffer": 0,
      "byteLength": 4288,
      "byteOffset": 17196,
      "byteStride": 8,
      "target": 34962
    },
    {
      "name": "bufferView_indices_1",
      "buffer": 0,
      "byteLength": 1608,
      "byteOffset": 21484,
      "target": 34963
    },
    {
      "name": "bufferView_image",
      "buffer": 0,
      "byteLength": 1442,
      "byteOffset": 23092
    },
    {
      "name": "bufferView_emissive_image",
      "buffer": 0,
      "byteLength": 367,
      "byteOffset": 24534
    }
  ],
  "buffers": [
    {
      "name": "dE-Wu_Sq2EucjB4KhjC88hi24mKVFVYCn2C2yiLmHqM",
      "byteLength": 24904,
      "uri": "data:application/octet-stream;base64,"
    }
  ],
  "images": [
    {
      "name": "image",
      "mimeType": "image/png",
      "bufferView": 6
    },
    {
      "name": "emissive image",
      "mimeType": "image/png",
      "bufferView": 7
    }
  ],
  "materials": [
    {
      "name": "material",
      "pbrMetallicRoughness": {
        "baseColorTexture": {
          "index": 0
        },
        "baseColorFactor": [
          1,
          1,
          1,
          1
        ],
        "metallicFactor": 0,
        "roughnessFactor": 1
      },
      "emissiveTexture": {
        "index": 1
      },
      "emissiveFactor": [
        0,
        0,
        0
      ],
      "alphaMode": "OPAQUE",
      "doubleSided": true,
      "extensions": {
        "KHR_materials_unlit": {}
      }
    }
  ],
  "meshes": [
    {
      "name": "mesh_0",
      "primitives": [
        {
          "attributes": {
            "POSITION": 0,
            "TEXCOORD_0": 1
          },
          "indices": 2,
          "material": 0,
          "mode": 4
        }
      ]
    },
    {
      "name": "mesh_1",
      "primitives": [
        {
          "attributes": {
            "POSITION": 3,
            "TEXCOORD_0": 4
          },
          "indices": 5,
          "material": 0,
          "mode": 4
        }
      ]
    }
  ],
  "nodes": [
    {
      "name": "Root",
      "rotation": [
        0,
        0,
        0,
        1
      ],
      "scale": [
        1,
        1,
        1
      ],
      "translation": [
        0,
        0,
        0
      ],
      "children": [
        1,
        2
      ]
    },
    {
      "name": "Root",
      "rotation": [
        0,
        0,
        0,
        1
      ],
      "scale": [
        1,
        1,
        1
      ],
      "translation": [
        0,
        0,
        0
      ]
    },
    {
      "name": "Root",
      "rotation": [
        0,
        0,
        0,
        1
      ],
      "scale": [
        1,
        1,
        1
      ],
      "translation": [
        0,
        0,
        0
      ],
      "children": [
        3
      ]
    },
    {
      "name": "Group",
      "rotation": [
        0,
        0,
        0,
        1
      ],
      "scale": [
        1,
        1,
        1
      ],
      "translation": [
        27.42963981628418,
        87.37543487548828,
        18.697023391723633
      ],
      "children": [
        4,
        5
      ]
    },
    {
      "name": "Object",
      "mesh": 0,
      "rotation": [
        0,
        0,
        0,
        1
      ],
      "scale": [
        1,
        1,
        1
      ],
      "translation": [
        -10.999998092651367,
        18.40900993347168,
        -32
      ]
    },
    {
      "name": "Object-1",
      "mesh": 1,
      "rotation": [
        0,
        0,
        0,
        1
      ],
      "scale": [
        1.1787508726119995,
        2.01300048828125,
        1.9844627380371094
      ],
      "translation": [
        -23.57501792907715,
        -43.40901184082031,
        -38.697021484375
      ]
    }
  ],
  "samplers": [
    {
      "wrapS": 33071,
      "wrapT": 33071,
      "magFilter": 9728,
      "minFilter": 9728
    }
  ],
  "scene": 0,
  "scenes": [
    {
      "nodes": [
        0
      ]
    }
  ],
  "textures": [
    {
      "name": "texture",
      "sampler": 0,
      "source": 0
    },
    {
      "name": "emissive texture",
      "sampler": 0,
      "source": 1
    }
  ]
}