{
  "asset": {
    "generator": "ArenaPro Web VCode Exporter",
    "version": "2.0"
  },
  "extensionsUsed": [
    "KHR_materials_unlit"
  ],
  "accessors": [
    {
      "name": "positions_0",
      "componentType": 5126,
      "count": 144,
      "type": "VEC3",
      "bufferView": 0,
      "byteOffset": 0,
      "min": [
        17,
        21,
        0
      ],
      "max": [
        22,
        25,
        1
      ]
    },
    {
      "name": "texcoords_0",
      "componentType": 5126,
      "count": 144,
      "type": "VEC2",
      "bufferView": 1,
      "byteOffset": 0,
      "min": [
        0.56,
        0.9622641509433962
      ],
      "max": [
        0.58,
        0.9811320754716981
      ]
    },
    {
      "name": "indices_0",
      "componentType": 5121,
      "count": 216,
      "type": "SCALAR",
      "bufferView": 2,
      "byteOffset": 0,
      "min": [
        0
      ],
      "max": [
        143
      ]
    },
    {
      "name": "positions_1",
      "componentType": 5126,
      "count": 144,
      "type": "VEC3",
      "bufferView": 3,
      "byteOffset": 0,
      "min": [
        17,
        21,
        0
      ],
      "max": [
        22,
        25,
        1
      ]
    },
    {
      "name": "texcoords_1",
      "componentType": 5126,
      "count": 144,
      "type": "VEC2",
      "bufferView": 4,
      "byteOffset": 0,
      "min": [
        0.56,
        0.9622641509433962
      ],
      "max": [
        0.58,
        0.9811320754716981
      ]
    },
    {
      "name": "indices_1",
      "componentType": 5121,
      "count": 216,
      "type": "SCALAR",
      "bufferView": 5,
      "byteOffset": 0,
      "min": [
        0
      ],
      "max": [
        143
      ]
    },
    {
      "name": "positions_2",
      "componentType": 5126,
      "count": 144,
      "type": "VEC3",
      "bufferView": 6,
      "byteOffset": 0,
      "min": [
        17,
        21,
        0
      ],
      "max": [
        22,
        25,
        1
      ]
    },
    {
      "name": "texcoords_2",
      "componentType": 5126,
      "count": 144,
      "type": "VEC2",
      "bufferView": 7,
      "byteOffset": 0,
      "min": [
        0.56,
        0.9622641509433962
      ],
      "max": [
        0.58,
        0.9811320754716981
      ]
    },
    {
      "name": "indices_2",
      "componentType": 5121,
      "count": 216,
      "type": "SCALAR",
      "bufferView": 8,
      "byteOffset": 0,
      "min": [
        0
      ],
      "max": [
        143
      ]
    },
    {
      "name": "positions_3",
      "componentType": 5126,
      "count": 144,
      "type": "VEC3",
      "bufferView": 9,
      "byteOffset": 0,
      "min": [
        17,
        21,
        0
      ],
      "max": [
        22,
        25,
        1
      ]
    },
    {
      "name": "texcoords_3",
      "componentType": 5126,
      "count": 144,
      "type": "VEC2",
      "bufferView": 10,
      "byteOffset": 0,
      "min": [
        0.56,
        0.9622641509433962
      ],
      "max": [
        0.58,
        0.9811320754716981
      ]
    },
    {
      "name": "indices_3",
      "componentType": 5121,
      "count": 216,
      "type": "SCALAR",
      "bufferView": 11,
      "byteOffset": 0,
      "min": [
        0
      ],
      "max": [
        143
      ]
    },
    {
      "name": "positions_4",
      "componentType": 5126,
      "count": 24,
      "type": "VEC3",
      "bufferView": 12,
      "byteOffset": 0,
      "min": [
        18,
        16,
        0
      ],
      "max": [
        19,
        21,
        1
      ]
    },
    {
      "name": "texcoords_4",
      "componentType": 5126,
      "count": 24,
      "type": "VEC2",
      "bufferView": 13,
      "byteOffset": 0,
      "min": [
        0.56,
        0.9622641509433962
      ],
      "max": [
        0.58,
        0.9811320754716981
      ]
    },
    {
      "name": "indices_4",
      "componentType": 5121,
      "count": 36,
      "type": "SCALAR",
      "bufferView": 14,
      "byteOffset": 0,
      "min": [
        0
      ],
      "max": [
        23
      ]
    },
    {
      "name": "positions_5",
      "componentType": 5126,
      "count": 24,
      "type": "VEC3",
      "bufferView": 15,
      "byteOffset": 0,
      "min": [
        18,
        16,
        0
      ],
      "max": [
        19,
        21,
        1
      ]
    },
    {
      "name": "texcoords_5",
      "componentType": 5126,
      "count": 24,
      "type": "VEC2",
      "bufferView": 16,
      "byteOffset": 0,
      "min": [
        0.56,
        0.9622641509433962
      ],
      "max": [
        0.58,
        0.9811320754716981
      ]
    },
    {
      "name": "indices_5",
      "componentType": 5121,
      "count": 36,
      "type": "SCALAR",
      "bufferView": 17,
      "byteOffset": 0,
      "min": [
        0
      ],
      "max": [
        23
      ]
    },
    {
      "name": "positions_6",
      "componentType": 5126,
      "count": 24,
      "type": "VEC3",
      "bufferView": 18,
      "byteOffset": 0,
      "min": [
        18,
        16,
        0
      ],
      "max": [
        19,
        21,
        1
      ]
    },
    {
      "name": "texcoords_6",
      "componentType": 5126,
      "count": 24,
      "type": "VEC2",
      "bufferView": 19,
      "byteOffset": 0,
      "min": [
        0.56,
        0.9622641509433962
      ],
      "max": [
        0.58,
        0.9811320754716981
      ]
    },
    {
      "name": "indices_6",
      "componentType": 5121,
      "count": 36,
      "type": "SCALAR",
      "bufferView": 20,
      "byteOffset": 0,
      "min": [
        0
      ],
      "max": [
        23
      ]
    },
    {
      "name": "positions_7",
      "componentType": 5126,
      "count": 24,
      "type": "VEC3",
      "bufferView": 21,
      "byteOffset": 0,
      "min": [
        18,
        16,
        0
      ],
      "max": [
        19,
        21,
        1
      ]
    },
    {
      "name": "texcoords_7",
      "componentType": 5126,
      "count": 24,
      "type": "VEC2",
      "bufferView": 22,
      "byteOffset": 0,
      "min": [
        0.56,
        0.9622641509433962
      ],
      "max": [
        0.58,
        0.9811320754716981
      ]
    },
    {
      "name": "indices_7",
      "componentType": 5121,
      "count": 36,
      "type": "SCALAR",
      "bufferView": 23,
      "byteOffset": 0,
      "min": [
        0
      ],
      "max": [
        23
      ]
    },
    {
      "name": "positions_8",
      "componentType": 5126,
      "count": 24,
      "type": "VEC3",
      "bufferView": 24,
      "byteOffset": 0,
      "min": [
        18,
        16,
        0
      ],
      "max": [
        19,
        21,
        1
      ]
    },
    {
      "name": "texcoords_8",
      "componentType": 5126,
      "count": 24,
      "type": "VEC2",
      "bufferView": 25,
      "byteOffset": 0,
      "min": [
        0.56,
        0.9622641509433962
      ],
      "max": [
        0.58,
        0.9811320754716981
      ]
    },
    {
      "name": "indices_8",
      "componentType": 5121,
      "count": 36,
      "type": "SCALAR",
      "bufferView": 26,
      "byteOffset": 0,
      "min": [
        0
      ],
      "max": [
        23
      ]
    },
    {
      "name": "positions_9",
      "componentType": 5126,
      "count": 24,
      "type": "VEC3",
      "bufferView": 27,
      "byteOffset": 0,
      "min": [
        18,
        16,
        0
      ],
      "max": [
        19,
        21,
        1
      ]
    },
    {
      "name": "texcoords_9",
      "componentType": 5126,
      "count": 24,
      "type": "VEC2",
      "bufferView": 28,
      "byteOffset": 0,
      "min": [
        0.56,
        0.9622641509433962
      ],
      "max": [
        0.58,
        0.9811320754716981
      ]
    },
    {
      "name": "indices_9",
      "componentType": 5121,
      "count": 36,
      "type": "SCALAR",
      "bufferView": 29,
      "byteOffset": 0,
      "min": [
        0
      ],
      "max": [
        23
      ]
    },
    {
      "name": "positions_10",
      "componentType": 5126,
      "count": 24,
      "type": "VEC3",
      "bufferView": 30,
      "byteOffset": 0,
      "min": [
        18,
        16,
        0
      ],
      "max": [
        19,
        21,
        1
      ]
    },
    {
      "name": "texcoords_10",
      "componentType": 5126,
      "count": 24,
      "type": "VEC2",
      "bufferView": 31,
      "byteOffset": 0,
      "min": [
        0.56,
        0.9622641509433962
      ],
      "max": [
        0.58,
        0.9811320754716981
      ]
    },
    {
      "name": "indices_10",
      "componentType": 5121,
      "count": 36,
      "type": "SCALAR",
      "bufferView": 32,
      "byteOffset": 0,
      "min": [
        0
      ],
      "max": [
        23
      ]
    },
    {
      "name": "positions_11",
      "componentType": 5126,
      "count": 24,
      "type": "VEC3",
      "bufferView": 33,
      "byteOffset": 0,
      "min": [
        18,
        16,
        0
      ],
      "max": [
        19,
        21,
        1
      ]
    },
    {
      "name": "texcoords_11",
      "componentType": 5126,
      "count": 24,
      "type": "VEC2",
      "bufferView": 34,
      "byteOffset": 0,
      "min": [
        0.56,
        0.9622641509433962
      ],
      "max": [
        0.58,
        0.9811320754716981
      ]
    },
    {
      "name": "indices_11",
      "componentType": 5121,
      "count": 36,
      "type": "SCALAR",
      "bufferView": 35,
      "byteOffset": 0,
      "min": [
        0
      ],
      "max": [
        23
      ]
    },
    {
      "name": "positions_12",
      "componentType": 5126,
      "count": 24,
      "type": "VEC3",
      "bufferView": 36,
      "byteOffset": 0,
      "min": [
        18,
        16,
        0
      ],
      "max": [
        19,
        21,
        1
      ]
    },
    {
      "name": "texcoords_12",
      "componentType": 5126,
      "count": 24,
      "type": "VEC2",
      "bufferView": 37,
      "byteOffset": 0,
      "min": [
        0.56,
        0.9622641509433962
      ],
      "max": [
        0.58,
        0.9811320754716981
      ]
    },
    {
      "name": "indices_12",
      "componentType": 5121,
      "count": 36,
      "type": "SCALAR",
      "bufferView": 38,
      "byteOffset": 0,
      "min": [
        0
      ],
      "max": [
        23
      ]
    },
    {
      "name": "positions_13",
      "componentType": 5126,
      "count": 24,
      "type": "VEC3",
      "bufferView": 39,
      "byteOffset": 0,
      "min": [
        18,
        16,
        0
      ],
      "max": [
        19,
        21,
        1
      ]
    },
    {
      "name": "texcoords_13",
      "componentType": 5126,
      "count": 24,
      "type": "VEC2",
      "bufferView": 40,
      "byteOffset": 0,
      "min": [
        0.56,
        0.9622641509433962
      ],
      "max": [
        0.58,
        0.9811320754716981
      ]
    },
    {
      "name": "indices_13",
      "componentType": 5121,
      "count": 36,
      "type": "SCALAR",
      "bufferView": 41,
      "byteOffset": 0,
      "min": [
        0
      ],
      "max": [
        23
      ]
    },
    {
      "name": "positions_14",
      "componentType": 5126,
      "count": 96,
      "type": "VEC3",
      "bufferView": 42,
      "byteOffset": 0,
      "min": [
        18,
        14,
        0
      ],
      "max": [
        23,
        19,
        1
      ]
    },
    {
      "name": "texcoords_14",
      "componentType": 5126,
      "count": 96,
      "type": "VEC2",
      "bufferView": 43,
      "byteOffset": 0,
      "min": [
        0.56,
        0.9622641509433962
      ],
      "max": [
        0.58,
        0.9811320754716981
      ]
    },
    {
      "name": "indices_14",
      "componentType": 5121,
      "count": 144,
      "type": "SCALAR",
      "bufferView": 44,
      "byteOffset": 0,
      "min": [
        0
      ],
      "max": [
        95
      ]
    },
    {
      "name": "positions_15",
      "componentType": 5126,
      "count": 96,
      "type": "VEC3",
      "bufferView": 45,
      "byteOffset": 0,
      "min": [
        18,
        14,
        0
      ],
      "max": [
        23,
        19,
        1
      ]
    },
    {
      "name": "texcoords_15",
      "componentType": 5126,
      "count": 96,
      "type": "VEC2",
      "bufferView": 46,
      "byteOffset": 0,
      "min": [
        0.56,
        0.9622641509433962
      ],
      "max": [
        0.58,
        0.9811320754716981
      ]
    },
    {
      "name": "indices_15",
      "componentType": 5121,
      "count": 144,
      "type": "SCALAR",
      "bufferView": 47,
      "byteOffset": 0,
      "min": [
        0
      ],
      "max": [
        95
      ]
    },
    {
      "name": "positions_16",
      "componentType": 5126,
      "count": 96,
      "type": "VEC3",
      "bufferView": 48,
      "byteOffset": 0,
      "min": [
        18,
        14,
        0
      ],
      "max": [
        23,
        19,
        1
      ]
    },
    {
      "name": "texcoords_16",
      "componentType": 5126,
      "count": 96,
      "type": "VEC2",
      "bufferView": 49,
      "byteOffset": 0,
      "min": [
        0.56,
        0.9622641509433962
      ],
      "max": [
        0.58,
        0.9811320754716981
      ]
    },
    {
      "name": "indices_16",
      "componentType": 5121,
      "count": 144,
      "type": "SCALAR",
      "bufferView": 50,
      "byteOffset": 0,
      "min": [
        0
      ],
      "max": [
        95
      ]
    },
    {
      "name": "positions_17",
      "componentType": 5126,
      "count": 72,
      "type": "VEC3",
      "bufferView": 51,
      "byteOffset": 0,
      "min": [
        20,
        19,
        39
      ],
      "max": [
        23,
        24,
        40
      ]
    },
    {
      "name": "texcoords_17",
      "componentType": 5126,
      "count": 72,
      "type": "VEC2",
      "bufferView": 52,
      "byteOffset": 0,
      "min": [
        0.56,
        0.9622641509433962
      ],
      "max": [
        0.58,
        0.9811320754716981
      ]
    },
    {
      "name": "indices_17",
      "componentType": 5121,
      "count": 108,
      "type": "SCALAR",
      "bufferView": 53,
      "byteOffset": 0,
      "min": [
        0
      ],
      "max": [
        71
      ]
    },
    {
      "name": "positions_18",
      "componentType": 5126,
      "count": 72,
      "type": "VEC3",
      "bufferView": 54,
      "byteOffset": 0,
      "min": [
        20,
        19,
        39
      ],
      "max": [
        23,
        24,
        40
      ]
    },
    {
      "name": "texcoords_18",
      "componentType": 5126,
      "count": 72,
      "type": "VEC2",
      "bufferView": 55,
      "byteOffset": 0,
      "min": [
        0.56,
        0.9622641509433962
      ],
      "max": [
        0.58,
        0.9811320754716981
      ]
    },
    {
      "name": "indices_18",
      "componentType": 5121,
      "count": 108,
      "type": "SCALAR",
      "bufferView": 56,
      "byteOffset": 0,
      "min": [
        0
      ],
      "max": [
        71
      ]
    },
    {
      "name": "positions_19",
      "componentType": 5126,
      "count": 72,
      "type": "VEC3",
      "bufferView": 57,
      "byteOffset": 0,
      "min": [
        20,
        19,
        39
      ],
      "max": [
        23,
        24,
        40
      ]
    },
    {
      "name": "texcoords_19",
      "componentType": 5126,
      "count": 72,
      "type": "VEC2",
      "bufferView": 58,
      "byteOffset": 0,
      "min": [
        0.56,
        0.9622641509433962
      ],
      "max": [
        0.58,
        0.9811320754716981
      ]
    },
    {
      "name": "indices_19",
      "componentType": 5121,
      "count": 108,
      "type": "SCALAR",
      "bufferView": 59,
      "byteOffset": 0,
      "min": [
        0
      ],
      "max": [
        71
      ]
    },
    {
      "name": "positions_20",
      "componentType": 5126,
      "count": 72,
      "type": "VEC3",
      "bufferView": 60,
      "byteOffset": 0,
      "min": [
        20,
        19,
        39
      ],
      "max": [
        23,
        24,
        40
      ]
    },
    {
      "name": "texcoords_20",
      "componentType": 5126,
      "count": 72,
      "type": "VEC2",
      "bufferView": 61,
      "byteOffset": 0,
      "min": [
        0.56,
        0.9622641509433962
      ],
      "max": [
        0.58,
        0.9811320754716981
      ]
    },
    {
      "name": "indices_20",
      "componentType": 5121,
      "count": 108,
      "type": "SCALAR",
      "bufferView": 62,
      "byteOffset": 0,
      "min": [
        0
      ],
      "max": [
        71
      ]
    },
    {
      "name": "positions_21",
      "componentType": 5126,
      "count": 72,
      "type": "VEC3",
      "bufferView": 63,
      "byteOffset": 0,
      "min": [
        20,
        19,
        39
      ],
      "max": [
        23,
        24,
        40
      ]
    },
    {
      "name": "texcoords_21",
      "componentType": 5126,
      "count": 72,
      "type": "VEC2",
      "bufferView": 64,
      "byteOffset": 0,
      "min": [
        0.56,
        0.9622641509433962
      ],
      "max": [
        0.58,
        0.9811320754716981
      ]
    },
    {
      "name": "indices_21",
      "componentType": 5121,
      "count": 108,
      "type": "SCALAR",
      "bufferView": 65,
      "byteOffset": 0,
      "min": [
        0
      ],
      "max": [
        71
      ]
    },
    {
      "name": "positions_22",
      "componentType": 5126,
      "count": 72,
      "type": "VEC3",
      "bufferView": 66,
      "byteOffset": 0,
      "min": [
        20,
        19,
        39
      ],
      "max": [
        23,
        24,
        40
      ]
    },
    {
      "name": "texcoords_22",
      "componentType": 5126,
      "count": 72,
      "type": "VEC2",
      "bufferView": 67,
      "byteOffset": 0,
      "min": [
        0.56,
        0.9622641509433962
      ],
      "max": [
        0.58,
        0.9811320754716981
      ]
    },
    {
      "name": "indices_22",
      "componentType": 5121,
      "count": 108,
      "type": "SCALAR",
      "bufferView": 68,
      "byteOffset": 0,
      "min": [
        0
      ],
      "max": [
        71
      ]
    },
    {
      "name": "positions_23",
      "componentType": 5126,
      "count": 72,
      "type": "VEC3",
      "bufferView": 69,
      "byteOffset": 0,
      "min": [
        20,
        19,
        39
      ],
      "max": [
        23,
        24,
        40
      ]
    },
    {
      "name": "texcoords_23",
      "componentType": 5126,
      "count": 72,
      "type": "VEC2",
      "bufferView": 70,
      "byteOffset": 0,
      "min": [
        0.56,
        0.9622641509433962
      ],
      "max": [
        0.58,
        0.9811320754716981
      ]
    },
    {
      "name": "indices_23",
      "componentType": 5121,
      "count": 108,
      "type": "SCALAR",
      "bufferView": 71,
      "byteOffset": 0,
      "min": [
        0
      ],
      "max": [
        71
      ]
    },
    {
      "name": "positions_24",
      "componentType": 5126,
      "count": 72,
      "type": "VEC3",
      "bufferView": 72,
      "byteOffset": 0,
      "min": [
        20,
        19,
        39
      ],
      "max": [
        23,
        24,
        40
      ]
    },
    {
      "name": "texcoords_24",
      "componentType": 5126,
      "count": 72,
      "type": "VEC2",
      "bufferView": 73,
      "byteOffset": 0,
      "min": [
        0.56,
        0.9622641509433962
      ],
      "max": [
        0.58,
        0.9811320754716981
      ]
    },
    {
      "name": "indices_24",
      "componentType": 5121,
      "count": 108,
      "type": "SCALAR",
      "bufferView": 74,
      "byteOffset": 0,
      "min": [
        0
      ],
      "max": [
        71
      ]
    },
    {
      "name": "positions_25",
      "componentType": 5126,
      "count": 72,
      "type": "VEC3",
      "bufferView": 75,
      "byteOffset": 0,
      "min": [
        20,
        19,
        39
      ],
      "max": [
        23,
        24,
        40
      ]
    },
    {
      "name": "texcoords_25",
      "componentType": 5126,
      "count": 72,
      "type": "VEC2",
      "bufferView": 76,
      "byteOffset": 0,
      "min": [
        0.56,
        0.9622641509433962
      ],
      "max": [
        0.58,
        0.9811320754716981
      ]
    },
    {
      "name": "indices_25",
      "componentType": 5121,
      "count": 108,
      "type": "SCALAR",
      "bufferView": 77,
      "byteOffset": 0,
      "min": [
        0
      ],
      "max": [
        71
      ]
    },
    {
      "name": "positions_26",
      "componentType": 5126,
      "count": 72,
      "type": "VEC3",
      "bufferView": 78,
      "byteOffset": 0,
      "min": [
        20,
        19,
        39
      ],
      "max": [
        23,
        24,
        40
      ]
    },
    {
      "name": "texcoords_26",
      "componentType": 5126,
      "count": 72,
      "type": "VEC2",
      "bufferView": 79,
      "byteOffset": 0,
      "min": [
        0.56,
        0.9622641509433962
      ],
      "max": [
        0.58,
        0.9811320754716981
      ]
    },
    {
      "name": "indices_26",
      "componentType": 5121,
      "count": 108,
      "type": "SCALAR",
      "bufferView": 80,
      "byteOffset": 0,
      "min": [
        0
      ],
      "max": [
        71
      ]
    },
    {
      "name": "positions_27",
      "componentType": 5126,
      "count": 72,
      "type": "VEC3",
      "bufferView": 81,
      "byteOffset": 0,
      "min": [
        20,
        19,
        39
      ],
      "max": [
        23,
        24,
        40
      ]
    },
    {
      "name": "texcoords_27",
      "componentType": 5126,
      "count": 72,
      "type": "VEC2",
      "bufferView": 82,
      "byteOffset": 0,
      "min": [
        0.56,
        0.9622641509433962
      ],
      "max": [
        0.58,
        0.9811320754716981
      ]
    },
    {
      "name": "indices_27",
      "componentType": 5121,
      "count": 108,
      "type": "SCALAR",
      "bufferView": 83,
      "byteOffset": 0,
      "min": [
        0
      ],
      "max": [
        71
      ]
    },
    {
      "name": "positions_28",
      "componentType": 5126,
      "count": 5488,
      "type": "VEC3",
      "bufferView": 84,
      "byteOffset": 0,
      "min": [
        10,
        0,
        36
      ],
      "max": [
        67,
        41,
        46
      ]
    },
    {
      "name": "texcoords_28",
      "componentType": 5126,
      "count": 5488,
      "type": "VEC2",
      "bufferView": 85,
      "byteOffset": 0,
      "min": [
        0.02,
        0.018867924528301886
      ],
      "max": [
        0.98,
        0.9811320754716981
      ]
    },
    {
      "name": "indices_28",
      "componentType": 5123,
      "count": 8232,
      "type": "SCALAR",
      "bufferView": 86,
      "byteOffset": 0,
      "min": [
        0
      ],
      "max": [
        5487
      ]
    }
  ],
  "bufferViews": [
    {
      "name": "bufferView_positions_0",
      "buffer": 0,
      "byteLength": 1728,
      "byteOffset": 0,
      "byteStride": 12,
      "target": 34962
    },
    {
      "name": "bufferView_texcoords_0",
      "buffer": 0,
      "byteLength": 1152,
      "byteOffset": 1728,
      "byteStride": 8,
      "target": 34962
    },
    {
      "name": "bufferView_indices_0",
      "buffer": 0,
      "byteLength": 216,
      "byteOffset": 2880,
      "target": 34963
    },
    {
      "name": "bufferView_positions_1",
      "buffer": 0,
      "byteLength": 1728,
      "byteOffset": 3096,
      "byteStride": 12,
      "target": 34962
    },
    {
      "name": "bufferView_texcoords_1",
      "buffer": 0,
      "byteLength": 1152,
      "byteOffset": 4824,
      "byteStride": 8,
      "target": 34962
    },
    {
      "name": "bufferView_indices_1",
      "buffer": 0,
      "byteLength": 216,
      "byteOffset": 5976,
      "target": 34963
    },
    {
      "name": "bufferView_positions_2",
      "buffer": 0,
      "byteLength": 1728,
      "byteOffset": 6192,
      "byteStride": 12,
      "target": 34962
    },
    {
      "name": "bufferView_texcoords_2",
      "buffer": 0,
      "byteLength": 1152,
      "byteOffset": 7920,
      "byteStride": 8,
      "target": 34962
    },
    {
      "name": "bufferView_indices_2",
      "buffer": 0,
      "byteLength": 216,
      "byteOffset": 9072,
      "target": 34963
    },
    {
      "name": "bufferView_positions_3",
      "buffer": 0,
      "byteLength": 1728,
      "byteOffset": 9288,
      "byteStride": 12,
      "target": 34962
    },
    {
      "name": "bufferView_texcoords_3",
      "buffer": 0,
      "byteLength": 1152,
      "byteOffset": 11016,
      "byteStride": 8,
      "target": 34962
    },
    {
      "name": "bufferView_indices_3",
      "buffer": 0,
      "byteLength": 216,
      "byteOffset": 12168,
      "target": 34963
    },
    {
      "name": "bufferView_positions_4",
      "buffer": 0,
      "byteLength": 288,
      "byteOffset": 12384,
      "byteStride": 12,
      "target": 34962
    },
    {
      "name": "bufferView_texcoords_4",
      "buffer": 0,
      "byteLength": 192,
      "byteOffset": 12672,
      "byteStride": 8,
      "target": 34962
    },
    {
      "name": "bufferView_indices_4",
      "buffer": 0,
      "byteLength": 36,
      "byteOffset": 12864,
      "target": 34963
    },
    {
      "name": "bufferView_positions_5",
      "buffer": 0,
      "byteLength": 288,
      "byteOffset": 12900,
      "byteStride": 12,
      "target": 34962
    },
    {
      "name": "bufferView_texcoords_5",
      "buffer": 0,
      "byteLength": 192,
      "byteOffset": 13188,
      "byteStride": 8,
      "target": 34962
    },
    {
      "name": "bufferView_indices_5",
      "buffer": 0,
      "byteLength": 36,
      "byteOffset": 13380,
      "target": 34963
    },
    {
      "name": "bufferView_positions_6",
      "buffer": 0,
      "byteLength": 288,
      "byteOffset": 13416,
      "byteStride": 12,
      "target": 34962
    },
    {
      "name": "bufferView_texcoords_6",
      "buffer": 0,
      "byteLength": 192,
      "byteOffset": 13704,
      "byteStride": 8,
      "target": 34962
    },
    {
      "name": "bufferView_indices_6",
      "buffer": 0,
      "byteLength": 36,
      "byteOffset": 13896,
      "target": 34963
    },
    {
      "name": "bufferView_positions_7",
      "buffer": 0,
      "byteLength": 288,
      "byteOffset": 13932,
      "byteStride": 12,
      "target": 34962
    },
    {
      "name": "bufferView_texcoords_7",
      "buffer": 0,
      "byteLength": 192,
      "byteOffset": 14220,
      "byteStride": 8,
      "target": 34962
    },
    {
      "name": "bufferView_indices_7",
      "buffer": 0,
      "byteLength": 36,
      "byteOffset": 14412,
      "target": 34963
    },
    {
      "name": "bufferView_positions_8",
      "buffer": 0,
      "byteLength": 288,
      "byteOffset": 14448,
      "byteStride": 12,
      "target": 34962
    },
    {
      "name": "bufferView_texcoords_8",
      "buffer": 0,
      "byteLength": 192,
      "byteOffset": 14736,
      "byteStride": 8,
      "target": 34962
    },
    {
      "name": "bufferView_indices_8",
      "buffer": 0,
      "byteLength": 36,
      "byteOffset": 14928,
      "target": 34963
    },
    {
      "name": "bufferView_positions_9",
      "buffer": 0,
      "byteLength": 288,
      "byteOffset": 14964,
      "byteStride": 12,
      "target": 34962
    },
    {
      "name": "bufferView_texcoords_9",
      "buffer": 0,
      "byteLength": 192,
      "byteOffset": 15252,
      "byteStride": 8,
      "target": 34962
    },
    {
      "name": "bufferView_indices_9",
      "buffer": 0,
      "byteLength": 36,
      "byteOffset": 15444,
      "target": 34963
    },
    {
      "name": "bufferView_positions_10",
      "buffer": 0,
      "byteLength": 288,
      "byteOffset": 15480,
      "byteStride": 12,
      "target": 34962
    },
    {
      "name": "bufferView_texcoords_10",
      "buffer": 0,
      "byteLength": 192,
      "byteOffset": 15768,
      "byteStride": 8,
      "target": 34962
    },
    {
      "name": "bufferView_indices_10",
      "buffer": 0,
      "byteLength": 36,
      "byteOffset": 15960,
      "target": 34963
    },
    {
      "name": "bufferView_positions_11",
      "buffer": 0,
      "byteLength": 288,
      "byteOffset": 15996,
      "byteStride": 12,
      "target": 34962
    },
    {
      "name": "bufferView_texcoords_11",
      "buffer": 0,
      "byteLength": 192,
      "byteOffset": 16284,
      "byteStride": 8,
      "target": 34962
    },
    {
      "name": "bufferView_indices_11",
      "buffer": 0,
      "byteLength": 36,
      "byteOffset": 16476,
      "target": 34963
    },
    {
      "name": "bufferView_positions_12",
      "buffer": 0,
      "byteLength": 288,
      "byteOffset": 16512,
      "byteStride": 12,
      "target": 34962
    },
    {
      "name": "bufferView_texcoords_12",
      "buffer": 0,
      "byteLength": 192,
      "byteOffset": 16800,
      "byteStride": 8,
      "target": 34962
    },
    {
      "name": "bufferView_indices_12",
      "buffer": 0,
      "byteLength": 36,
      "byteOffset": 16992,
      "target": 34963
    },
    {
      "name": "bufferView_positions_13",
      "buffer": 0,
      "byteLength": 288,
      "byteOffset": 17028,
      "byteStride": 12,
      "target": 34962
    },
    {
      "name": "bufferView_texcoords_13",
      "buffer": 0,
      "byteLength": 192,
      "byteOffset": 17316,
      "byteStride": 8,
      "target": 34962
    },
    {
      "name": "bufferView_indices_13",
      "buffer": 0,
      "byteLength": 36,
      "byteOffset": 17508,
      "target": 34963
    },
    {
      "name": "bufferView_positions_14",
      "buffer": 0,
      "byteLength": 1152,
      "byteOffset": 17544,
      "byteStride": 12,
      "target": 34962
    },
    {
      "name": "bufferView_texcoords_14",
      "buffer": 0,
      "byteLength": 768,
      "byteOffset": 18696,
      "byteStride": 8,
      "target": 34962
    },
    {
      "name": "bufferView_indices_14",
      "buffer": 0,
      "byteLength": 144,
      "byteOffset": 19464,
      "target": 34963
    },
    {
      "name": "bufferView_positions_15",
      "buffer": 0,
      "byteLength": 1152,
      "byteOffset": 19608,
      "byteStride": 12,
      "target": 34962
    },
    {
      "name": "bufferView_texcoords_15",
      "buffer": 0,
      "byteLength": 768,
      "byteOffset": 20760,
      "byteStride": 8,
      "target": 34962
    },
    {
      "name": "bufferView_indices_15",
      "buffer": 0,
      "byteLength": 144,
      "byteOffset": 21528,
      "target": 34963
    },
    {
      "name": "bufferView_positions_16",
      "buffer": 0,
      "byteLength": 1152,
      "byteOffset": 21672,
      "byteStride": 12,
      "target": 34962
    },
    {
      "name": "bufferView_texcoords_16",
      "buffer": 0,
      "byteLength": 768,
      "byteOffset": 22824,
      "byteStride": 8,
      "target": 34962
    },
    {
      "name": "bufferView_indices_16",
      "buffer": 0,
      "byteLength": 144,
      "byteOffset": 23592,
      "target": 34963
    },
    {
      "name": "bufferView_positions_17",
      "buffer": 0,
      "byteLength": 864,
      "byteOffset": 23736,
      "byteStride": 12,
      "target": 34962
    },
    {
      "name": "bufferView_texcoords_17",
      "buffer": 0,
      "byteLength": 576,
      "byteOffset": 24600,
      "byteStride": 8,
      "target": 34962
    },
    {
      "name": "bufferView_indices_17",
      "buffer": 0,
      "byteLength": 108,
      "byteOffset": 25176,
      "target": 34963
    },
    {
      "name": "bufferView_positions_18",
      "buffer": 0,
      "byteLength": 864,
      "byteOffset": 25284,
      "byteStride": 12,
      "target": 34962
    },
    {
      "name": "bufferView_texcoords_18",
      "buffer": 0,
      "byteLength": 576,
      "byteOffset": 26148,
      "byteStride": 8,
      "target": 34962
    },
    {
      "name": "bufferView_indices_18",
      "buffer": 0,
      "byteLength": 108,
      "byteOffset": 26724,
      "target": 34963
    },
    {
      "name": "bufferView_positions_19",
      "buffer": 0,
      "byteLength": 864,
      "byteOffset": 26832,
      "byteStride": 12,
      "target": 34962
    },
    {
      "name": "bufferView_texcoords_19",
      "buffer": 0,
      "byteLength": 576,
      "byteOffset": 27696,
      "byteStride": 8,
      "target": 34962
    },
    {
      "name": "bufferView_indices_19",
      "buffer": 0,
      "byteLength": 108,
      "byteOffset": 28272,
      "target": 34963
    },
    {
      "name": "bufferView_positions_20",
      "buffer": 0,
      "byteLength": 864,
      "byteOffset": 28380,
      "byteStride": 12,
      "target": 34962
    },
    {
      "name": "bufferView_texcoords_20",
      "buffer": 0,
      "byteLength": 576,
      "byteOffset": 29244,
      "byteStride": 8,
      "target": 34962
    },
    {
      "name": "bufferView_indices_20",
      "buffer": 0,
      "byteLength": 108,
      "byteOffset": 29820,
      "target": 34963
    },
    {
      "name": "bufferView_positions_21",
      "buffer": 0,
      "byteLength": 864,
      "byteOffset": 29928,
      "byteStride": 12,
      "target": 34962
    },
    {
      "name": "bufferView_texcoords_21",
      "buffer": 0,
      "byteLength": 576,
      "byteOffset": 30792,
      "byteStride": 8,
      "target": 34962
    },
    {
      "name": "bufferView_indices_21",
      "buffer": 0,
      "byteLength": 108,
      "byteOffset": 31368,
      "target": 34963
    },
    {
      "name": "bufferView_positions_22",
      "buffer": 0,
      "byteLength": 864,
      "byteOffset": 31476,
      "byteStride": 12,
      "target": 34962
    },
    {
      "name": "bufferView_texcoords_22",
      "buffer": 0,
      "byteLength": 576,
      "byteOffset": 32340,
      "byteStride": 8,
      "target": 34962
    },
    {
      "name": "bufferView_indices_22",
      "buffer": 0,
      "byteLength": 108,
      "byteOffset": 32916,
      "target": 34963
    },
    {
      "name": "bufferView_positions_23",
      "buffer": 0,
      "byteLength": 864,
      "byteOffset": 33024,
      "byteStride": 12,
      "target": 34962
    },
    {
      "name": "bufferView_texcoords_23",
      "buffer": 0,
      "byteLength": 576,
      "byteOffset": 33888,
      "byteStride": 8,
      "target": 34962
    },
    {
      "name": "bufferView_indices_23",
      "buffer": 0,
      "byteLength": 108,
      "byteOffset": 34464,
      "target": 34963
    },
    {
      "name": "bufferView_positions_24",
      "buffer": 0,
      "byteLength": 864,
      "byteOffset": 34572,
      "byteStride": 12,
      "target": 34962
    },
    {
      "name": "bufferView_texcoords_24",
      "buffer": 0,
      "byteLength": 576,
      "byteOffset": 35436,
      "byteStride": 8,
      "target": 34962
    },
    {
      "name": "bufferView_indices_24",
      "buffer": 0,
      "byteLength": 108,
      "byteOffset": 36012,
      "target": 34963
    },
    {
      "name": "bufferView_positions_25",
      "buffer": 0,
      "byteLength": 864,
      "byteOffset": 36120,
      "byteStride": 12,
      "target": 34962
    },
    {
      "name": "bufferView_texcoords_25",
      "buffer": 0,
      "byteLength": 576,
      "byteOffset": 36984,
      "byteStride": 8,
      "target": 34962
    },
    {
      "name": "bufferView_indices_25",
      "buffer": 0,
      "byteLength": 108,
      "byteOffset": 37560,
      "target": 34963
    },
    {
      "name": "bufferView_positions_26",
      "buffer": 0,
      "byteLength": 864,
      "byteOffset": 37668,
      "byteStride": 12,
      "target": 34962
    },
    {
      "name": "bufferView_texcoords_26",
      "buffer": 0,
      "byteLength": 576,
      "byteOffset": 38532,
      "byteStride": 8,
      "target": 34962
    },
    {
      "name": "bufferView_indices_26",
      "buffer": 0,
      "byteLength": 108,
      "byteOffset": 39108,
      "target": 34963
    },
    {
      "name": "bufferView_positions_27",
      "buffer": 0,
      "byteLength": 864,
      "byteOffset": 39216,
      "byteStride": 12,
      "target": 34962
    },
    {
      "name": "bufferView_texcoords_27",
      "buffer": 0,
      "byteLength": 576,
      "byteOffset": 40080,
      "byteStride": 8,
      "target": 34962
    },
    {
      "name": "bufferView_indices_27",
      "buffer": 0,
      "byteLength": 108,
      "byteOffset": 40656,
      "target": 34963
    },
    {
      "name": "bufferView_positions_28",
      "buffer": 0,
      "byteLength": 65856,
      "byteOffset": 40764,
      "byteStride": 12,
      "target": 34962
    },
    {
      "name": "bufferView_texcoords_28",
      "buffer": 0,
      "byteLength": 43904,
      "byteOffset": 106620,
      "byteStride": 8,
      "target": 34962
    },
    {
      "name": "bufferView_indices_28",
      "buffer": 0,
      "byteLength": 16464,
      "byteOffset": 150524,
      "target": 34963
    },
    {
      "name": "bufferView_image",
      "buffer": 0,
      "byteLength": 1474,
      "byteOffset": 166988
    },
    {
      "name": "bufferView_emissive_image",
      "buffer": 0,
      "byteLength": 761,
      "byteOffset": 168462
    }
  ],
  "buffers": [
    {
      "name": "Pgh9qOPi7zj3to73iM898BEsgoQjEugMf65NIdjKvdg",
      "byteLength": 169224,
      "uri": "data:application/octet-stream;base64,"
    }
  ],
  "images": [
    {
      "name": "image",
      "mimeType": "image/png",
      "bufferView": 87
    },
    {
      "name": "emissive image",
      "mimeType": "image/png",
      "bufferView": 88
    }
  ],
  "materials": [
    {
      "name": "material",
      "pbrMetallicRoughness": {
        "baseColorTexture": {
          "index": 0
        },
        "baseColorFactor": [
          1,
          1,
          1,
          1
        ],
        "metallicFactor": 0,
        "roughnessFactor": 1
      },
      "emissiveTexture": {
        "index": 1
      },
      "emissiveFactor": [
        0,
        0,
        0
      ],
      "alphaMode": "OPAQUE",
      "doubleSided": true,
      "extensions": {
        "KHR_materials_unlit": {}
      }
    }
  ],
  "meshes": [
    {
      "name": "mesh_0",
      "primitives": [
        {
          "attributes": {
            "POSITION": 0,
            "TEXCOORD_0": 1
          },
          "indices": 2,
          "material": 0,
          "mode": 4
        }
      ]
    },
    {
      "name": "mesh_1",
      "primitives": [
        {
          "attributes": {
            "POSITION": 3,
            "TEXCOORD_0": 4
          },
          "indices": 5,
          "material": 0,
          "mode": 4
        }
      ]
    },
    {
      "name": "mesh_2",
      "primitives": [
        {
          "attributes": {
            "POSITION": 6,
            "TEXCOORD_0": 7
          },
          "indices": 8,
          "material": 0,
          "mode": 4
        }
      ]
    },
    {
      "name": "mesh_3",
      "primitives": [
        {
          "attributes": {
            "POSITION": 9,
            "TEXCOORD_0": 10
          },
          "indices": 11,
          "material": 0,
          "mode": 4
        }
      ]
    },
    {
      "name": "mesh_4",
      "primitives": [
        {
          "attributes": {
            "POSITION": 12,
            "TEXCOORD_0": 13
          },
          "indices": 14,
          "material": 0,
          "mode": 4
        }
      ]
    },
    {
      "name": "mesh_5",
      "primitives": [
        {
          "attributes": {
            "POSITION": 15,
            "TEXCOORD_0": 16
          },
          "indices": 17,
          "material": 0,
          "mode": 4
        }
      ]
    },
    {
      "name": "mesh_6",
      "primitives": [
        {
          "attributes": {
            "POSITION": 18,
            "TEXCOORD_0": 19
          },
          "indices": 20,
          "material": 0,
          "mode": 4
        }
      ]
    },
    {
      "name": "mesh_7",
      "primitives": [
        {
          "attributes": {
            "POSITION": 21,
            "TEXCOORD_0": 22
          },
          "indices": 23,
          "material": 0,
          "mode": 4
        }
      ]
    },
    {
      "name": "mesh_8",
      "primitives": [
        {
          "attributes": {
            "POSITION": 24,
            "TEXCOORD_0": 25
          },
          "indices": 26,
          "material": 0,
          "mode": 4
        }
      ]
    },
    {
      "name": "mesh_9",
      "primitives": [
        {
          "attributes": {
            "POSITION": 27,
            "TEXCOORD_0": 28
          },
          "indices": 29,
          "material": 0,
          "mode": 4
        }
      ]
    },
    {
      "name": "mesh_10",
      "primitives": [
        {
          "attributes": {
            "POSITION": 30,
            "TEXCOORD_0": 31
          },
          "indices": 32,
          "material": 0,
          "mode": 4
        }
      ]
    },
    {
      "name": "mesh_11",
      "primitives": [
        {
          "attributes": {
            "POSITION": 33,
            "TEXCOORD_0": 34
          },
          "indices": 35,
          "material": 0,
          "mode": 4
        }
      ]
    },
    {
      "name": "mesh_12",
      "primitives": [
        {
          "attributes": {
            "POSITION": 36,
            "TEXCOORD_0": 37
          },
          "indices": 38,
          "material": 0,
          "mode": 4
        }
      ]
    },
    {
      "name": "mesh_13",
      "primitives": [
        {
          "attributes": {
            "POSITION": 39,
            "TEXCOORD_0": 40
          },
          "indices": 41,
          "material": 0,
          "mode": 4
        }
      ]
    },
    {
      "name": "mesh_14",
      "primitives": [
        {
          "attributes": {
            "POSITION": 42,
            "TEXCOORD_0": 43
          },
          "indices": 44,
          "material": 0,
          "mode": 4
        }
      ]
    },
    {
      "name": "mesh_15",
      "primitives": [
        {
          "attributes": {
            "POSITION": 45,
            "TEXCOORD_0": 46
          },
          "indices": 47,
          "material": 0,
          "mode": 4
        }
      ]
    },
    {
      "name": "mesh_16",
      "primitives": [
        {
          "attributes": {
            "POSITION": 48,
            "TEXCOORD_0": 49
          },
          "indices": 50,
          "material": 0,
          "mode": 4
        }
      ]
    },
    {
      "name": "mesh_17",
      "primitives": [
        {
          "attributes": {
            "POSITION": 51,
            "TEXCOORD_0": 52
          },
          "indices": 53,
          "material": 0,
          "mode": 4
        }
      ]
    },
    {
      "name": "mesh_18",
      "primitives": [
        {
          "attributes": {
            "POSITION": 54,
            "TEXCOORD_0": 55
          },
          "indices": 56,
          "material": 0,
          "mode": 4
        }
      ]
    },
    {
      "name": "mesh_19",
      "primitives": [
        {
          "attributes": {
            "POSITION": 57,
            "TEXCOORD_0": 58
          },
          "indices": 59,
          "material": 0,
          "mode": 4
        }
      ]
    },
    {
      "name": "mesh_20",
      "primitives": [
        {
          "attributes": {
            "POSITION": 60,
            "TEXCOORD_0": 61
          },
          "indices": 62,
          "material": 0,
          "mode": 4
        }
      ]
    },
    {
      "name": "mesh_21",
      "primitives": [
        {
          "attributes": {
            "POSITION": 63,
            "TEXCOORD_0": 64
          },
          "indices": 65,
          "material": 0,
          "mode": 4
        }
      ]
    },
    {
      "name": "mesh_22",
      "primitives": [
        {
          "attributes": {
            "POSITION": 66,
            "TEXCOORD_0": 67
          },
          "indices": 68,
          "material": 0,
          "mode": 4
        }
      ]
    },
    {
      "name": "mesh_23",
      "primitives": [
        {
          "attributes": {
            "POSITION": 69,
            "TEXCOORD_0": 70
          },
          "indices": 71,
          "material": 0,
          "mode": 4
        }
      ]
    },
    {
      "name": "mesh_24",
      "primitives": [
        {
          "attributes": {
            "POSITION": 72,
            "TEXCOORD_0": 73
          },
          "indices": 74,
          "material": 0,
          "mode": 4
        }
      ]
    },
    {
      "name": "mesh_25",
      "primitives": [
        {
          "attributes": {
            "POSITION": 75,
            "TEXCOORD_0": 76
          },
          "indices": 77,
          "material": 0,
          "mode": 4
        }
      ]
    },
    {
      "name": "mesh_26",
      "primitives": [
        {
          "attributes": {
            "POSITION": 78,
            "TEXCOORD_0": 79
          },
          "indices": 80,
          "material": 0,
          "mode": 4
        }
      ]
    },
    {
      "name": "mesh_27",
      "primitives": [
        {
          "attributes": {
            "POSITION": 81,
            "TEXCOORD_0": 82
          },
          "indices": 83,
          "material": 0,
          "mode": 4
        }
      ]
    },
    {
      "name": "mesh_28",
      "primitives": [
        {
          "attributes": {
            "POSITION": 84,
            "TEXCOORD_0": 85
          },
          "indices": 86,
          "material": 0,
          "mode": 4
        }
      ]
    }
  ],
  "nodes": [
    {
      "name": "Root",
      "rotation": [
        0,
        0,
        0,
        1
      ],
      "scale": [
        1,
        1,
        1
      ],
      "translation": [
        0,
        0,
        0
      ],
      "children": [
        1,
        2
      ]
    },
    {
      "name": "Root",
      "rotation": [
        0,
        0,
        0,
        1
      ],
      "scale": [
        1,
        1,
        1
      ],
      "translation": [
        0,
        0,
        0
      ]
    },
    {
      "name": "Root",
      "rotation": [
        0,
        0,
        0,
        1
      ],
      "scale": [
        1,
        1,
        1
      ],
      "translation": [
        0,
        0,
        0
      ],
      "children": [
        3,
        4,
        5,
        6,
        7,
        8,
        9,
        10,
        11,
        12,
        13,
        14,
        15,
        16,
        17,
        19,
        20,
        21,
        23,
        25,
        27,
        28,
        29,
        30,
        31,
        32,
        33,
        34,
        35
      ]
    },
    {
      "name": "9",
      "mesh": 0,
      "rotation": [
        0,
        0,
        0,
        1
      ],
      "scale": [
        1,
        1,
        1
      ],
      "translation": [
        7.854129791259766,
        12.658692359924316,
        20.891225814819336
      ]
    },
    {
      "name": "9",
      "mesh": 1,
      "rotation": [
        0,
        0,
        0,
        1
      ],
      "scale": [
        1,
        1,
        1
      ],
      "translation": [
        0.3590049743652344,
        8.110468864440918,
        20.891225814819336
      ]
    },
    {
      "name": "9",
      "mesh": 2,
      "rotation": [
        0,
        0,
        0,
        1
      ],
      "scale": [
        1,
        1,
        1
      ],
      "translation": [
        -2.7098236083984375,
        2.576772689819336,
        20.891225814819336
      ]
    },
    {
      "name": "9",
      "mesh": 3,
      "rotation": [
        0,
        0,
        0,
        1
      ],
      "scale": [
        1,
        1,
        1
      ],
      "translation": [
        -1.3021736145019531,
        -3.381267547607422,
        20.891225814819336
      ]
    },
    {
      "name": "5（2）3",
      "mesh": 4,
      "rotation": [
        0,
        0,
        -0.09981537610292435,
        0.9950059652328491
      ],
      "scale": [
        0.9999998211860657,
        0.9999998211860657,
        1
      ],
      "translation": [
        8.705646514892578,
        -10.058099746704102,
        20.42169761657715
      ]
    },
    {
      "name": "5（2）2",
      "mesh": 5,
      "rotation": [
        0,
        0,
        -0.09981537610292435,
        0.9950059652328491
      ],
      "scale": [
        0.9999998211860657,
        0.9999998211860657,
        1
      ],
      "translation": [
        18.557483673095703,
        -6.804891586303711,
        20.42169761657715
      ]
    },
    {
      "name": "5（2）5",
      "mesh": 6,
      "rotation": [
        0,
        0,
        -0.09981536120176315,
        0.9950059652328491
      ],
      "scale": [
        0.9999998211860657,
        0.9999998211860657,
        1
      ],
      "translation": [
        -6.318500518798828,
        -0.323455810546875,
        20.42169761657715
      ]
    },
    {
      "name": "5（2）4",
      "mesh": 7,
      "rotation": [
        0,
        0,
        -0.09981536120176315,
        0.9950059652328491
      ],
      "scale": [
        0.9999998211860657,
        0.9999998211860657,
        1
      ],
      "translation": [
        -2.6250381469726562,
        -6.347082138061523,
        20.42169761657715
      ]
    },
    {
      "name": "5（2）",
      "mesh": 8,
      "rotation": [
        0,
        0,
        -0.09981537610292435,
        0.9950059652328491
      ],
      "scale": [
        0.9999998211860657,
        0.9999998211860657,
        1
      ],
      "translation": [
        24.327592849731445,
        0.35546875,
        20.42169761657715
      ]
    },
    {
      "name": "5（1）2",
      "mesh": 9,
      "rotation": [
        0,
        0,
        0.10538148880004883,
        0.994431734085083
      ],
      "scale": [
        1,
        1,
        1
      ],
      "translation": [
        24.867313385009766,
        -14.502788543701172,
        20.369943618774414
      ]
    },
    {
      "name": "5（1）3",
      "mesh": 10,
      "rotation": [
        0,
        0,
        0.10538148880004883,
        0.994431734085083
      ],
      "scale": [
        1,
        1,
        1
      ],
      "translation": [
        14.717818260192871,
        -17.553970336914062,
        20.369943618774414
      ]
    },
    {
      "name": "5（1）5",
      "mesh": 11,
      "rotation": [
        0,
        0,
        0.10538147389888763,
        0.9944318532943726
      ],
      "scale": [
        1,
        1,
        1
      ],
      "translation": [
        -0.17084884643554688,
        -7.886547088623047,
        20.369943618774414
      ]
    },
    {
      "name": "5（1）4",
      "mesh": 12,
      "rotation": [
        0,
        0,
        0.10538147389888763,
        0.9944318532943726
      ],
      "scale": [
        1,
        1,
        1
      ],
      "translation": [
        3.8634700775146484,
        -13.982437133789062,
        20.369943618774414
      ]
    },
    {
      "name": "5（1）",
      "mesh": 13,
      "rotation": [
        0,
        0,
        0.10538148880004883,
        0.994431734085083
      ],
      "scale": [
        1,
        1,
        1
      ],
      "translation": [
        30.812705993652344,
        -7.546056747436523,
        20.369943618774414
      ]
    },
    {
      "name": "6",
      "rotation": [
        0,
        0,
        0,
        1
      ],
      "scale": [
        1,
        1,
        1
      ],
      "translation": [
        21.244972229003906,
        11.257242202758789,
        40.17689514160156
      ],
      "children": [
        18
      ]
    },
    {
      "name": "02（2）",
      "mesh": 14,
      "rotation": [
        0,
        0,
        0,
        1
      ],
      "scale": [
        1,
        1,
        1
      ],
      "translation": [
        -20,
        -20,
        -20
      ]
    },
    {
      "name": "02",
      "mesh": 15,
      "rotation": [
        0,
        0,
        0,
        1
      ],
      "scale": [
        1,
        1,
        1
      ],
      "translation": [
        11.417312622070312,
        19.033660888671875,
        20.176895141601562
      ]
    },
    {
      "name": "02",
      "mesh": 16,
      "rotation": [
        0,
        0,
        0,
        1
      ],
      "scale": [
        1,
        1,
        1
      ],
      "translation": [
        22.63753318786621,
        10.847389221191406,
        20.176895141601562
      ]
    },
    {
      "name": "3（1）",
      "rotation": [
        0,
        0,
        0,
        1
      ],
      "scale": [
        1,
        1,
        1
      ],
      "translation": [
        41.868865966796875,
        19.473886489868164,
        1.3495063781738281
      ],
      "children": [
        22
      ]
    },
    {
      "name": "Object-1",
      "mesh": 17,
      "rotation": [
        0,
        0,
        0,
        1
      ],
      "scale": [
        1,
        1,
        1
      ],
      "translation": [
        -20,
        -20,
        -20
      ]
    },
    {
      "name": "3（3）",
      "rotation": [
        0,
        0,
        0,
        1
      ],
      "scale": [
        1,
        1,
        1
      ],
      "translation": [
        44.84187316894531,
        19.462604522705078,
        1.298309326171875
      ],
      "children": [
        24
      ]
    },
    {
      "name": "Object-1",
      "mesh": 18,
      "rotation": [
        0,
        0,
        0,
        1
      ],
      "scale": [
        1,
        1,
        1
      ],
      "translation": [
        -20,
        -20,
        -20
      ]
    },
    {
      "name": "3（2）",
      "rotation": [
        0,
        0,
        0,
        1
      ],
      "scale": [
        1,
        1,
        1
      ],
      "translation": [
        43.37984085083008,
        19.529359817504883,
        1.2659893035888672
      ],
      "children": [
        26
      ]
    },
    {
      "name": "Object-1",
      "mesh": 19,
      "rotation": [
        0,
        0,
        0,
        1
      ],
      "scale": [
        1,
        1,
        1
      ],
      "translation": [
        -20,
        -20,
        -20
      ]
    },
    {
      "name": "1",
      "mesh": 20,
      "rotation": [
        0,
        0,
        0,
        1
      ],
      "scale": [
        1,
        1,
        1
      ],
      "translation": [
        1.8746681213378906,
        9.324443817138672,
        -18.824783325195312
      ]
    },
    {
      "name": "1",
      "mesh": 21,
      "rotation": [
        0,
        0,
        0,
        1
      ],
      "scale": [
        1,
        1,
        1
      ],
      "translation": [
        17.190187454223633,
        10.73215103149414,
        -18.824783325195312
      ]
    },
    {
      "name": "1（5）",
      "mesh": 22,
      "rotation": [
        0,
        0,
        0,
        1
      ],
      "scale": [
        1,
        1,
        1
      ],
      "translation": [
        -7.6513214111328125,
        -1.8973655700683594,
        -18.66446304321289
      ]
    },
    {
      "name": "1（4）",
      "mesh": 23,
      "rotation": [
        0,
        0,
        0,
        1
      ],
      "scale": [
        1,
        1,
        1
      ],
      "translation": [
        -1.5334510803222656,
        -7.242170333862305,
        -18.66446304321289
      ]
    },
    {
      "name": "1（4）",
      "mesh": 24,
      "rotation": [
        0,
        0,
        0,
        1
      ],
      "scale": [
        1,
        1,
        1
      ],
      "translation": [
        -2.9183006286621094,
        -7.316057205200195,
        -18.66446304321289
      ]
    },
    {
      "name": "1（4）",
      "mesh": 25,
      "rotation": [
        0,
        0,
        0,
        1
      ],
      "scale": [
        1,
        1,
        1
      ],
      "translation": [
        -4.273590087890625,
        -7.280689239501953,
        -18.66446304321289
      ]
    },
    {
      "name": "1（3）",
      "mesh": 26,
      "rotation": [
        0,
        0,
        0,
        1
      ],
      "scale": [
        1,
        1,
        1
      ],
      "translation": [
        10.998126983642578,
        -16.857704162597656,
        -18.66446304321289
      ]
    },
    {
      "name": "1（2）",
      "mesh": 27,
      "rotation": [
        0,
        0,
        0,
        1
      ],
      "scale": [
        1,
        1,
        1
      ],
      "translation": [
        21.913833618164062,
        -6.900642395019531,
        -18.66446304321289
      ]
    },
    {
      "name": "钟表",
      "mesh": 28,
      "rotation": [
        0,
        0,
        0,
        1
      ],
      "scale": [
        1,
        1,
        1
      ],
      "translation": [
        -10,
        0,
        -20
      ]
    }
  ],
  "samplers": [
    {
      "wrapS": 33071,
      "wrapT": 33071,
      "magFilter": 9728,
      "minFilter": 9728
    }
  ],
  "scene": 0,
  "scenes": [
    {
      "nodes": [
        0
      ]
    }
  ],
  "textures": [
    {
      "name": "texture",
      "sampler": 0,
      "source": 0
    },
    {
      "name": "emissive texture",
      "sampler": 0,
      "source": 1
    }
  ]
}