{
  "asset": {
    "generator": "ArenaPro Web VCode Exporter",
    "version": "2.0"
  },
  "extensionsUsed": [
    "KHR_materials_unlit"
  ],
  "accessors": [
    {
      "name": "positions_0",
      "componentType": 5126,
      "count": 780,
      "type": "VEC3",
      "bufferView": 0,
      "byteOffset": 0,
      "min": [
        0,
        0,
        0
      ],
      "max": [
        108,
        3,
        12
      ]
    },
    {
      "name": "texcoords_0",
      "componentType": 5126,
      "count": 780,
      "type": "VEC2",
      "bufferView": 1,
      "byteOffset": 0,
      "min": [
        0.00909090909090909,
        0.022727272727272728
      ],
      "max": [
        0.990909090909091,
        0.9772727272727273
      ]
    },
    {
      "name": "indices_0",
      "componentType": 5123,
      "count": 1170,
      "type": "SCALAR",
      "bufferView": 2,
      "byteOffset": 0,
      "min": [
        0
      ],
      "max": [
        779
      ]
    },
    {
      "name": "positions_1",
      "componentType": 5126,
      "count": 780,
      "type": "VEC3",
      "bufferView": 3,
      "byteOffset": 0,
      "min": [
        0,
        0,
        0
      ],
      "max": [
        108,
        3,
        12
      ]
    },
    {
      "name": "texcoords_1",
      "componentType": 5126,
      "count": 780,
      "type": "VEC2",
      "bufferView": 4,
      "byteOffset": 0,
      "min": [
        0.00909090909090909,
        0.022727272727272728
      ],
      "max": [
        0.990909090909091,
        0.9772727272727273
      ]
    },
    {
      "name": "indices_1",
      "componentType": 5123,
      "count": 1170,
      "type": "SCALAR",
      "bufferView": 5,
      "byteOffset": 0,
      "min": [
        0
      ],
      "max": [
        779
      ]
    }
  ],
  "bufferViews": [
    {
      "name": "bufferView_positions_0",
      "buffer": 0,
      "byteLength": 9360,
      "byteOffset": 0,
      "byteStride": 12,
      "target": 34962
    },
    {
      "name": "bufferView_texcoords_0",
      "buffer": 0,
      "byteLength": 6240,
      "byteOffset": 9360,
      "byteStride": 8,
      "target": 34962
    },
    {
      "name": "bufferView_indices_0",
      "buffer": 0,
      "byteLength": 2340,
      "byteOffset": 15600,
      "target": 34963
    },
    {
      "name": "bufferView_positions_1",
      "buffer": 0,
      "byteLength": 9360,
      "byteOffset": 17940,
      "byteStride": 12,
      "target": 34962
    },
    {
      "name": "bufferView_texcoords_1",
      "buffer": 0,
      "byteLength": 6240,
      "byteOffset": 27300,
      "byteStride": 8,
      "target": 34962
    },
    {
      "name": "bufferView_indices_1",
      "buffer": 0,
      "byteLength": 2340,
      "byteOffset": 33540,
      "target": 34963
    },
    {
      "name": "bufferView_image",
      "buffer": 0,
      "byteLength": 1420,
      "byteOffset": 35880
    },
    {
      "name": "bufferView_emissive_image",
      "buffer": 0,
      "byteLength": 549,
      "byteOffset": 37300
    }
  ],
  "buffers": [
    {
      "name": "zamSWvxH4ezFKNmylYM9LTfH5gFbMUuQsxGkxoiTm2c",
      "byteLength": 37852,
      "uri": "data:application/octet-stream;base64,"
    }
  ],
  "images": [
    {
      "name": "image",
      "mimeType": "image/png",
      "bufferView": 6
    },
    {
      "name": "emissive image",
      "mimeType": "image/png",
      "bufferView": 7
    }
  ],
  "materials": [
    {
      "name": "material",
      "pbrMetallicRoughness": {
        "baseColorTexture": {
          "index": 0
        },
        "baseColorFactor": [
          1,
          1,
          1,
          1
        ],
        "metallicFactor": 0,
        "roughnessFactor": 1
      },
      "emissiveTexture": {
        "index": 1
      },
      "emissiveFactor": [
        0,
        0,
        0
      ],
      "alphaMode": "OPAQUE",
      "doubleSided": true,
      "extensions": {
        "KHR_materials_unlit": {}
      }
    }
  ],
  "meshes": [
    {
      "name": "mesh_0",
      "primitives": [
        {
          "attributes": {
            "POSITION": 0,
            "TEXCOORD_0": 1
          },
          "indices": 2,
          "material": 0,
          "mode": 4
        }
      ]
    },
    {
      "name": "mesh_1",
      "primitives": [
        {
          "attributes": {
            "POSITION": 3,
            "TEXCOORD_0": 4
          },
          "indices": 5,
          "material": 0,
          "mode": 4
        }
      ]
    }
  ],
  "nodes": [
    {
      "name": "Root",
      "rotation": [
        0,
        0,
        0,
        1
      ],
      "scale": [
        1,
        1,
        1
      ],
      "translation": [
        0,
        0,
        0
      ],
      "children": [
        1,
        2
      ]
    },
    {
      "name": "Root",
      "rotation": [
        0,
        0,
        0,
        1
      ],
      "scale": [
        1,
        1,
        1
      ],
      "translation": [
        0,
        0,
        0
      ]
    },
    {
      "name": "Root",
      "rotation": [
        0,
        0,
        0,
        1
      ],
      "scale": [
        1,
        1,
        1
      ],
      "translation": [
        0,
        0,
        0
      ],
      "children": [
        3
      ]
    },
    {
      "name": "振晶刀主体",
      "rotation": [
        0,
        0,
        0,
        1
      ],
      "scale": [
        1,
        1,
        1
      ],
      "translation": [
        54,
        23.531314849853516,
        2.968686580657959
      ],
      "children": [
        4,
        5
      ]
    },
    {
      "name": "Object",
      "mesh": 0,
      "rotation": [
        0.7071067690849304,
        0,
        0,
        0.7071067690849304
      ],
      "scale": [
        1,
        0.9999997615814209,
        0.9999997615814209
      ],
      "translation": [
        -54,
        5.999998092651367,
        -2.968686819076538
      ]
    },
    {
      "name": "Object",
      "mesh": 1,
      "rotation": [
        0.7071067690849304,
        0,
        0,
        0.7071067690849304
      ],
      "scale": [
        1,
        0.9999997615814209,
        0.9999997615814209
      ],
      "translation": [
        -54,
        5.999998092651367,
        -0.03131294250488281
      ]
    }
  ],
  "samplers": [
    {
      "wrapS": 33071,
      "wrapT": 33071,
      "magFilter": 9728,
      "minFilter": 9728
    }
  ],
  "scene": 0,
  "scenes": [
    {
      "nodes": [
        0
      ]
    }
  ],
  "textures": [
    {
      "name": "texture",
      "sampler": 0,
      "source": 0
    },
    {
      "name": "emissive texture",
      "sampler": 0,
      "source": 1
    }
  ]
}