{
  "asset": {
    "generator": "ArenaPro Web VCode Exporter",
    "version": "2.0"
  },
  "extensionsUsed": [
    "KHR_materials_unlit"
  ],
  "accessors": [
    {
      "name": "positions_0",
      "componentType": 5126,
      "count": 120,
      "type": "VEC3",
      "bufferView": 0,
      "byteOffset": 0,
      "min": [
        0,
        17,
        17
      ],
      "max": [
        40,
        23,
        23
      ]
    },
    {
      "name": "texcoords_0",
      "componentType": 5126,
      "count": 120,
      "type": "VEC2",
      "bufferView": 1,
      "byteOffset": 0,
      "min": [
        0.8181818181818182,
        0.8288288288288288
      ],
      "max": [
        0.8272727272727273,
        0.8378378378378378
      ]
    },
    {
      "name": "indices_0",
      "componentType": 5121,
      "count": 180,
      "type": "SCALAR",
      "bufferView": 2,
      "byteOffset": 0,
      "min": [
        0
      ],
      "max": [
        119
      ]
    },
    {
      "name": "positions_1",
      "componentType": 5126,
      "count": 1808,
      "type": "VEC3",
      "bufferView": 3,
      "byteOffset": 0,
      "min": [
        14,
        0,
        14
      ],
      "max": [
        26,
        40,
        26
      ]
    },
    {
      "name": "texcoords_1",
      "componentType": 5126,
      "count": 1808,
      "type": "VEC2",
      "bufferView": 4,
      "byteOffset": 0,
      "min": [
        0.06363636363636363,
        0.9819819819819819
      ],
      "max": [
        0.1,
        0.990990990990991
      ]
    },
    {
      "name": "indices_1",
      "componentType": 5123,
      "count": 2712,
      "type": "SCALAR",
      "bufferView": 5,
      "byteOffset": 0,
      "min": [
        0
      ],
      "max": [
        1807
      ]
    },
    {
      "name": "positions_2",
      "componentType": 5126,
      "count": 304,
      "type": "VEC3",
      "bufferView": 6,
      "byteOffset": 0,
      "min": [
        19,
        6,
        0
      ],
      "max": [
        32,
        39,
        1
      ]
    },
    {
      "name": "texcoords_2",
      "componentType": 5126,
      "count": 304,
      "type": "VEC2",
      "bufferView": 7,
      "byteOffset": 0,
      "min": [
        0.03636363636363636,
        0.13513513513513514
      ],
      "max": [
        0.9818181818181818,
        0.990990990990991
      ]
    },
    {
      "name": "indices_2",
      "componentType": 5123,
      "count": 456,
      "type": "SCALAR",
      "bufferView": 8,
      "byteOffset": 0,
      "min": [
        0
      ],
      "max": [
        303
      ]
    },
    {
      "name": "positions_3",
      "componentType": 5126,
      "count": 304,
      "type": "VEC3",
      "bufferView": 9,
      "byteOffset": 0,
      "min": [
        19,
        6,
        0
      ],
      "max": [
        32,
        39,
        1
      ]
    },
    {
      "name": "texcoords_3",
      "componentType": 5126,
      "count": 304,
      "type": "VEC2",
      "bufferView": 10,
      "byteOffset": 0,
      "min": [
        0.03636363636363636,
        0.13513513513513514
      ],
      "max": [
        0.9818181818181818,
        0.990990990990991
      ]
    },
    {
      "name": "indices_3",
      "componentType": 5123,
      "count": 456,
      "type": "SCALAR",
      "bufferView": 11,
      "byteOffset": 0,
      "min": [
        0
      ],
      "max": [
        303
      ]
    },
    {
      "name": "positions_4",
      "componentType": 5126,
      "count": 304,
      "type": "VEC3",
      "bufferView": 12,
      "byteOffset": 0,
      "min": [
        19,
        6,
        0
      ],
      "max": [
        32,
        39,
        1
      ]
    },
    {
      "name": "texcoords_4",
      "componentType": 5126,
      "count": 304,
      "type": "VEC2",
      "bufferView": 13,
      "byteOffset": 0,
      "min": [
        0.03636363636363636,
        0.13513513513513514
      ],
      "max": [
        0.9818181818181818,
        0.990990990990991
      ]
    },
    {
      "name": "indices_4",
      "componentType": 5123,
      "count": 456,
      "type": "SCALAR",
      "bufferView": 14,
      "byteOffset": 0,
      "min": [
        0
      ],
      "max": [
        303
      ]
    },
    {
      "name": "positions_5",
      "componentType": 5126,
      "count": 304,
      "type": "VEC3",
      "bufferView": 15,
      "byteOffset": 0,
      "min": [
        19,
        6,
        0
      ],
      "max": [
        32,
        39,
        1
      ]
    },
    {
      "name": "texcoords_5",
      "componentType": 5126,
      "count": 304,
      "type": "VEC2",
      "bufferView": 16,
      "byteOffset": 0,
      "min": [
        0.03636363636363636,
        0.13513513513513514
      ],
      "max": [
        0.9818181818181818,
        0.990990990990991
      ]
    },
    {
      "name": "indices_5",
      "componentType": 5123,
      "count": 456,
      "type": "SCALAR",
      "bufferView": 17,
      "byteOffset": 0,
      "min": [
        0
      ],
      "max": [
        303
      ]
    },
    {
      "name": "positions_6",
      "componentType": 5126,
      "count": 1600,
      "type": "VEC3",
      "bufferView": 18,
      "byteOffset": 0,
      "min": [
        2,
        10,
        2
      ],
      "max": [
        38,
        40,
        38
      ]
    },
    {
      "name": "texcoords_6",
      "componentType": 5126,
      "count": 1600,
      "type": "VEC2",
      "bufferView": 19,
      "byteOffset": 0,
      "min": [
        0.03636363636363636,
        0.7927927927927928
      ],
      "max": [
        0.9818181818181818,
        0.990990990990991
      ]
    },
    {
      "name": "indices_6",
      "componentType": 5123,
      "count": 2400,
      "type": "SCALAR",
      "bufferView": 20,
      "byteOffset": 0,
      "min": [
        0
      ],
      "max": [
        1599
      ]
    },
    {
      "name": "positions_7",
      "componentType": 5126,
      "count": 312,
      "type": "VEC3",
      "bufferView": 21,
      "byteOffset": 0,
      "min": [
        28,
        17,
        16
      ],
      "max": [
        40,
        23,
        22
      ]
    },
    {
      "name": "texcoords_7",
      "componentType": 5126,
      "count": 312,
      "type": "VEC2",
      "bufferView": 22,
      "byteOffset": 0,
      "min": [
        0.03636363636363636,
        0.8288288288288288
      ],
      "max": [
        0.8272727272727273,
        0.990990990990991
      ]
    },
    {
      "name": "indices_7",
      "componentType": 5123,
      "count": 468,
      "type": "SCALAR",
      "bufferView": 23,
      "byteOffset": 0,
      "min": [
        0
      ],
      "max": [
        311
      ]
    },
    {
      "name": "positions_8",
      "componentType": 5126,
      "count": 312,
      "type": "VEC3",
      "bufferView": 24,
      "byteOffset": 0,
      "min": [
        0,
        17,
        16
      ],
      "max": [
        12,
        23,
        22
      ]
    },
    {
      "name": "texcoords_8",
      "componentType": 5126,
      "count": 312,
      "type": "VEC2",
      "bufferView": 25,
      "byteOffset": 0,
      "min": [
        0.03636363636363636,
        0.8288288288288288
      ],
      "max": [
        0.8272727272727273,
        0.990990990990991
      ]
    },
    {
      "name": "indices_8",
      "componentType": 5123,
      "count": 468,
      "type": "SCALAR",
      "bufferView": 26,
      "byteOffset": 0,
      "min": [
        0
      ],
      "max": [
        311
      ]
    },
    {
      "name": "positions_9",
      "componentType": 5126,
      "count": 1096,
      "type": "VEC3",
      "bufferView": 27,
      "byteOffset": 0,
      "min": [
        6,
        0,
        0
      ],
      "max": [
        34,
        40,
        1
      ]
    },
    {
      "name": "texcoords_9",
      "componentType": 5126,
      "count": 1096,
      "type": "VEC2",
      "bufferView": 28,
      "byteOffset": 0,
      "min": [
        0.00909090909090909,
        0.009009009009009009
      ],
      "max": [
        0.990909090909091,
        0.990990990990991
      ]
    },
    {
      "name": "indices_9",
      "componentType": 5123,
      "count": 1644,
      "type": "SCALAR",
      "bufferView": 29,
      "byteOffset": 0,
      "min": [
        0
      ],
      "max": [
        1095
      ]
    },
    {
      "name": "positions_10",
      "componentType": 5126,
      "count": 1364,
      "type": "VEC3",
      "bufferView": 30,
      "byteOffset": 0,
      "min": [
        2,
        0,
        0
      ],
      "max": [
        39,
        40,
        2
      ]
    },
    {
      "name": "texcoords_10",
      "componentType": 5126,
      "count": 1364,
      "type": "VEC2",
      "bufferView": 31,
      "byteOffset": 0,
      "min": [
        0.00909090909090909,
        0.009009009009009009
      ],
      "max": [
        0.990909090909091,
        0.963963963963964
      ]
    },
    {
      "name": "indices_10",
      "componentType": 5123,
      "count": 2046,
      "type": "SCALAR",
      "bufferView": 32,
      "byteOffset": 0,
      "min": [
        0
      ],
      "max": [
        1363
      ]
    },
    {
      "name": "positions_11",
      "componentType": 5126,
      "count": 1112,
      "type": "VEC3",
      "bufferView": 33,
      "byteOffset": 0,
      "min": [
        0,
        0,
        0
      ],
      "max": [
        40,
        40,
        3
      ]
    },
    {
      "name": "texcoords_11",
      "componentType": 5126,
      "count": 1112,
      "type": "VEC2",
      "bufferView": 34,
      "byteOffset": 0,
      "min": [
        0.00909090909090909,
        0.009009009009009009
      ],
      "max": [
        0.990909090909091,
        0.918918918918919
      ]
    },
    {
      "name": "indices_11",
      "componentType": 5123,
      "count": 1668,
      "type": "SCALAR",
      "bufferView": 35,
      "byteOffset": 0,
      "min": [
        0
      ],
      "max": [
        1111
      ]
    },
    {
      "name": "positions_12",
      "componentType": 5126,
      "count": 712,
      "type": "VEC3",
      "bufferView": 36,
      "byteOffset": 0,
      "min": [
        0,
        15,
        0
      ],
      "max": [
        40,
        30,
        1
      ]
    },
    {
      "name": "texcoords_12",
      "componentType": 5126,
      "count": 712,
      "type": "VEC2",
      "bufferView": 37,
      "byteOffset": 0,
      "min": [
        0.5545454545454546,
        0.009009009009009009
      ],
      "max": [
        0.9818181818181818,
        0.9459459459459459
      ]
    },
    {
      "name": "indices_12",
      "componentType": 5123,
      "count": 1068,
      "type": "SCALAR",
      "bufferView": 38,
      "byteOffset": 0,
      "min": [
        0
      ],
      "max": [
        711
      ]
    },
    {
      "name": "positions_13",
      "componentType": 5126,
      "count": 712,
      "type": "VEC3",
      "bufferView": 39,
      "byteOffset": 0,
      "min": [
        0,
        15,
        0
      ],
      "max": [
        40,
        30,
        1
      ]
    },
    {
      "name": "texcoords_13",
      "componentType": 5126,
      "count": 712,
      "type": "VEC2",
      "bufferView": 40,
      "byteOffset": 0,
      "min": [
        0.5545454545454546,
        0.009009009009009009
      ],
      "max": [
        0.9818181818181818,
        0.9459459459459459
      ]
    },
    {
      "name": "indices_13",
      "componentType": 5123,
      "count": 1068,
      "type": "SCALAR",
      "bufferView": 41,
      "byteOffset": 0,
      "min": [
        0
      ],
      "max": [
        711
      ]
    },
    {
      "name": "positions_14",
      "componentType": 5126,
      "count": 208,
      "type": "VEC3",
      "bufferView": 42,
      "byteOffset": 0,
      "min": [
        16,
        0,
        0
      ],
      "max": [
        24,
        40,
        1
      ]
    },
    {
      "name": "texcoords_14",
      "componentType": 5126,
      "count": 208,
      "type": "VEC2",
      "bufferView": 43,
      "byteOffset": 0,
      "min": [
        0.39090909090909093,
        0.009009009009009009
      ],
      "max": [
        0.990909090909091,
        0.8378378378378378
      ]
    },
    {
      "name": "indices_14",
      "componentType": 5121,
      "count": 312,
      "type": "SCALAR",
      "bufferView": 44,
      "byteOffset": 0,
      "min": [
        0
      ],
      "max": [
        207
      ]
    },
    {
      "name": "positions_15",
      "componentType": 5126,
      "count": 208,
      "type": "VEC3",
      "bufferView": 45,
      "byteOffset": 0,
      "min": [
        16,
        0,
        0
      ],
      "max": [
        24,
        40,
        1
      ]
    },
    {
      "name": "texcoords_15",
      "componentType": 5126,
      "count": 208,
      "type": "VEC2",
      "bufferView": 46,
      "byteOffset": 0,
      "min": [
        0.39090909090909093,
        0.009009009009009009
      ],
      "max": [
        0.990909090909091,
        0.8378378378378378
      ]
    },
    {
      "name": "indices_15",
      "componentType": 5121,
      "count": 312,
      "type": "SCALAR",
      "bufferView": 47,
      "byteOffset": 0,
      "min": [
        0
      ],
      "max": [
        207
      ]
    },
    {
      "name": "positions_16",
      "componentType": 5126,
      "count": 664,
      "type": "VEC3",
      "bufferView": 48,
      "byteOffset": 0,
      "min": [
        0,
        11,
        0
      ],
      "max": [
        40,
        27,
        1
      ]
    },
    {
      "name": "texcoords_16",
      "componentType": 5126,
      "count": 664,
      "type": "VEC2",
      "bufferView": 49,
      "byteOffset": 0,
      "min": [
        0.5363636363636364,
        0.05405405405405406
      ],
      "max": [
        0.9818181818181818,
        0.9459459459459459
      ]
    },
    {
      "name": "indices_16",
      "componentType": 5123,
      "count": 996,
      "type": "SCALAR",
      "bufferView": 50,
      "byteOffset": 0,
      "min": [
        0
      ],
      "max": [
        663
      ]
    },
    {
      "name": "positions_17",
      "componentType": 5126,
      "count": 568,
      "type": "VEC3",
      "bufferView": 51,
      "byteOffset": 0,
      "min": [
        0,
        0,
        0
      ],
      "max": [
        40,
        27,
        1
      ]
    },
    {
      "name": "texcoords_17",
      "componentType": 5126,
      "count": 568,
      "type": "VEC2",
      "bufferView": 52,
      "byteOffset": 0,
      "min": [
        0.00909090909090909,
        0.009009009009009009
      ],
      "max": [
        0.9818181818181818,
        0.963963963963964
      ]
    },
    {
      "name": "indices_17",
      "componentType": 5123,
      "count": 852,
      "type": "SCALAR",
      "bufferView": 53,
      "byteOffset": 0,
      "min": [
        0
      ],
      "max": [
        567
      ]
    },
    {
      "name": "positions_18",
      "componentType": 5126,
      "count": 24,
      "type": "VEC3",
      "bufferView": 54,
      "byteOffset": 0,
      "min": [
        0,
        0,
        0
      ],
      "max": [
        40,
        40,
        1
      ]
    },
    {
      "name": "texcoords_18",
      "componentType": 5126,
      "count": 24,
      "type": "VEC2",
      "bufferView": 55,
      "byteOffset": 0,
      "min": [
        0.00909090909090909,
        0.009009009009009009
      ],
      "max": [
        0.8272727272727273,
        0.8378378378378378
      ]
    },
    {
      "name": "indices_18",
      "componentType": 5121,
      "count": 36,
      "type": "SCALAR",
      "bufferView": 56,
      "byteOffset": 0,
      "min": [
        0
      ],
      "max": [
        23
      ]
    },
    {
      "name": "positions_19",
      "componentType": 5126,
      "count": 360,
      "type": "VEC3",
      "bufferView": 57,
      "byteOffset": 0,
      "min": [
        0,
        8,
        7
      ],
      "max": [
        40,
        32,
        31
      ]
    },
    {
      "name": "texcoords_19",
      "componentType": 5126,
      "count": 360,
      "type": "VEC2",
      "bufferView": 58,
      "byteOffset": 0,
      "min": [
        0.7,
        0.7027027027027027
      ],
      "max": [
        0.7090909090909091,
        0.7117117117117117
      ]
    },
    {
      "name": "indices_19",
      "componentType": 5123,
      "count": 540,
      "type": "SCALAR",
      "bufferView": 59,
      "byteOffset": 0,
      "min": [
        0
      ],
      "max": [
        359
      ]
    },
    {
      "name": "positions_20",
      "componentType": 5126,
      "count": 360,
      "type": "VEC3",
      "bufferView": 60,
      "byteOffset": 0,
      "min": [
        8,
        0,
        9
      ],
      "max": [
        32,
        40,
        33
      ]
    },
    {
      "name": "texcoords_20",
      "componentType": 5126,
      "count": 360,
      "type": "VEC2",
      "bufferView": 61,
      "byteOffset": 0,
      "min": [
        0.7,
        0.7027027027027027
      ],
      "max": [
        0.7090909090909091,
        0.7117117117117117
      ]
    },
    {
      "name": "indices_20",
      "componentType": 5123,
      "count": 540,
      "type": "SCALAR",
      "bufferView": 62,
      "byteOffset": 0,
      "min": [
        0
      ],
      "max": [
        359
      ]
    }
  ],
  "bufferViews": [
    {
      "name": "bufferView_positions_0",
      "buffer": 0,
      "byteLength": 1440,
      "byteOffset": 0,
      "byteStride": 12,
      "target": 34962
    },
    {
      "name": "bufferView_texcoords_0",
      "buffer": 0,
      "byteLength": 960,
      "byteOffset": 1440,
      "byteStride": 8,
      "target": 34962
    },
    {
      "name": "bufferView_indices_0",
      "buffer": 0,
      "byteLength": 180,
      "byteOffset": 2400,
      "target": 34963
    },
    {
      "name": "bufferView_positions_1",
      "buffer": 0,
      "byteLength": 21696,
      "byteOffset": 2580,
      "byteStride": 12,
      "target": 34962
    },
    {
      "name": "bufferView_texcoords_1",
      "buffer": 0,
      "byteLength": 14464,
      "byteOffset": 24276,
      "byteStride": 8,
      "target": 34962
    },
    {
      "name": "bufferView_indices_1",
      "buffer": 0,
      "byteLength": 5424,
      "byteOffset": 38740,
      "target": 34963
    },
    {
      "name": "bufferView_positions_2",
      "buffer": 0,
      "byteLength": 3648,
      "byteOffset": 44164,
      "byteStride": 12,
      "target": 34962
    },
    {
      "name": "bufferView_texcoords_2",
      "buffer": 0,
      "byteLength": 2432,
      "byteOffset": 47812,
      "byteStride": 8,
      "target": 34962
    },
    {
      "name": "bufferView_indices_2",
      "buffer": 0,
      "byteLength": 912,
      "byteOffset": 50244,
      "target": 34963
    },
    {
      "name": "bufferView_positions_3",
      "buffer": 0,
      "byteLength": 3648,
      "byteOffset": 51156,
      "byteStride": 12,
      "target": 34962
    },
    {
      "name": "bufferView_texcoords_3",
      "buffer": 0,
      "byteLength": 2432,
      "byteOffset": 54804,
      "byteStride": 8,
      "target": 34962
    },
    {
      "name": "bufferView_indices_3",
      "buffer": 0,
      "byteLength": 912,
      "byteOffset": 57236,
      "target": 34963
    },
    {
      "name": "bufferView_positions_4",
      "buffer": 0,
      "byteLength": 3648,
      "byteOffset": 58148,
      "byteStride": 12,
      "target": 34962
    },
    {
      "name": "bufferView_texcoords_4",
      "buffer": 0,
      "byteLength": 2432,
      "byteOffset": 61796,
      "byteStride": 8,
      "target": 34962
    },
    {
      "name": "bufferView_indices_4",
      "buffer": 0,
      "byteLength": 912,
      "byteOffset": 64228,
      "target": 34963
    },
    {
      "name": "bufferView_positions_5",
      "buffer": 0,
      "byteLength": 3648,
      "byteOffset": 65140,
      "byteStride": 12,
      "target": 34962
    },
    {
      "name": "bufferView_texcoords_5",
      "buffer": 0,
      "byteLength": 2432,
      "byteOffset": 68788,
      "byteStride": 8,
      "target": 34962
    },
    {
      "name": "bufferView_indices_5",
      "buffer": 0,
      "byteLength": 912,
      "byteOffset": 71220,
      "target": 34963
    },
    {
      "name": "bufferView_positions_6",
      "buffer": 0,
      "byteLength": 19200,
      "byteOffset": 72132,
      "byteStride": 12,
      "target": 34962
    },
    {
      "name": "bufferView_texcoords_6",
      "buffer": 0,
      "byteLength": 12800,
      "byteOffset": 91332,
      "byteStride": 8,
      "target": 34962
    },
    {
      "name": "bufferView_indices_6",
      "buffer": 0,
      "byteLength": 4800,
      "byteOffset": 104132,
      "target": 34963
    },
    {
      "name": "bufferView_positions_7",
      "buffer": 0,
      "byteLength": 3744,
      "byteOffset": 108932,
      "byteStride": 12,
      "target": 34962
    },
    {
      "name": "bufferView_texcoords_7",
      "buffer": 0,
      "byteLength": 2496,
      "byteOffset": 112676,
      "byteStride": 8,
      "target": 34962
    },
    {
      "name": "bufferView_indices_7",
      "buffer": 0,
      "byteLength": 936,
      "byteOffset": 115172,
      "target": 34963
    },
    {
      "name": "bufferView_positions_8",
      "buffer": 0,
      "byteLength": 3744,
      "byteOffset": 116108,
      "byteStride": 12,
      "target": 34962
    },
    {
      "name": "bufferView_texcoords_8",
      "buffer": 0,
      "byteLength": 2496,
      "byteOffset": 119852,
      "byteStride": 8,
      "target": 34962
    },
    {
      "name": "bufferView_indices_8",
      "buffer": 0,
      "byteLength": 936,
      "byteOffset": 122348,
      "target": 34963
    },
    {
      "name": "bufferView_positions_9",
      "buffer": 0,
      "byteLength": 13152,
      "byteOffset": 123284,
      "byteStride": 12,
      "target": 34962
    },
    {
      "name": "bufferView_texcoords_9",
      "buffer": 0,
      "byteLength": 8768,
      "byteOffset": 136436,
      "byteStride": 8,
      "target": 34962
    },
    {
      "name": "bufferView_indices_9",
      "buffer": 0,
      "byteLength": 3288,
      "byteOffset": 145204,
      "target": 34963
    },
    {
      "name": "bufferView_positions_10",
      "buffer": 0,
      "byteLength": 16368,
      "byteOffset": 148492,
      "byteStride": 12,
      "target": 34962
    },
    {
      "name": "bufferView_texcoords_10",
      "buffer": 0,
      "byteLength": 10912,
      "byteOffset": 164860,
      "byteStride": 8,
      "target": 34962
    },
    {
      "name": "bufferView_indices_10",
      "buffer": 0,
      "byteLength": 4092,
      "byteOffset": 175772,
      "target": 34963
    },
    {
      "name": "bufferView_positions_11",
      "buffer": 0,
      "byteLength": 13344,
      "byteOffset": 179864,
      "byteStride": 12,
      "target": 34962
    },
    {
      "name": "bufferView_texcoords_11",
      "buffer": 0,
      "byteLength": 8896,
      "byteOffset": 193208,
      "byteStride": 8,
      "target": 34962
    },
    {
      "name": "bufferView_indices_11",
      "buffer": 0,
      "byteLength": 3336,
      "byteOffset": 202104,
      "target": 34963
    },
    {
      "name": "bufferView_positions_12",
      "buffer": 0,
      "byteLength": 8544,
      "byteOffset": 205440,
      "byteStride": 12,
      "target": 34962
    },
    {
      "name": "bufferView_texcoords_12",
      "buffer": 0,
      "byteLength": 5696,
      "byteOffset": 213984,
      "byteStride": 8,
      "target": 34962
    },
    {
      "name": "bufferView_indices_12",
      "buffer": 0,
      "byteLength": 2136,
      "byteOffset": 219680,
      "target": 34963
    },
    {
      "name": "bufferView_positions_13",
      "buffer": 0,
      "byteLength": 8544,
      "byteOffset": 221816,
      "byteStride": 12,
      "target": 34962
    },
    {
      "name": "bufferView_texcoords_13",
      "buffer": 0,
      "byteLength": 5696,
      "byteOffset": 230360,
      "byteStride": 8,
      "target": 34962
    },
    {
      "name": "bufferView_indices_13",
      "buffer": 0,
      "byteLength": 2136,
      "byteOffset": 236056,
      "target": 34963
    },
    {
      "name": "bufferView_positions_14",
      "buffer": 0,
      "byteLength": 2496,
      "byteOffset": 238192,
      "byteStride": 12,
      "target": 34962
    },
    {
      "name": "bufferView_texcoords_14",
      "buffer": 0,
      "byteLength": 1664,
      "byteOffset": 240688,
      "byteStride": 8,
      "target": 34962
    },
    {
      "name": "bufferView_indices_14",
      "buffer": 0,
      "byteLength": 312,
      "byteOffset": 242352,
      "target": 34963
    },
    {
      "name": "bufferView_positions_15",
      "buffer": 0,
      "byteLength": 2496,
      "byteOffset": 242664,
      "byteStride": 12,
      "target": 34962
    },
    {
      "name": "bufferView_texcoords_15",
      "buffer": 0,
      "byteLength": 1664,
      "byteOffset": 245160,
      "byteStride": 8,
      "target": 34962
    },
    {
      "name": "bufferView_indices_15",
      "buffer": 0,
      "byteLength": 312,
      "byteOffset": 246824,
      "target": 34963
    },
    {
      "name": "bufferView_positions_16",
      "buffer": 0,
      "byteLength": 7968,
      "byteOffset": 247136,
      "byteStride": 12,
      "target": 34962
    },
    {
      "name": "bufferView_texcoords_16",
      "buffer": 0,
      "byteLength": 5312,
      "byteOffset": 255104,
      "byteStride": 8,
      "target": 34962
    },
    {
      "name": "bufferView_indices_16",
      "buffer": 0,
      "byteLength": 1992,
      "byteOffset": 260416,
      "target": 34963
    },
    {
      "name": "bufferView_positions_17",
      "buffer": 0,
      "byteLength": 6816,
      "byteOffset": 262408,
      "byteStride": 12,
      "target": 34962
    },
    {
      "name": "bufferView_texcoords_17",
      "buffer": 0,
      "byteLength": 4544,
      "byteOffset": 269224,
      "byteStride": 8,
      "target": 34962
    },
    {
      "name": "bufferView_indices_17",
      "buffer": 0,
      "byteLength": 1704,
      "byteOffset": 273768,
      "target": 34963
    },
    {
      "name": "bufferView_positions_18",
      "buffer": 0,
      "byteLength": 288,
      "byteOffset": 275472,
      "byteStride": 12,
      "target": 34962
    },
    {
      "name": "bufferView_texcoords_18",
      "buffer": 0,
      "byteLength": 192,
      "byteOffset": 275760,
      "byteStride": 8,
      "target": 34962
    },
    {
      "name": "bufferView_indices_18",
      "buffer": 0,
      "byteLength": 36,
      "byteOffset": 275952,
      "target": 34963
    },
    {
      "name": "bufferView_positions_19",
      "buffer": 0,
      "byteLength": 4320,
      "byteOffset": 275988,
      "byteStride": 12,
      "target": 34962
    },
    {
      "name": "bufferView_texcoords_19",
      "buffer": 0,
      "byteLength": 2880,
      "byteOffset": 280308,
      "byteStride": 8,
      "target": 34962
    },
    {
      "name": "bufferView_indices_19",
      "buffer": 0,
      "byteLength": 1080,
      "byteOffset": 283188,
      "target": 34963
    },
    {
      "name": "bufferView_positions_20",
      "buffer": 0,
      "byteLength": 4320,
      "byteOffset": 284268,
      "byteStride": 12,
      "target": 34962
    },
    {
      "name": "bufferView_texcoords_20",
      "buffer": 0,
      "byteLength": 2880,
      "byteOffset": 288588,
      "byteStride": 8,
      "target": 34962
    },
    {
      "name": "bufferView_indices_20",
      "buffer": 0,
      "byteLength": 1080,
      "byteOffset": 291468,
      "target": 34963
    },
    {
      "name": "bufferView_image",
      "buffer": 0,
      "byteLength": 5278,
      "byteOffset": 292548
    },
    {
      "name": "bufferView_emissive_image",
      "buffer": 0,
      "byteLength": 2765,
      "byteOffset": 297826
    }
  ],
  "buffers": [
    {
      "name": "LYNc23TdyRf3fJb9ezZPsBkXYTKQk7p7W1-uOOvOOr4",
      "byteLength": 300592,
      "uri": "data:application/octet-stream;base64,"
    }
  ],
  "images": [
    {
      "name": "image",
      "mimeType": "image/png",
      "bufferView": 63
    },
    {
      "name": "emissive image",
      "mimeType": "image/png",
      "bufferView": 64
    }
  ],
  "materials": [
    {
      "name": "material",
      "pbrMetallicRoughness": {
        "baseColorTexture": {
          "index": 0
        },
        "baseColorFactor": [
          1,
          1,
          1,
          1
        ],
        "metallicFactor": 0,
        "roughnessFactor": 1
      },
      "emissiveTexture": {
        "index": 1
      },
      "emissiveFactor": [
        0,
        0,
        0
      ],
      "alphaMode": "OPAQUE",
      "doubleSided": true,
      "extensions": {
        "KHR_materials_unlit": {}
      }
    }
  ],
  "meshes": [
    {
      "name": "mesh_0",
      "primitives": [
        {
          "attributes": {
            "POSITION": 0,
            "TEXCOORD_0": 1
          },
          "indices": 2,
          "material": 0,
          "mode": 4
        }
      ]
    },
    {
      "name": "mesh_1",
      "primitives": [
        {
          "attributes": {
            "POSITION": 3,
            "TEXCOORD_0": 4
          },
          "indices": 5,
          "material": 0,
          "mode": 4
        }
      ]
    },
    {
      "name": "mesh_2",
      "primitives": [
        {
          "attributes": {
            "POSITION": 6,
            "TEXCOORD_0": 7
          },
          "indices": 8,
          "material": 0,
          "mode": 4
        }
      ]
    },
    {
      "name": "mesh_3",
      "primitives": [
        {
          "attributes": {
            "POSITION": 9,
            "TEXCOORD_0": 10
          },
          "indices": 11,
          "material": 0,
          "mode": 4
        }
      ]
    },
    {
      "name": "mesh_4",
      "primitives": [
        {
          "attributes": {
            "POSITION": 12,
            "TEXCOORD_0": 13
          },
          "indices": 14,
          "material": 0,
          "mode": 4
        }
      ]
    },
    {
      "name": "mesh_5",
      "primitives": [
        {
          "attributes": {
            "POSITION": 15,
            "TEXCOORD_0": 16
          },
          "indices": 17,
          "material": 0,
          "mode": 4
        }
      ]
    },
    {
      "name": "mesh_6",
      "primitives": [
        {
          "attributes": {
            "POSITION": 18,
            "TEXCOORD_0": 19
          },
          "indices": 20,
          "material": 0,
          "mode": 4
        }
      ]
    },
    {
      "name": "mesh_7",
      "primitives": [
        {
          "attributes": {
            "POSITION": 21,
            "TEXCOORD_0": 22
          },
          "indices": 23,
          "material": 0,
          "mode": 4
        }
      ]
    },
    {
      "name": "mesh_8",
      "primitives": [
        {
          "attributes": {
            "POSITION": 24,
            "TEXCOORD_0": 25
          },
          "indices": 26,
          "material": 0,
          "mode": 4
        }
      ]
    },
    {
      "name": "mesh_9",
      "primitives": [
        {
          "attributes": {
            "POSITION": 27,
            "TEXCOORD_0": 28
          },
          "indices": 29,
          "material": 0,
          "mode": 4
        }
      ]
    },
    {
      "name": "mesh_10",
      "primitives": [
        {
          "attributes": {
            "POSITION": 30,
            "TEXCOORD_0": 31
          },
          "indices": 32,
          "material": 0,
          "mode": 4
        }
      ]
    },
    {
      "name": "mesh_11",
      "primitives": [
        {
          "attributes": {
            "POSITION": 33,
            "TEXCOORD_0": 34
          },
          "indices": 35,
          "material": 0,
          "mode": 4
        }
      ]
    },
    {
      "name": "mesh_12",
      "primitives": [
        {
          "attributes": {
            "POSITION": 36,
            "TEXCOORD_0": 37
          },
          "indices": 38,
          "material": 0,
          "mode": 4
        }
      ]
    },
    {
      "name": "mesh_13",
      "primitives": [
        {
          "attributes": {
            "POSITION": 39,
            "TEXCOORD_0": 40
          },
          "indices": 41,
          "material": 0,
          "mode": 4
        }
      ]
    },
    {
      "name": "mesh_14",
      "primitives": [
        {
          "attributes": {
            "POSITION": 42,
            "TEXCOORD_0": 43
          },
          "indices": 44,
          "material": 0,
          "mode": 4
        }
      ]
    },
    {
      "name": "mesh_15",
      "primitives": [
        {
          "attributes": {
            "POSITION": 45,
            "TEXCOORD_0": 46
          },
          "indices": 47,
          "material": 0,
          "mode": 4
        }
      ]
    },
    {
      "name": "mesh_16",
      "primitives": [
        {
          "attributes": {
            "POSITION": 48,
            "TEXCOORD_0": 49
          },
          "indices": 50,
          "material": 0,
          "mode": 4
        }
      ]
    },
    {
      "name": "mesh_17",
      "primitives": [
        {
          "attributes": {
            "POSITION": 51,
            "TEXCOORD_0": 52
          },
          "indices": 53,
          "material": 0,
          "mode": 4
        }
      ]
    },
    {
      "name": "mesh_18",
      "primitives": [
        {
          "attributes": {
            "POSITION": 54,
            "TEXCOORD_0": 55
          },
          "indices": 56,
          "material": 0,
          "mode": 4
        }
      ]
    },
    {
      "name": "mesh_19",
      "primitives": [
        {
          "attributes": {
            "POSITION": 57,
            "TEXCOORD_0": 58
          },
          "indices": 59,
          "material": 0,
          "mode": 4
        }
      ]
    },
    {
      "name": "mesh_20",
      "primitives": [
        {
          "attributes": {
            "POSITION": 60,
            "TEXCOORD_0": 61
          },
          "indices": 62,
          "material": 0,
          "mode": 4
        }
      ]
    }
  ],
  "nodes": [
    {
      "name": "Root",
      "rotation": [
        0,
        0,
        0,
        1
      ],
      "scale": [
        1,
        1,
        1
      ],
      "translation": [
        0,
        0,
        0
      ],
      "children": [
        1,
        2
      ]
    },
    {
      "name": "Root",
      "rotation": [
        0,
        0,
        0,
        1
      ],
      "scale": [
        1,
        1,
        1
      ],
      "translation": [
        0,
        0,
        0
      ]
    },
    {
      "name": "Root",
      "rotation": [
        0,
        0,
        0,
        1
      ],
      "scale": [
        1,
        1,
        1
      ],
      "translation": [
        0,
        0,
        0
      ],
      "children": [
        3,
        4,
        5,
        6,
        7,
        8,
        9,
        10,
        11,
        12,
        13,
        14,
        15,
        16,
        17,
        18,
        19,
        20,
        21,
        22,
        23
      ]
    },
    {
      "name": "Object-14",
      "mesh": 0,
      "rotation": [
        0,
        0.019991306588053703,
        0,
        0.9998001456260681
      ],
      "scale": [
        1.3380333185195923,
        1.2808406352996826,
        1.280841588973999
      ],
      "translation": [
        26.048503875732422,
        137.39617919921875,
        -19.670896530151367
      ]
    },
    {
      "name": "Object-12",
      "mesh": 1,
      "rotation": [
        -0.1147281676530838,
        -0.01781293749809265,
        -0.06148780509829521,
        0.9913321137428284
      ],
      "scale": [
        1.0000014305114746,
        1,
        1.0000011920928955
      ],
      "translation": [
        8.437093734741211,
        124.94638061523438,
        0.9107666015625
      ]
    },
    {
      "name": "Object-11",
      "mesh": 2,
      "rotation": [
        0.0008241432951763272,
        -0.0040832082740962505,
        -0.1978449523448944,
        0.9802244901657104
      ],
      "scale": [
        0.9999997615814209,
        1.0000004768371582,
        0.9999999403953552
      ],
      "translation": [
        55.090797424316406,
        129.55145263671875,
        3.913290023803711
      ]
    },
    {
      "name": "Object-11",
      "mesh": 3,
      "rotation": [
        0.001416485640220344,
        -0.0039173392578959465,
        -0.34004905819892883,
        0.9403984546661377
      ],
      "scale": [
        1.0000001192092896,
        0.9999999403953552,
        1.0000008344650269
      ],
      "translation": [
        -18.44269371032715,
        146.298583984375,
        5.524969100952148
      ]
    },
    {
      "name": "Object-11",
      "mesh": 4,
      "rotation": [
        0.00043215975165367126,
        -0.004143001511693001,
        -0.10374734550714493,
        0.9945949912071228
      ],
      "scale": [
        1.000000238418579,
        1.0000001192092896,
        1.000000238418579
      ],
      "translation": [
        -8.970235824584961,
        129.56736755371094,
        5.603891372680664
      ]
    },
    {
      "name": "Object-11",
      "mesh": 5,
      "rotation": [
        0,
        -0.004165574908256531,
        0,
        0.9999912977218628
      ],
      "scale": [
        1.0000004768371582,
        1,
        1.0000004768371582
      ],
      "translation": [
        70.70228576660156,
        123.71539306640625,
        6.267679214477539
      ]
    },
    {
      "name": "Object-10",
      "mesh": 6,
      "rotation": [
        0,
        -0.004165534861385822,
        0,
        0.9999912977218628
      ],
      "scale": [
        0.20002008974552155,
        0.47539007663726807,
        0.17072896659374237
      ],
      "translation": [
        48.69780731201172,
        -4.753898620605469,
        1.530710220336914
      ]
    },
    {
      "name": "Object-9",
      "mesh": 7,
      "rotation": [
        0,
        -0.00416551623493433,
        0,
        0.9999912977218628
      ],
      "scale": [
        0.6965700387954712,
        1.532743215560913,
        1.5327434539794922
      ],
      "translation": [
        -11.791925430297852,
        131.20623779296875,
        -22.326095581054688
      ]
    },
    {
      "name": "Object-9",
      "mesh": 8,
      "rotation": [
        0,
        -0.004165520891547203,
        0,
        0.9999912977218628
      ],
      "scale": [
        0.6965699791908264,
        1.532743215560913,
        1.532743215560913
      ],
      "translation": [
        91.0066909790039,
        131.61700439453125,
        -24.112016677856445
      ]
    },
    {
      "name": "Object-8",
      "mesh": 9,
      "rotation": [
        0,
        0.014352039434015751,
        0,
        0.9998970031738281
      ],
      "scale": [
        1.1936192512512207,
        0.4997487962245941,
        1.000001072883606
      ],
      "translation": [
        29.597675323486328,
        168.70712280273438,
        6.292934417724609
      ]
    },
    {
      "name": "Object-7",
      "mesh": 10,
      "rotation": [
        0,
        0.9999730587005615,
        0,
        -0.00733906077221036
      ],
      "scale": [
        0.6109955906867981,
        0.6109947562217712,
        0.6109955906867981
      ],
      "translation": [
        63.25836181640625,
        90.40973663330078,
        10.158880233764648
      ]
    },
    {
      "name": "Object-6",
      "mesh": 11,
      "rotation": [
        0,
        0.01385006308555603,
        0,
        0.9999040961265564
      ],
      "scale": [
        0.48180192708969116,
        0.4818018078804016,
        0.48180192708969116
      ],
      "translation": [
        44.025840759277344,
        159.46636962890625,
        10.186986923217773
      ]
    },
    {
      "name": "Object-5",
      "mesh": 12,
      "rotation": [
        0,
        0.013850003480911255,
        0,
        0.9999040961265564
      ],
      "scale": [
        1.231065273284912,
        1.2776265144348145,
        1.0000007152557373
      ],
      "translation": [
        29.08382225036621,
        126.65519714355469,
        9.731040954589844
      ]
    },
    {
      "name": "Object-5",
      "mesh": 13,
      "rotation": [
        0,
        0.013850003480911255,
        0,
        0.9999040961265564
      ],
      "scale": [
        1.231065273284912,
        1.2776265144348145,
        1.0000007152557373
      ],
      "translation": [
        27.621912002563477,
        126.65519714355469,
        2.0863494873046875
      ]
    },
    {
      "name": "Object-4",
      "mesh": 14,
      "rotation": [
        0.0005376159097068012,
        0.010878044180572033,
        -0.03016720898449421,
        0.9994855523109436
      ],
      "scale": [
        1.0000029802322388,
        2.7215652465820312,
        1.0000017881393433
      ],
      "translation": [
        3.3581409454345703,
        55.46699523925781,
        8.405721664428711
      ]
    },
    {
      "name": "Object-4",
      "mesh": 15,
      "rotation": [
        -0.010756652802228928,
        0.01191260851919651,
        0.030538409948349,
        0.9994047284126282
      ],
      "scale": [
        1.0000028610229492,
        2.7215654850006104,
        1.0000009536743164
      ],
      "translation": [
        62.823509216308594,
        53.15174865722656,
        9.562431335449219
      ]
    },
    {
      "name": "Object-3",
      "mesh": 16,
      "rotation": [
        0,
        0.01384999230504036,
        0,
        0.9999040961265564
      ],
      "scale": [
        1.7478516101837158,
        1.59521484375,
        1.461786150932312
      ],
      "translation": [
        18.833810806274414,
        131.29586791992188,
        5.696483612060547
      ]
    },
    {
      "name": "Object-2",
      "mesh": 17,
      "rotation": [
        0,
        0.01233480591326952,
        0,
        0.9999239444732666
      ],
      "scale": [
        1.0000054836273193,
        1,
        1.0000054836273193
      ],
      "translation": [
        32.95700454711914,
        60.21385955810547,
        8.650323867797852
      ]
    },
    {
      "name": "Object-1",
      "mesh": 18,
      "rotation": [
        0,
        0.012334829196333885,
        0,
        0.9999239444732666
      ],
      "scale": [
        1.000006079673767,
        2.04840087890625,
        1.000006079673767
      ],
      "translation": [
        32.88536834716797,
        80.99893188476562,
        9.289495468139648
      ]
    },
    {
      "name": "Object",
      "mesh": 19,
      "rotation": [
        0,
        0.012334815226495266,
        0,
        0.9999239444732666
      ],
      "scale": [
        1.9820339679718018,
        0.19892069697380066,
        0.22607596218585968
      ],
      "translation": [
        14.759843826293945,
        158.00637817382812,
        2.118061065673828
      ]
    },
    {
      "name": "Object",
      "mesh": 20,
      "rotation": [
        0,
        0.01233490277081728,
        0,
        0.9999239444732666
      ],
      "scale": [
        0.18291309475898743,
        3.7309937477111816,
        0.22607575356960297
      ],
      "translation": [
        49.12461853027344,
        13.772300720214844,
        1.3081302642822266
      ]
    }
  ],
  "samplers": [
    {
      "wrapS": 33071,
      "wrapT": 33071,
      "magFilter": 9728,
      "minFilter": 9728
    }
  ],
  "scene": 0,
  "scenes": [
    {
      "nodes": [
        0
      ]
    }
  ],
  "textures": [
    {
      "name": "texture",
      "sampler": 0,
      "source": 0
    },
    {
      "name": "emissive texture",
      "sampler": 0,
      "source": 1
    }
  ]
}