{
  "asset": {
    "generator": "ArenaPro Web VCode Exporter",
    "version": "2.0"
  },
  "extensionsUsed": [
    "KHR_materials_unlit"
  ],
  "accessors": [
    {
      "name": "positions_0",
      "componentType": 5126,
      "count": 168,
      "type": "VEC3",
      "bufferView": 0,
      "byteOffset": 0,
      "min": [
        0,
        0,
        0
      ],
      "max": [
        7,
        20,
        1
      ]
    },
    {
      "name": "texcoords_0",
      "componentType": 5126,
      "count": 168,
      "type": "VEC2",
      "bufferView": 1,
      "byteOffset": 0,
      "min": [
        0.2641509433962264,
        0.34545454545454546
      ],
      "max": [
        0.9811320754716981,
        0.9272727272727272
      ]
    },
    {
      "name": "indices_0",
      "componentType": 5121,
      "count": 252,
      "type": "SCALAR",
      "bufferView": 2,
      "byteOffset": 0,
      "min": [
        0
      ],
      "max": [
        167
      ]
    },
    {
      "name": "positions_1",
      "componentType": 5126,
      "count": 1064,
      "type": "VEC3",
      "bufferView": 3,
      "byteOffset": 0,
      "min": [
        0,
        0,
        0
      ],
      "max": [
        41,
        1,
        41
      ]
    },
    {
      "name": "texcoords_1",
      "componentType": 5126,
      "count": 1064,
      "type": "VEC2",
      "bufferView": 4,
      "byteOffset": 0,
      "min": [
        0.018867924528301886,
        0.01818181818181818
      ],
      "max": [
        0.9811320754716981,
        0.9818181818181818
      ]
    },
    {
      "name": "indices_1",
      "componentType": 5123,
      "count": 1596,
      "type": "SCALAR",
      "bufferView": 5,
      "byteOffset": 0,
      "min": [
        0
      ],
      "max": [
        1063
      ]
    },
    {
      "name": "positions_2",
      "componentType": 5126,
      "count": 40,
      "type": "VEC3",
      "bufferView": 6,
      "byteOffset": 0,
      "min": [
        0,
        0,
        0
      ],
      "max": [
        2,
        2,
        1
      ]
    },
    {
      "name": "texcoords_2",
      "componentType": 5126,
      "count": 40,
      "type": "VEC2",
      "bufferView": 7,
      "byteOffset": 0,
      "min": [
        0.41509433962264153,
        0.9636363636363636
      ],
      "max": [
        0.4339622641509434,
        0.9818181818181818
      ]
    },
    {
      "name": "indices_2",
      "componentType": 5121,
      "count": 60,
      "type": "SCALAR",
      "bufferView": 8,
      "byteOffset": 0,
      "min": [
        0
      ],
      "max": [
        39
      ]
    },
    {
      "name": "positions_3",
      "componentType": 5126,
      "count": 40,
      "type": "VEC3",
      "bufferView": 9,
      "byteOffset": 0,
      "min": [
        0,
        0,
        0
      ],
      "max": [
        2,
        2,
        1
      ]
    },
    {
      "name": "texcoords_3",
      "componentType": 5126,
      "count": 40,
      "type": "VEC2",
      "bufferView": 10,
      "byteOffset": 0,
      "min": [
        0.41509433962264153,
        0.9636363636363636
      ],
      "max": [
        0.4339622641509434,
        0.9818181818181818
      ]
    },
    {
      "name": "indices_3",
      "componentType": 5121,
      "count": 60,
      "type": "SCALAR",
      "bufferView": 11,
      "byteOffset": 0,
      "min": [
        0
      ],
      "max": [
        39
      ]
    },
    {
      "name": "positions_4",
      "componentType": 5126,
      "count": 40,
      "type": "VEC3",
      "bufferView": 12,
      "byteOffset": 0,
      "min": [
        0,
        0,
        0
      ],
      "max": [
        2,
        2,
        1
      ]
    },
    {
      "name": "texcoords_4",
      "componentType": 5126,
      "count": 40,
      "type": "VEC2",
      "bufferView": 13,
      "byteOffset": 0,
      "min": [
        0.41509433962264153,
        0.9636363636363636
      ],
      "max": [
        0.4339622641509434,
        0.9818181818181818
      ]
    },
    {
      "name": "indices_4",
      "componentType": 5121,
      "count": 60,
      "type": "SCALAR",
      "bufferView": 14,
      "byteOffset": 0,
      "min": [
        0
      ],
      "max": [
        39
      ]
    },
    {
      "name": "positions_5",
      "componentType": 5126,
      "count": 40,
      "type": "VEC3",
      "bufferView": 15,
      "byteOffset": 0,
      "min": [
        0,
        0,
        0
      ],
      "max": [
        2,
        2,
        1
      ]
    },
    {
      "name": "texcoords_5",
      "componentType": 5126,
      "count": 40,
      "type": "VEC2",
      "bufferView": 16,
      "byteOffset": 0,
      "min": [
        0.41509433962264153,
        0.9636363636363636
      ],
      "max": [
        0.4339622641509434,
        0.9818181818181818
      ]
    },
    {
      "name": "indices_5",
      "componentType": 5121,
      "count": 60,
      "type": "SCALAR",
      "bufferView": 17,
      "byteOffset": 0,
      "min": [
        0
      ],
      "max": [
        39
      ]
    },
    {
      "name": "positions_6",
      "componentType": 5126,
      "count": 24,
      "type": "VEC3",
      "bufferView": 18,
      "byteOffset": 0,
      "min": [
        0,
        0,
        0
      ],
      "max": [
        1,
        2,
        1
      ]
    },
    {
      "name": "texcoords_6",
      "componentType": 5126,
      "count": 24,
      "type": "VEC2",
      "bufferView": 19,
      "byteOffset": 0,
      "min": [
        0.41509433962264153,
        0.9636363636363636
      ],
      "max": [
        0.4339622641509434,
        0.9818181818181818
      ]
    },
    {
      "name": "indices_6",
      "componentType": 5121,
      "count": 36,
      "type": "SCALAR",
      "bufferView": 20,
      "byteOffset": 0,
      "min": [
        0
      ],
      "max": [
        23
      ]
    },
    {
      "name": "positions_7",
      "componentType": 5126,
      "count": 248,
      "type": "VEC3",
      "bufferView": 21,
      "byteOffset": 0,
      "min": [
        16,
        0,
        0
      ],
      "max": [
        27,
        1,
        25
      ]
    },
    {
      "name": "texcoords_7",
      "componentType": 5126,
      "count": 248,
      "type": "VEC2",
      "bufferView": 22,
      "byteOffset": 0,
      "min": [
        0.018867924528301886,
        0.01818181818181818
      ],
      "max": [
        0.9811320754716981,
        0.9818181818181818
      ]
    },
    {
      "name": "indices_7",
      "componentType": 5121,
      "count": 372,
      "type": "SCALAR",
      "bufferView": 23,
      "byteOffset": 0,
      "min": [
        0
      ],
      "max": [
        247
      ]
    },
    {
      "name": "positions_8",
      "componentType": 5126,
      "count": 232,
      "type": "VEC3",
      "bufferView": 24,
      "byteOffset": 0,
      "min": [
        4,
        0,
        1
      ],
      "max": [
        16,
        1,
        25
      ]
    },
    {
      "name": "texcoords_8",
      "componentType": 5126,
      "count": 232,
      "type": "VEC2",
      "bufferView": 25,
      "byteOffset": 0,
      "min": [
        0.018867924528301886,
        0.01818181818181818
      ],
      "max": [
        0.9811320754716981,
        0.9818181818181818
      ]
    },
    {
      "name": "indices_8",
      "componentType": 5121,
      "count": 348,
      "type": "SCALAR",
      "bufferView": 26,
      "byteOffset": 0,
      "min": [
        0
      ],
      "max": [
        231
      ]
    },
    {
      "name": "positions_9",
      "componentType": 5126,
      "count": 248,
      "type": "VEC3",
      "bufferView": 27,
      "byteOffset": 0,
      "min": [
        16,
        0,
        0
      ],
      "max": [
        27,
        1,
        25
      ]
    },
    {
      "name": "texcoords_9",
      "componentType": 5126,
      "count": 248,
      "type": "VEC2",
      "bufferView": 28,
      "byteOffset": 0,
      "min": [
        0.018867924528301886,
        0.01818181818181818
      ],
      "max": [
        0.9811320754716981,
        0.9818181818181818
      ]
    },
    {
      "name": "indices_9",
      "componentType": 5121,
      "count": 372,
      "type": "SCALAR",
      "bufferView": 29,
      "byteOffset": 0,
      "min": [
        0
      ],
      "max": [
        247
      ]
    },
    {
      "name": "positions_10",
      "componentType": 5126,
      "count": 232,
      "type": "VEC3",
      "bufferView": 30,
      "byteOffset": 0,
      "min": [
        4,
        0,
        1
      ],
      "max": [
        16,
        1,
        25
      ]
    },
    {
      "name": "texcoords_10",
      "componentType": 5126,
      "count": 232,
      "type": "VEC2",
      "bufferView": 31,
      "byteOffset": 0,
      "min": [
        0.018867924528301886,
        0.01818181818181818
      ],
      "max": [
        0.9811320754716981,
        0.9818181818181818
      ]
    },
    {
      "name": "indices_10",
      "componentType": 5121,
      "count": 348,
      "type": "SCALAR",
      "bufferView": 32,
      "byteOffset": 0,
      "min": [
        0
      ],
      "max": [
        231
      ]
    },
    {
      "name": "positions_11",
      "componentType": 5126,
      "count": 248,
      "type": "VEC3",
      "bufferView": 33,
      "byteOffset": 0,
      "min": [
        16,
        0,
        0
      ],
      "max": [
        27,
        1,
        25
      ]
    },
    {
      "name": "texcoords_11",
      "componentType": 5126,
      "count": 248,
      "type": "VEC2",
      "bufferView": 34,
      "byteOffset": 0,
      "min": [
        0.018867924528301886,
        0.01818181818181818
      ],
      "max": [
        0.9811320754716981,
        0.9818181818181818
      ]
    },
    {
      "name": "indices_11",
      "componentType": 5121,
      "count": 372,
      "type": "SCALAR",
      "bufferView": 35,
      "byteOffset": 0,
      "min": [
        0
      ],
      "max": [
        247
      ]
    },
    {
      "name": "positions_12",
      "componentType": 5126,
      "count": 232,
      "type": "VEC3",
      "bufferView": 36,
      "byteOffset": 0,
      "min": [
        4,
        0,
        1
      ],
      "max": [
        16,
        1,
        25
      ]
    },
    {
      "name": "texcoords_12",
      "componentType": 5126,
      "count": 232,
      "type": "VEC2",
      "bufferView": 37,
      "byteOffset": 0,
      "min": [
        0.018867924528301886,
        0.01818181818181818
      ],
      "max": [
        0.9811320754716981,
        0.9818181818181818
      ]
    },
    {
      "name": "indices_12",
      "componentType": 5121,
      "count": 348,
      "type": "SCALAR",
      "bufferView": 38,
      "byteOffset": 0,
      "min": [
        0
      ],
      "max": [
        231
      ]
    },
    {
      "name": "positions_13",
      "componentType": 5126,
      "count": 248,
      "type": "VEC3",
      "bufferView": 39,
      "byteOffset": 0,
      "min": [
        16,
        0,
        0
      ],
      "max": [
        27,
        1,
        25
      ]
    },
    {
      "name": "texcoords_13",
      "componentType": 5126,
      "count": 248,
      "type": "VEC2",
      "bufferView": 40,
      "byteOffset": 0,
      "min": [
        0.018867924528301886,
        0.01818181818181818
      ],
      "max": [
        0.9811320754716981,
        0.9818181818181818
      ]
    },
    {
      "name": "indices_13",
      "componentType": 5121,
      "count": 372,
      "type": "SCALAR",
      "bufferView": 41,
      "byteOffset": 0,
      "min": [
        0
      ],
      "max": [
        247
      ]
    },
    {
      "name": "positions_14",
      "componentType": 5126,
      "count": 232,
      "type": "VEC3",
      "bufferView": 42,
      "byteOffset": 0,
      "min": [
        4,
        0,
        1
      ],
      "max": [
        16,
        1,
        25
      ]
    },
    {
      "name": "texcoords_14",
      "componentType": 5126,
      "count": 232,
      "type": "VEC2",
      "bufferView": 43,
      "byteOffset": 0,
      "min": [
        0.018867924528301886,
        0.18181818181818182
      ],
      "max": [
        0.9811320754716981,
        0.9818181818181818
      ]
    },
    {
      "name": "indices_14",
      "componentType": 5121,
      "count": 348,
      "type": "SCALAR",
      "bufferView": 44,
      "byteOffset": 0,
      "min": [
        0
      ],
      "max": [
        231
      ]
    },
    {
      "name": "positions_15",
      "componentType": 5126,
      "count": 248,
      "type": "VEC3",
      "bufferView": 45,
      "byteOffset": 0,
      "min": [
        16,
        0,
        0
      ],
      "max": [
        27,
        1,
        25
      ]
    },
    {
      "name": "texcoords_15",
      "componentType": 5126,
      "count": 248,
      "type": "VEC2",
      "bufferView": 46,
      "byteOffset": 0,
      "min": [
        0.018867924528301886,
        0.01818181818181818
      ],
      "max": [
        0.9811320754716981,
        0.9818181818181818
      ]
    },
    {
      "name": "indices_15",
      "componentType": 5121,
      "count": 372,
      "type": "SCALAR",
      "bufferView": 47,
      "byteOffset": 0,
      "min": [
        0
      ],
      "max": [
        247
      ]
    },
    {
      "name": "positions_16",
      "componentType": 5126,
      "count": 232,
      "type": "VEC3",
      "bufferView": 48,
      "byteOffset": 0,
      "min": [
        4,
        0,
        1
      ],
      "max": [
        16,
        1,
        25
      ]
    },
    {
      "name": "texcoords_16",
      "componentType": 5126,
      "count": 232,
      "type": "VEC2",
      "bufferView": 49,
      "byteOffset": 0,
      "min": [
        0.018867924528301886,
        0.01818181818181818
      ],
      "max": [
        0.9811320754716981,
        0.9818181818181818
      ]
    },
    {
      "name": "indices_16",
      "componentType": 5121,
      "count": 348,
      "type": "SCALAR",
      "bufferView": 50,
      "byteOffset": 0,
      "min": [
        0
      ],
      "max": [
        231
      ]
    },
    {
      "name": "positions_17",
      "componentType": 5126,
      "count": 144,
      "type": "VEC3",
      "bufferView": 51,
      "byteOffset": 0,
      "min": [
        0,
        0,
        0
      ],
      "max": [
        7,
        3,
        7
      ]
    },
    {
      "name": "texcoords_17",
      "componentType": 5126,
      "count": 144,
      "type": "VEC2",
      "bufferView": 52,
      "byteOffset": 0,
      "min": [
        0.24528301886792453,
        0.9636363636363636
      ],
      "max": [
        0.2641509433962264,
        0.9818181818181818
      ]
    },
    {
      "name": "indices_17",
      "componentType": 5121,
      "count": 216,
      "type": "SCALAR",
      "bufferView": 53,
      "byteOffset": 0,
      "min": [
        0
      ],
      "max": [
        143
      ]
    }
  ],
  "bufferViews": [
    {
      "name": "bufferView_positions_0",
      "buffer": 0,
      "byteLength": 2016,
      "byteOffset": 0,
      "byteStride": 12,
      "target": 34962
    },
    {
      "name": "bufferView_texcoords_0",
      "buffer": 0,
      "byteLength": 1344,
      "byteOffset": 2016,
      "byteStride": 8,
      "target": 34962
    },
    {
      "name": "bufferView_indices_0",
      "buffer": 0,
      "byteLength": 252,
      "byteOffset": 3360,
      "target": 34963
    },
    {
      "name": "bufferView_positions_1",
      "buffer": 0,
      "byteLength": 12768,
      "byteOffset": 3612,
      "byteStride": 12,
      "target": 34962
    },
    {
      "name": "bufferView_texcoords_1",
      "buffer": 0,
      "byteLength": 8512,
      "byteOffset": 16380,
      "byteStride": 8,
      "target": 34962
    },
    {
      "name": "bufferView_indices_1",
      "buffer": 0,
      "byteLength": 3192,
      "byteOffset": 24892,
      "target": 34963
    },
    {
      "name": "bufferView_positions_2",
      "buffer": 0,
      "byteLength": 480,
      "byteOffset": 28084,
      "byteStride": 12,
      "target": 34962
    },
    {
      "name": "bufferView_texcoords_2",
      "buffer": 0,
      "byteLength": 320,
      "byteOffset": 28564,
      "byteStride": 8,
      "target": 34962
    },
    {
      "name": "bufferView_indices_2",
      "buffer": 0,
      "byteLength": 60,
      "byteOffset": 28884,
      "target": 34963
    },
    {
      "name": "bufferView_positions_3",
      "buffer": 0,
      "byteLength": 480,
      "byteOffset": 28944,
      "byteStride": 12,
      "target": 34962
    },
    {
      "name": "bufferView_texcoords_3",
      "buffer": 0,
      "byteLength": 320,
      "byteOffset": 29424,
      "byteStride": 8,
      "target": 34962
    },
    {
      "name": "bufferView_indices_3",
      "buffer": 0,
      "byteLength": 60,
      "byteOffset": 29744,
      "target": 34963
    },
    {
      "name": "bufferView_positions_4",
      "buffer": 0,
      "byteLength": 480,
      "byteOffset": 29804,
      "byteStride": 12,
      "target": 34962
    },
    {
      "name": "bufferView_texcoords_4",
      "buffer": 0,
      "byteLength": 320,
      "byteOffset": 30284,
      "byteStride": 8,
      "target": 34962
    },
    {
      "name": "bufferView_indices_4",
      "buffer": 0,
      "byteLength": 60,
      "byteOffset": 30604,
      "target": 34963
    },
    {
      "name": "bufferView_positions_5",
      "buffer": 0,
      "byteLength": 480,
      "byteOffset": 30664,
      "byteStride": 12,
      "target": 34962
    },
    {
      "name": "bufferView_texcoords_5",
      "buffer": 0,
      "byteLength": 320,
      "byteOffset": 31144,
      "byteStride": 8,
      "target": 34962
    },
    {
      "name": "bufferView_indices_5",
      "buffer": 0,
      "byteLength": 60,
      "byteOffset": 31464,
      "target": 34963
    },
    {
      "name": "bufferView_positions_6",
      "buffer": 0,
      "byteLength": 288,
      "byteOffset": 31524,
      "byteStride": 12,
      "target": 34962
    },
    {
      "name": "bufferView_texcoords_6",
      "buffer": 0,
      "byteLength": 192,
      "byteOffset": 31812,
      "byteStride": 8,
      "target": 34962
    },
    {
      "name": "bufferView_indices_6",
      "buffer": 0,
      "byteLength": 36,
      "byteOffset": 32004,
      "target": 34963
    },
    {
      "name": "bufferView_positions_7",
      "buffer": 0,
      "byteLength": 2976,
      "byteOffset": 32040,
      "byteStride": 12,
      "target": 34962
    },
    {
      "name": "bufferView_texcoords_7",
      "buffer": 0,
      "byteLength": 1984,
      "byteOffset": 35016,
      "byteStride": 8,
      "target": 34962
    },
    {
      "name": "bufferView_indices_7",
      "buffer": 0,
      "byteLength": 372,
      "byteOffset": 37000,
      "target": 34963
    },
    {
      "name": "bufferView_positions_8",
      "buffer": 0,
      "byteLength": 2784,
      "byteOffset": 37372,
      "byteStride": 12,
      "target": 34962
    },
    {
      "name": "bufferView_texcoords_8",
      "buffer": 0,
      "byteLength": 1856,
      "byteOffset": 40156,
      "byteStride": 8,
      "target": 34962
    },
    {
      "name": "bufferView_indices_8",
      "buffer": 0,
      "byteLength": 348,
      "byteOffset": 42012,
      "target": 34963
    },
    {
      "name": "bufferView_positions_9",
      "buffer": 0,
      "byteLength": 2976,
      "byteOffset": 42360,
      "byteStride": 12,
      "target": 34962
    },
    {
      "name": "bufferView_texcoords_9",
      "buffer": 0,
      "byteLength": 1984,
      "byteOffset": 45336,
      "byteStride": 8,
      "target": 34962
    },
    {
      "name": "bufferView_indices_9",
      "buffer": 0,
      "byteLength": 372,
      "byteOffset": 47320,
      "target": 34963
    },
    {
      "name": "bufferView_positions_10",
      "buffer": 0,
      "byteLength": 2784,
      "byteOffset": 47692,
      "byteStride": 12,
      "target": 34962
    },
    {
      "name": "bufferView_texcoords_10",
      "buffer": 0,
      "byteLength": 1856,
      "byteOffset": 50476,
      "byteStride": 8,
      "target": 34962
    },
    {
      "name": "bufferView_indices_10",
      "buffer": 0,
      "byteLength": 348,
      "byteOffset": 52332,
      "target": 34963
    },
    {
      "name": "bufferView_positions_11",
      "buffer": 0,
      "byteLength": 2976,
      "byteOffset": 52680,
      "byteStride": 12,
      "target": 34962
    },
    {
      "name": "bufferView_texcoords_11",
      "buffer": 0,
      "byteLength": 1984,
      "byteOffset": 55656,
      "byteStride": 8,
      "target": 34962
    },
    {
      "name": "bufferView_indices_11",
      "buffer": 0,
      "byteLength": 372,
      "byteOffset": 57640,
      "target": 34963
    },
    {
      "name": "bufferView_positions_12",
      "buffer": 0,
      "byteLength": 2784,
      "byteOffset": 58012,
      "byteStride": 12,
      "target": 34962
    },
    {
      "name": "bufferView_texcoords_12",
      "buffer": 0,
      "byteLength": 1856,
      "byteOffset": 60796,
      "byteStride": 8,
      "target": 34962
    },
    {
      "name": "bufferView_indices_12",
      "buffer": 0,
      "byteLength": 348,
      "byteOffset": 62652,
      "target": 34963
    },
    {
      "name": "bufferView_positions_13",
      "buffer": 0,
      "byteLength": 2976,
      "byteOffset": 63000,
      "byteStride": 12,
      "target": 34962
    },
    {
      "name": "bufferView_texcoords_13",
      "buffer": 0,
      "byteLength": 1984,
      "byteOffset": 65976,
      "byteStride": 8,
      "target": 34962
    },
    {
      "name": "bufferView_indices_13",
      "buffer": 0,
      "byteLength": 372,
      "byteOffset": 67960,
      "target": 34963
    },
    {
      "name": "bufferView_positions_14",
      "buffer": 0,
      "byteLength": 2784,
      "byteOffset": 68332,
      "byteStride": 12,
      "target": 34962
    },
    {
      "name": "bufferView_texcoords_14",
      "buffer": 0,
      "byteLength": 1856,
      "byteOffset": 71116,
      "byteStride": 8,
      "target": 34962
    },
    {
      "name": "bufferView_indices_14",
      "buffer": 0,
      "byteLength": 348,
      "byteOffset": 72972,
      "target": 34963
    },
    {
      "name": "bufferView_positions_15",
      "buffer": 0,
      "byteLength": 2976,
      "byteOffset": 73320,
      "byteStride": 12,
      "target": 34962
    },
    {
      "name": "bufferView_texcoords_15",
      "buffer": 0,
      "byteLength": 1984,
      "byteOffset": 76296,
      "byteStride": 8,
      "target": 34962
    },
    {
      "name": "bufferView_indices_15",
      "buffer": 0,
      "byteLength": 372,
      "byteOffset": 78280,
      "target": 34963
    },
    {
      "name": "bufferView_positions_16",
      "buffer": 0,
      "byteLength": 2784,
      "byteOffset": 78652,
      "byteStride": 12,
      "target": 34962
    },
    {
      "name": "bufferView_texcoords_16",
      "buffer": 0,
      "byteLength": 1856,
      "byteOffset": 81436,
      "byteStride": 8,
      "target": 34962
    },
    {
      "name": "bufferView_indices_16",
      "buffer": 0,
      "byteLength": 348,
      "byteOffset": 83292,
      "target": 34963
    },
    {
      "name": "bufferView_positions_17",
      "buffer": 0,
      "byteLength": 1728,
      "byteOffset": 83640,
      "byteStride": 12,
      "target": 34962
    },
    {
      "name": "bufferView_texcoords_17",
      "buffer": 0,
      "byteLength": 1152,
      "byteOffset": 85368,
      "byteStride": 8,
      "target": 34962
    },
    {
      "name": "bufferView_indices_17",
      "buffer": 0,
      "byteLength": 216,
      "byteOffset": 86520,
      "target": 34963
    },
    {
      "name": "bufferView_image",
      "buffer": 0,
      "byteLength": 1834,
      "byteOffset": 86736
    },
    {
      "name": "bufferView_emissive_image",
      "buffer": 0,
      "byteLength": 252,
      "byteOffset": 88570
    }
  ],
  "buffers": [
    {
      "name": "Z2pjlKgU889q2rDmcae0vk-eT6JYVpKMGpOl3C-YBRQ",
      "byteLength": 88824,
      "uri": "data:application/octet-stream;base64,"
    }
  ],
  "images": [
    {
      "name": "image",
      "mimeType": "image/png",
      "bufferView": 54
    },
    {
      "name": "emissive image",
      "mimeType": "image/png",
      "bufferView": 55
    }
  ],
  "materials": [
    {
      "name": "material",
      "pbrMetallicRoughness": {
        "baseColorTexture": {
          "index": 0
        },
        "baseColorFactor": [
          1,
          1,
          1,
          1
        ],
        "metallicFactor": 0,
        "roughnessFactor": 1
      },
      "emissiveTexture": {
        "index": 1
      },
      "emissiveFactor": [
        0,
        0,
        0
      ],
      "alphaMode": "OPAQUE",
      "doubleSided": true,
      "extensions": {
        "KHR_materials_unlit": {}
      }
    }
  ],
  "meshes": [
    {
      "name": "mesh_0",
      "primitives": [
        {
          "attributes": {
            "POSITION": 0,
            "TEXCOORD_0": 1
          },
          "indices": 2,
          "material": 0,
          "mode": 4
        }
      ]
    },
    {
      "name": "mesh_1",
      "primitives": [
        {
          "attributes": {
            "POSITION": 3,
            "TEXCOORD_0": 4
          },
          "indices": 5,
          "material": 0,
          "mode": 4
        }
      ]
    },
    {
      "name": "mesh_2",
      "primitives": [
        {
          "attributes": {
            "POSITION": 6,
            "TEXCOORD_0": 7
          },
          "indices": 8,
          "material": 0,
          "mode": 4
        }
      ]
    },
    {
      "name": "mesh_3",
      "primitives": [
        {
          "attributes": {
            "POSITION": 9,
            "TEXCOORD_0": 10
          },
          "indices": 11,
          "material": 0,
          "mode": 4
        }
      ]
    },
    {
      "name": "mesh_4",
      "primitives": [
        {
          "attributes": {
            "POSITION": 12,
            "TEXCOORD_0": 13
          },
          "indices": 14,
          "material": 0,
          "mode": 4
        }
      ]
    },
    {
      "name": "mesh_5",
      "primitives": [
        {
          "attributes": {
            "POSITION": 15,
            "TEXCOORD_0": 16
          },
          "indices": 17,
          "material": 0,
          "mode": 4
        }
      ]
    },
    {
      "name": "mesh_6",
      "primitives": [
        {
          "attributes": {
            "POSITION": 18,
            "TEXCOORD_0": 19
          },
          "indices": 20,
          "material": 0,
          "mode": 4
        }
      ]
    },
    {
      "name": "mesh_7",
      "primitives": [
        {
          "attributes": {
            "POSITION": 21,
            "TEXCOORD_0": 22
          },
          "indices": 23,
          "material": 0,
          "mode": 4
        }
      ]
    },
    {
      "name": "mesh_8",
      "primitives": [
        {
          "attributes": {
            "POSITION": 24,
            "TEXCOORD_0": 25
          },
          "indices": 26,
          "material": 0,
          "mode": 4
        }
      ]
    },
    {
      "name": "mesh_9",
      "primitives": [
        {
          "attributes": {
            "POSITION": 27,
            "TEXCOORD_0": 28
          },
          "indices": 29,
          "material": 0,
          "mode": 4
        }
      ]
    },
    {
      "name": "mesh_10",
      "primitives": [
        {
          "attributes": {
            "POSITION": 30,
            "TEXCOORD_0": 31
          },
          "indices": 32,
          "material": 0,
          "mode": 4
        }
      ]
    },
    {
      "name": "mesh_11",
      "primitives": [
        {
          "attributes": {
            "POSITION": 33,
            "TEXCOORD_0": 34
          },
          "indices": 35,
          "material": 0,
          "mode": 4
        }
      ]
    },
    {
      "name": "mesh_12",
      "primitives": [
        {
          "attributes": {
            "POSITION": 36,
            "TEXCOORD_0": 37
          },
          "indices": 38,
          "material": 0,
          "mode": 4
        }
      ]
    },
    {
      "name": "mesh_13",
      "primitives": [
        {
          "attributes": {
            "POSITION": 39,
            "TEXCOORD_0": 40
          },
          "indices": 41,
          "material": 0,
          "mode": 4
        }
      ]
    },
    {
      "name": "mesh_14",
      "primitives": [
        {
          "attributes": {
            "POSITION": 42,
            "TEXCOORD_0": 43
          },
          "indices": 44,
          "material": 0,
          "mode": 4
        }
      ]
    },
    {
      "name": "mesh_15",
      "primitives": [
        {
          "attributes": {
            "POSITION": 45,
            "TEXCOORD_0": 46
          },
          "indices": 47,
          "material": 0,
          "mode": 4
        }
      ]
    },
    {
      "name": "mesh_16",
      "primitives": [
        {
          "attributes": {
            "POSITION": 48,
            "TEXCOORD_0": 49
          },
          "indices": 50,
          "material": 0,
          "mode": 4
        }
      ]
    },
    {
      "name": "mesh_17",
      "primitives": [
        {
          "attributes": {
            "POSITION": 51,
            "TEXCOORD_0": 52
          },
          "indices": 53,
          "material": 0,
          "mode": 4
        }
      ]
    }
  ],
  "nodes": [
    {
      "name": "Root",
      "rotation": [
        0,
        0,
        0,
        1
      ],
      "scale": [
        1,
        1,
        1
      ],
      "translation": [
        0,
        0,
        0
      ],
      "children": [
        1,
        2
      ]
    },
    {
      "name": "Root",
      "rotation": [
        0,
        0,
        0,
        1
      ],
      "scale": [
        1,
        1,
        1
      ],
      "translation": [
        0,
        0,
        0
      ]
    },
    {
      "name": "Root",
      "rotation": [
        0,
        0,
        0,
        1
      ],
      "scale": [
        1,
        1,
        1
      ],
      "translation": [
        0,
        0,
        0
      ],
      "children": [
        3,
        4,
        5,
        10,
        11,
        14,
        17,
        20,
        23,
        26
      ]
    },
    {
      "name": "Object-6",
      "mesh": 0,
      "rotation": [
        0,
        0,
        0,
        1
      ],
      "scale": [
        1,
        1,
        1
      ],
      "translation": [
        16.410545349121094,
        26.66584014892578,
        19.994159698486328
      ]
    },
    {
      "name": "Object-5",
      "mesh": 1,
      "rotation": [
        0,
        0,
        0,
        1
      ],
      "scale": [
        1,
        1,
        1
      ],
      "translation": [
        0,
        22.058666229248047,
        0
      ]
    },
    {
      "name": "Group-1",
      "rotation": [
        0,
        0,
        0,
        1
      ],
      "scale": [
        1,
        1,
        1
      ],
      "translation": [
        20.05987548828125,
        17.6821346282959,
        20.625219345092773
      ],
      "children": [
        6,
        7,
        8,
        9
      ]
    },
    {
      "name": "Object-2",
      "mesh": 2,
      "rotation": [
        0,
        0,
        0.39734047651290894,
        0.917671263217926
      ],
      "scale": [
        1,
        1,
        1
      ],
      "translation": [
        0.045014798641204834,
        -1.4134961366653442,
        -0.5
      ]
    },
    {
      "name": "Object-2",
      "mesh": 3,
      "rotation": [
        -0.15246693789958954,
        -0.3521275520324707,
        0.36692386865615845,
        0.8474236726760864
      ],
      "scale": [
        1,
        1,
        1
      ],
      "translation": [
        0.3861033022403717,
        -1.4134962558746338,
        -0.32085826992988586
      ]
    },
    {
      "name": "Object-2",
      "mesh": 4,
      "rotation": [
        -0.28551173210144043,
        -0.6593984961509705,
        0.27633795142173767,
        0.6382115483283997
      ],
      "scale": [
        1,
        1,
        0.9999999403953552
      ],
      "translation": [
        0.49826356768608093,
        -1.4134976863861084,
        0.06131565943360329
      ]
    },
    {
      "name": "Object-2",
      "mesh": 5,
      "rotation": [
        0.37807896733283997,
        0.873185396194458,
        -0.122212715446949,
        -0.2822544574737549
      ],
      "scale": [
        0.9999998807907104,
        0.9999999403953552,
        0.9999997615814209
      ],
      "translation": [
        0.2561679482460022,
        -1.4134979248046875,
        0.4317457377910614
      ]
    },
    {
      "name": "Object-1",
      "mesh": 6,
      "rotation": [
        0,
        0,
        0,
        1
      ],
      "scale": [
        1,
        1,
        1
      ],
      "translation": [
        19.55987548828125,
        18.148292541503906,
        20.1721134185791
      ]
    },
    {
      "name": "Group",
      "rotation": [
        0,
        -0.6584294438362122,
        0,
        0.7526424527168274
      ],
      "scale": [
        1.000000238418579,
        1,
        1.000000238418579
      ],
      "translation": [
        15.590433120727539,
        22.868724822998047,
        15.035820960998535
      ],
      "children": [
        12,
        13
      ]
    },
    {
      "name": "Object",
      "mesh": 7,
      "rotation": [
        0.24990783631801605,
        0.805923581123352,
        -0.1477382779121399,
        0.5159521698951721
      ],
      "scale": [
        0.9999990463256836,
        0.9999996423721313,
        0.9999988675117493
      ],
      "translation": [
        -5.024694919586182,
        2.5226690769195557,
        20.412822723388672
      ]
    },
    {
      "name": "Object",
      "mesh": 8,
      "rotation": [
        0.023517796769738197,
        0.8434537053108215,
        -0.2812929153442383,
        0.4570635259151459
      ],
      "scale": [
        0.9999997019767761,
        0.9999994039535522,
        1.0000003576278687
      ],
      "translation": [
        -1.4602378606796265,
        9.940939903259277,
        18.10483169555664
      ]
    },
    {
      "name": "Group",
      "rotation": [
        0,
        0.9668893218040466,
        0,
        -0.2551960051059723
      ],
      "scale": [
        0.9999997615814209,
        1,
        0.9999997615814209
      ],
      "translation": [
        23.39098358154297,
        22.868724822998047,
        14.298566818237305
      ],
      "children": [
        15,
        16
      ]
    },
    {
      "name": "Object",
      "mesh": 9,
      "rotation": [
        0.24990783631801605,
        0.805923581123352,
        -0.1477382779121399,
        0.5159521698951721
      ],
      "scale": [
        0.9999990463256836,
        0.9999996423721313,
        0.9999988675117493
      ],
      "translation": [
        -5.024694919586182,
        2.5226690769195557,
        20.412822723388672
      ]
    },
    {
      "name": "Object",
      "mesh": 10,
      "rotation": [
        0.023517796769738197,
        0.8434537053108215,
        -0.2812929153442383,
        0.4570635259151459
      ],
      "scale": [
        0.9999997019767761,
        0.9999994039535522,
        1.0000003576278687
      ],
      "translation": [
        -1.4602378606796265,
        9.940939903259277,
        18.10483169555664
      ]
    },
    {
      "name": "Group",
      "rotation": [
        0,
        0.9502452611923218,
        0,
        0.31150272488594055
      ],
      "scale": [
        1,
        1,
        1
      ],
      "translation": [
        27.014524459838867,
        22.868724822998047,
        20.991926193237305
      ],
      "children": [
        18,
        19
      ]
    },
    {
      "name": "Object",
      "mesh": 11,
      "rotation": [
        0.24990783631801605,
        0.805923581123352,
        -0.1477382779121399,
        0.5159521698951721
      ],
      "scale": [
        0.9999990463256836,
        0.9999996423721313,
        0.9999988675117493
      ],
      "translation": [
        -5.024694919586182,
        2.5226690769195557,
        20.412822723388672
      ]
    },
    {
      "name": "Object",
      "mesh": 12,
      "rotation": [
        0.023517796769738197,
        0.8434537053108215,
        -0.2812929153442383,
        0.4570635259151459
      ],
      "scale": [
        0.9999997019767761,
        0.9999994039535522,
        1.0000003576278687
      ],
      "translation": [
        -1.4602378606796265,
        9.940939903259277,
        18.10483169555664
      ]
    },
    {
      "name": "Group",
      "rotation": [
        0,
        0.5612503886222839,
        0,
        0.8276460766792297
      ],
      "scale": [
        1,
        1,
        1
      ],
      "translation": [
        21.26144790649414,
        22.868724822998047,
        27.333698272705078
      ],
      "children": [
        21,
        22
      ]
    },
    {
      "name": "Object",
      "mesh": 13,
      "rotation": [
        0.24990783631801605,
        0.805923581123352,
        -0.1477382779121399,
        0.5159521698951721
      ],
      "scale": [
        0.9999990463256836,
        0.9999996423721313,
        0.9999988675117493
      ],
      "translation": [
        -5.024694919586182,
        2.5226690769195557,
        20.412822723388672
      ]
    },
    {
      "name": "Object",
      "mesh": 14,
      "rotation": [
        0.023517796769738197,
        0.8434537053108215,
        -0.2812929153442383,
        0.4570635259151459
      ],
      "scale": [
        0.9999997019767761,
        0.9999994039535522,
        1.0000003576278687
      ],
      "translation": [
        -1.4602378606796265,
        9.940939903259277,
        18.10483169555664
      ]
    },
    {
      "name": "Group",
      "rotation": [
        0,
        0,
        0,
        1
      ],
      "scale": [
        1,
        1,
        1
      ],
      "translation": [
        14.087159156799316,
        22.868724822998047,
        24.129959106445312
      ],
      "children": [
        24,
        25
      ]
    },
    {
      "name": "Object",
      "mesh": 15,
      "rotation": [
        0.24990783631801605,
        0.805923581123352,
        -0.1477382779121399,
        0.5159521698951721
      ],
      "scale": [
        0.9999990463256836,
        0.9999996423721313,
        0.9999988675117493
      ],
      "translation": [
        -5.024694919586182,
        2.5226690769195557,
        20.412822723388672
      ]
    },
    {
      "name": "Object",
      "mesh": 16,
      "rotation": [
        0.023517796769738197,
        0.8434537053108215,
        -0.2812929153442383,
        0.4570635259151459
      ],
      "scale": [
        0.9999997019767761,
        0.9999994039535522,
        1.0000003576278687
      ],
      "translation": [
        -1.4602378606796265,
        9.940939903259277,
        18.10483169555664
      ]
    },
    {
      "name": "Object-4",
      "mesh": 17,
      "rotation": [
        0,
        0,
        0,
        1
      ],
      "scale": [
        0.6499999761581421,
        0.6499999761581421,
        0.6499999761581421
      ],
      "translation": [
        17.7473201751709,
        20.029983520507812,
        18.225000381469727
      ]
    }
  ],
  "samplers": [
    {
      "wrapS": 33071,
      "wrapT": 33071,
      "magFilter": 9728,
      "minFilter": 9728
    }
  ],
  "scene": 0,
  "scenes": [
    {
      "nodes": [
        0
      ]
    }
  ],
  "textures": [
    {
      "name": "texture",
      "sampler": 0,
      "source": 0
    },
    {
      "name": "emissive texture",
      "sampler": 0,
      "source": 1
    }
  ]
}