{
  "asset": {
    "generator": "ArenaPro Web VCode Exporter",
    "version": "2.0"
  },
  "extensionsUsed": [
    "KHR_materials_unlit"
  ],
  "accessors": [
    {
      "name": "positions_0",
      "componentType": 5126,
      "count": 408,
      "type": "VEC3",
      "bufferView": 0,
      "byteOffset": 0,
      "min": [
        0,
        0,
        3
      ],
      "max": [
        12,
        3,
        30
      ]
    },
    {
      "name": "texcoords_0",
      "componentType": 5126,
      "count": 408,
      "type": "VEC2",
      "bufferView": 1,
      "byteOffset": 0,
      "min": [
        0.24390243902439024,
        0.9545454545454546
      ],
      "max": [
        0.2682926829268293,
        0.9772727272727273
      ]
    },
    {
      "name": "indices_0",
      "componentType": 5123,
      "count": 612,
      "type": "SCALAR",
      "bufferView": 2,
      "byteOffset": 0,
      "min": [
        0
      ],
      "max": [
        407
      ]
    },
    {
      "name": "positions_1",
      "componentType": 5126,
      "count": 72,
      "type": "VEC3",
      "bufferView": 3,
      "byteOffset": 0,
      "min": [
        0,
        0,
        0
      ],
      "max": [
        11,
        8,
        8
      ]
    },
    {
      "name": "texcoords_1",
      "componentType": 5126,
      "count": 72,
      "type": "VEC2",
      "bufferView": 4,
      "byteOffset": 0,
      "min": [
        0.024390243902439025,
        0.2727272727272727
      ],
      "max": [
        0.9024390243902439,
        0.9772727272727273
      ]
    },
    {
      "name": "indices_1",
      "componentType": 5121,
      "count": 108,
      "type": "SCALAR",
      "bufferView": 5,
      "byteOffset": 0,
      "min": [
        0
      ],
      "max": [
        71
      ]
    },
    {
      "name": "positions_2",
      "componentType": 5126,
      "count": 724,
      "type": "VEC3",
      "bufferView": 6,
      "byteOffset": 0,
      "min": [
        1,
        0,
        0
      ],
      "max": [
        18,
        20,
        14
      ]
    },
    {
      "name": "texcoords_2",
      "componentType": 5126,
      "count": 724,
      "type": "VEC2",
      "bufferView": 7,
      "byteOffset": 0,
      "min": [
        0.024390243902439025,
        0.022727272727272728
      ],
      "max": [
        0.975609756097561,
        0.9772727272727273
      ]
    },
    {
      "name": "indices_2",
      "componentType": 5123,
      "count": 1086,
      "type": "SCALAR",
      "bufferView": 8,
      "byteOffset": 0,
      "min": [
        0
      ],
      "max": [
        723
      ]
    },
    {
      "name": "positions_3",
      "componentType": 5126,
      "count": 56,
      "type": "VEC3",
      "bufferView": 9,
      "byteOffset": 0,
      "min": [
        0,
        0,
        0
      ],
      "max": [
        5,
        4,
        6
      ]
    },
    {
      "name": "texcoords_3",
      "componentType": 5126,
      "count": 56,
      "type": "VEC2",
      "bufferView": 10,
      "byteOffset": 0,
      "min": [
        0.024390243902439025,
        0.9545454545454546
      ],
      "max": [
        0.04878048780487805,
        0.9772727272727273
      ]
    },
    {
      "name": "indices_3",
      "componentType": 5121,
      "count": 84,
      "type": "SCALAR",
      "bufferView": 11,
      "byteOffset": 0,
      "min": [
        0
      ],
      "max": [
        55
      ]
    },
    {
      "name": "positions_4",
      "componentType": 5126,
      "count": 56,
      "type": "VEC3",
      "bufferView": 12,
      "byteOffset": 0,
      "min": [
        0,
        0,
        0
      ],
      "max": [
        5,
        6,
        5
      ]
    },
    {
      "name": "texcoords_4",
      "componentType": 5126,
      "count": 56,
      "type": "VEC2",
      "bufferView": 13,
      "byteOffset": 0,
      "min": [
        0.5609756097560976,
        0.022727272727272728
      ],
      "max": [
        0.975609756097561,
        0.7727272727272727
      ]
    },
    {
      "name": "indices_4",
      "componentType": 5121,
      "count": 84,
      "type": "SCALAR",
      "bufferView": 14,
      "byteOffset": 0,
      "min": [
        0
      ],
      "max": [
        55
      ]
    },
    {
      "name": "positions_5",
      "componentType": 5126,
      "count": 56,
      "type": "VEC3",
      "bufferView": 15,
      "byteOffset": 0,
      "min": [
        0,
        0,
        0
      ],
      "max": [
        5,
        8,
        5
      ]
    },
    {
      "name": "texcoords_5",
      "componentType": 5126,
      "count": 56,
      "type": "VEC2",
      "bufferView": 16,
      "byteOffset": 0,
      "min": [
        0.7804878048780488,
        0.022727272727272728
      ],
      "max": [
        0.975609756097561,
        0.7727272727272727
      ]
    },
    {
      "name": "indices_5",
      "componentType": 5121,
      "count": 84,
      "type": "SCALAR",
      "bufferView": 17,
      "byteOffset": 0,
      "min": [
        0
      ],
      "max": [
        55
      ]
    },
    {
      "name": "positions_6",
      "componentType": 5126,
      "count": 56,
      "type": "VEC3",
      "bufferView": 18,
      "byteOffset": 0,
      "min": [
        0,
        0,
        0
      ],
      "max": [
        5,
        4,
        6
      ]
    },
    {
      "name": "texcoords_6",
      "componentType": 5126,
      "count": 56,
      "type": "VEC2",
      "bufferView": 19,
      "byteOffset": 0,
      "min": [
        0.024390243902439025,
        0.9545454545454546
      ],
      "max": [
        0.04878048780487805,
        0.9772727272727273
      ]
    },
    {
      "name": "indices_6",
      "componentType": 5121,
      "count": 84,
      "type": "SCALAR",
      "bufferView": 20,
      "byteOffset": 0,
      "min": [
        0
      ],
      "max": [
        55
      ]
    },
    {
      "name": "positions_7",
      "componentType": 5126,
      "count": 56,
      "type": "VEC3",
      "bufferView": 21,
      "byteOffset": 0,
      "min": [
        0,
        0,
        0
      ],
      "max": [
        5,
        6,
        5
      ]
    },
    {
      "name": "texcoords_7",
      "componentType": 5126,
      "count": 56,
      "type": "VEC2",
      "bufferView": 22,
      "byteOffset": 0,
      "min": [
        0.5609756097560976,
        0.022727272727272728
      ],
      "max": [
        0.975609756097561,
        0.7727272727272727
      ]
    },
    {
      "name": "indices_7",
      "componentType": 5121,
      "count": 84,
      "type": "SCALAR",
      "bufferView": 23,
      "byteOffset": 0,
      "min": [
        0
      ],
      "max": [
        55
      ]
    },
    {
      "name": "positions_8",
      "componentType": 5126,
      "count": 56,
      "type": "VEC3",
      "bufferView": 24,
      "byteOffset": 0,
      "min": [
        0,
        0,
        0
      ],
      "max": [
        5,
        8,
        5
      ]
    },
    {
      "name": "texcoords_8",
      "componentType": 5126,
      "count": 56,
      "type": "VEC2",
      "bufferView": 25,
      "byteOffset": 0,
      "min": [
        0.7804878048780488,
        0.022727272727272728
      ],
      "max": [
        0.975609756097561,
        0.7727272727272727
      ]
    },
    {
      "name": "indices_8",
      "componentType": 5121,
      "count": 84,
      "type": "SCALAR",
      "bufferView": 26,
      "byteOffset": 0,
      "min": [
        0
      ],
      "max": [
        55
      ]
    },
    {
      "name": "positions_9",
      "componentType": 5126,
      "count": 156,
      "type": "VEC3",
      "bufferView": 27,
      "byteOffset": 0,
      "min": [
        0,
        0,
        0
      ],
      "max": [
        11,
        7,
        8
      ]
    },
    {
      "name": "texcoords_9",
      "componentType": 5126,
      "count": 156,
      "type": "VEC2",
      "bufferView": 28,
      "byteOffset": 0,
      "min": [
        0.024390243902439025,
        0.022727272727272728
      ],
      "max": [
        0.9024390243902439,
        0.9772727272727273
      ]
    },
    {
      "name": "indices_9",
      "componentType": 5121,
      "count": 234,
      "type": "SCALAR",
      "bufferView": 29,
      "byteOffset": 0,
      "min": [
        0
      ],
      "max": [
        155
      ]
    },
    {
      "name": "positions_10",
      "componentType": 5126,
      "count": 48,
      "type": "VEC3",
      "bufferView": 30,
      "byteOffset": 0,
      "min": [
        0,
        0,
        0
      ],
      "max": [
        4,
        4,
        6
      ]
    },
    {
      "name": "texcoords_10",
      "componentType": 5126,
      "count": 48,
      "type": "VEC2",
      "bufferView": 31,
      "byteOffset": 0,
      "min": [
        0.024390243902439025,
        0.3409090909090909
      ],
      "max": [
        0.8780487804878049,
        0.9772727272727273
      ]
    },
    {
      "name": "indices_10",
      "componentType": 5121,
      "count": 72,
      "type": "SCALAR",
      "bufferView": 32,
      "byteOffset": 0,
      "min": [
        0
      ],
      "max": [
        47
      ]
    },
    {
      "name": "positions_11",
      "componentType": 5126,
      "count": 40,
      "type": "VEC3",
      "bufferView": 33,
      "byteOffset": 0,
      "min": [
        0,
        0,
        0
      ],
      "max": [
        3,
        4,
        3
      ]
    },
    {
      "name": "texcoords_11",
      "componentType": 5126,
      "count": 40,
      "type": "VEC2",
      "bufferView": 34,
      "byteOffset": 0,
      "min": [
        0.024390243902439025,
        0.5
      ],
      "max": [
        0.975609756097561,
        0.9772727272727273
      ]
    },
    {
      "name": "indices_11",
      "componentType": 5121,
      "count": 60,
      "type": "SCALAR",
      "bufferView": 35,
      "byteOffset": 0,
      "min": [
        0
      ],
      "max": [
        39
      ]
    },
    {
      "name": "positions_12",
      "componentType": 5126,
      "count": 24,
      "type": "VEC3",
      "bufferView": 36,
      "byteOffset": 0,
      "min": [
        0,
        0,
        0
      ],
      "max": [
        3,
        6,
        3
      ]
    },
    {
      "name": "texcoords_12",
      "componentType": 5126,
      "count": 24,
      "type": "VEC2",
      "bufferView": 37,
      "byteOffset": 0,
      "min": [
        0.8780487804878049,
        0.75
      ],
      "max": [
        0.9024390243902439,
        0.7727272727272727
      ]
    },
    {
      "name": "indices_12",
      "componentType": 5121,
      "count": 36,
      "type": "SCALAR",
      "bufferView": 38,
      "byteOffset": 0,
      "min": [
        0
      ],
      "max": [
        23
      ]
    },
    {
      "name": "positions_13",
      "componentType": 5126,
      "count": 48,
      "type": "VEC3",
      "bufferView": 39,
      "byteOffset": 0,
      "min": [
        0,
        0,
        0
      ],
      "max": [
        4,
        4,
        6
      ]
    },
    {
      "name": "texcoords_13",
      "componentType": 5126,
      "count": 48,
      "type": "VEC2",
      "bufferView": 40,
      "byteOffset": 0,
      "min": [
        0.024390243902439025,
        0.3409090909090909
      ],
      "max": [
        0.8780487804878049,
        0.9772727272727273
      ]
    },
    {
      "name": "indices_13",
      "componentType": 5121,
      "count": 72,
      "type": "SCALAR",
      "bufferView": 41,
      "byteOffset": 0,
      "min": [
        0
      ],
      "max": [
        47
      ]
    },
    {
      "name": "positions_14",
      "componentType": 5126,
      "count": 40,
      "type": "VEC3",
      "bufferView": 42,
      "byteOffset": 0,
      "min": [
        0,
        0,
        0
      ],
      "max": [
        3,
        4,
        3
      ]
    },
    {
      "name": "texcoords_14",
      "componentType": 5126,
      "count": 40,
      "type": "VEC2",
      "bufferView": 43,
      "byteOffset": 0,
      "min": [
        0.024390243902439025,
        0.6363636363636364
      ],
      "max": [
        0.975609756097561,
        0.9772727272727273
      ]
    },
    {
      "name": "indices_14",
      "componentType": 5121,
      "count": 60,
      "type": "SCALAR",
      "bufferView": 44,
      "byteOffset": 0,
      "min": [
        0
      ],
      "max": [
        39
      ]
    },
    {
      "name": "positions_15",
      "componentType": 5126,
      "count": 24,
      "type": "VEC3",
      "bufferView": 45,
      "byteOffset": 0,
      "min": [
        0,
        0,
        0
      ],
      "max": [
        3,
        6,
        3
      ]
    },
    {
      "name": "texcoords_15",
      "componentType": 5126,
      "count": 24,
      "type": "VEC2",
      "bufferView": 46,
      "byteOffset": 0,
      "min": [
        0.8780487804878049,
        0.75
      ],
      "max": [
        0.9024390243902439,
        0.7727272727272727
      ]
    },
    {
      "name": "indices_15",
      "componentType": 5121,
      "count": 36,
      "type": "SCALAR",
      "bufferView": 47,
      "byteOffset": 0,
      "min": [
        0
      ],
      "max": [
        23
      ]
    }
  ],
  "bufferViews": [
    {
      "name": "bufferView_positions_0",
      "buffer": 0,
      "byteLength": 4896,
      "byteOffset": 0,
      "byteStride": 12,
      "target": 34962
    },
    {
      "name": "bufferView_texcoords_0",
      "buffer": 0,
      "byteLength": 3264,
      "byteOffset": 4896,
      "byteStride": 8,
      "target": 34962
    },
    {
      "name": "bufferView_indices_0",
      "buffer": 0,
      "byteLength": 1224,
      "byteOffset": 8160,
      "target": 34963
    },
    {
      "name": "bufferView_positions_1",
      "buffer": 0,
      "byteLength": 864,
      "byteOffset": 9384,
      "byteStride": 12,
      "target": 34962
    },
    {
      "name": "bufferView_texcoords_1",
      "buffer": 0,
      "byteLength": 576,
      "byteOffset": 10248,
      "byteStride": 8,
      "target": 34962
    },
    {
      "name": "bufferView_indices_1",
      "buffer": 0,
      "byteLength": 108,
      "byteOffset": 10824,
      "target": 34963
    },
    {
      "name": "bufferView_positions_2",
      "buffer": 0,
      "byteLength": 8688,
      "byteOffset": 10932,
      "byteStride": 12,
      "target": 34962
    },
    {
      "name": "bufferView_texcoords_2",
      "buffer": 0,
      "byteLength": 5792,
      "byteOffset": 19620,
      "byteStride": 8,
      "target": 34962
    },
    {
      "name": "bufferView_indices_2",
      "buffer": 0,
      "byteLength": 2172,
      "byteOffset": 25412,
      "target": 34963
    },
    {
      "name": "bufferView_positions_3",
      "buffer": 0,
      "byteLength": 672,
      "byteOffset": 27584,
      "byteStride": 12,
      "target": 34962
    },
    {
      "name": "bufferView_texcoords_3",
      "buffer": 0,
      "byteLength": 448,
      "byteOffset": 28256,
      "byteStride": 8,
      "target": 34962
    },
    {
      "name": "bufferView_indices_3",
      "buffer": 0,
      "byteLength": 84,
      "byteOffset": 28704,
      "target": 34963
    },
    {
      "name": "bufferView_positions_4",
      "buffer": 0,
      "byteLength": 672,
      "byteOffset": 28788,
      "byteStride": 12,
      "target": 34962
    },
    {
      "name": "bufferView_texcoords_4",
      "buffer": 0,
      "byteLength": 448,
      "byteOffset": 29460,
      "byteStride": 8,
      "target": 34962
    },
    {
      "name": "bufferView_indices_4",
      "buffer": 0,
      "byteLength": 84,
      "byteOffset": 29908,
      "target": 34963
    },
    {
      "name": "bufferView_positions_5",
      "buffer": 0,
      "byteLength": 672,
      "byteOffset": 29992,
      "byteStride": 12,
      "target": 34962
    },
    {
      "name": "bufferView_texcoords_5",
      "buffer": 0,
      "byteLength": 448,
      "byteOffset": 30664,
      "byteStride": 8,
      "target": 34962
    },
    {
      "name": "bufferView_indices_5",
      "buffer": 0,
      "byteLength": 84,
      "byteOffset": 31112,
      "target": 34963
    },
    {
      "name": "bufferView_positions_6",
      "buffer": 0,
      "byteLength": 672,
      "byteOffset": 31196,
      "byteStride": 12,
      "target": 34962
    },
    {
      "name": "bufferView_texcoords_6",
      "buffer": 0,
      "byteLength": 448,
      "byteOffset": 31868,
      "byteStride": 8,
      "target": 34962
    },
    {
      "name": "bufferView_indices_6",
      "buffer": 0,
      "byteLength": 84,
      "byteOffset": 32316,
      "target": 34963
    },
    {
      "name": "bufferView_positions_7",
      "buffer": 0,
      "byteLength": 672,
      "byteOffset": 32400,
      "byteStride": 12,
      "target": 34962
    },
    {
      "name": "bufferView_texcoords_7",
      "buffer": 0,
      "byteLength": 448,
      "byteOffset": 33072,
      "byteStride": 8,
      "target": 34962
    },
    {
      "name": "bufferView_indices_7",
      "buffer": 0,
      "byteLength": 84,
      "byteOffset": 33520,
      "target": 34963
    },
    {
      "name": "bufferView_positions_8",
      "buffer": 0,
      "byteLength": 672,
      "byteOffset": 33604,
      "byteStride": 12,
      "target": 34962
    },
    {
      "name": "bufferView_texcoords_8",
      "buffer": 0,
      "byteLength": 448,
      "byteOffset": 34276,
      "byteStride": 8,
      "target": 34962
    },
    {
      "name": "bufferView_indices_8",
      "buffer": 0,
      "byteLength": 84,
      "byteOffset": 34724,
      "target": 34963
    },
    {
      "name": "bufferView_positions_9",
      "buffer": 0,
      "byteLength": 1872,
      "byteOffset": 34808,
      "byteStride": 12,
      "target": 34962
    },
    {
      "name": "bufferView_texcoords_9",
      "buffer": 0,
      "byteLength": 1248,
      "byteOffset": 36680,
      "byteStride": 8,
      "target": 34962
    },
    {
      "name": "bufferView_indices_9",
      "buffer": 0,
      "byteLength": 234,
      "byteOffset": 37928,
      "target": 34963
    },
    {
      "name": "bufferView_positions_10",
      "buffer": 0,
      "byteLength": 576,
      "byteOffset": 38164,
      "byteStride": 12,
      "target": 34962
    },
    {
      "name": "bufferView_texcoords_10",
      "buffer": 0,
      "byteLength": 384,
      "byteOffset": 38740,
      "byteStride": 8,
      "target": 34962
    },
    {
      "name": "bufferView_indices_10",
      "buffer": 0,
      "byteLength": 72,
      "byteOffset": 39124,
      "target": 34963
    },
    {
      "name": "bufferView_positions_11",
      "buffer": 0,
      "byteLength": 480,
      "byteOffset": 39196,
      "byteStride": 12,
      "target": 34962
    },
    {
      "name": "bufferView_texcoords_11",
      "buffer": 0,
      "byteLength": 320,
      "byteOffset": 39676,
      "byteStride": 8,
      "target": 34962
    },
    {
      "name": "bufferView_indices_11",
      "buffer": 0,
      "byteLength": 60,
      "byteOffset": 39996,
      "target": 34963
    },
    {
      "name": "bufferView_positions_12",
      "buffer": 0,
      "byteLength": 288,
      "byteOffset": 40056,
      "byteStride": 12,
      "target": 34962
    },
    {
      "name": "bufferView_texcoords_12",
      "buffer": 0,
      "byteLength": 192,
      "byteOffset": 40344,
      "byteStride": 8,
      "target": 34962
    },
    {
      "name": "bufferView_indices_12",
      "buffer": 0,
      "byteLength": 36,
      "byteOffset": 40536,
      "target": 34963
    },
    {
      "name": "bufferView_positions_13",
      "buffer": 0,
      "byteLength": 576,
      "byteOffset": 40572,
      "byteStride": 12,
      "target": 34962
    },
    {
      "name": "bufferView_texcoords_13",
      "buffer": 0,
      "byteLength": 384,
      "byteOffset": 41148,
      "byteStride": 8,
      "target": 34962
    },
    {
      "name": "bufferView_indices_13",
      "buffer": 0,
      "byteLength": 72,
      "byteOffset": 41532,
      "target": 34963
    },
    {
      "name": "bufferView_positions_14",
      "buffer": 0,
      "byteLength": 480,
      "byteOffset": 41604,
      "byteStride": 12,
      "target": 34962
    },
    {
      "name": "bufferView_texcoords_14",
      "buffer": 0,
      "byteLength": 320,
      "byteOffset": 42084,
      "byteStride": 8,
      "target": 34962
    },
    {
      "name": "bufferView_indices_14",
      "buffer": 0,
      "byteLength": 60,
      "byteOffset": 42404,
      "target": 34963
    },
    {
      "name": "bufferView_positions_15",
      "buffer": 0,
      "byteLength": 288,
      "byteOffset": 42464,
      "byteStride": 12,
      "target": 34962
    },
    {
      "name": "bufferView_texcoords_15",
      "buffer": 0,
      "byteLength": 192,
      "byteOffset": 42752,
      "byteStride": 8,
      "target": 34962
    },
    {
      "name": "bufferView_indices_15",
      "buffer": 0,
      "byteLength": 36,
      "byteOffset": 42944,
      "target": 34963
    },
    {
      "name": "bufferView_image",
      "buffer": 0,
      "byteLength": 1057,
      "byteOffset": 42980
    },
    {
      "name": "bufferView_emissive_image",
      "buffer": 0,
      "byteLength": 202,
      "byteOffset": 44037
    }
  ],
  "buffers": [
    {
      "name": "taHXEdEs6Gj8LJvKH0c6pfK3Ab2OBAuVqu9bAHcDBwY",
      "byteLength": 44240,
      "uri": "data:application/octet-stream;base64,"
    }
  ],
  "images": [
    {
      "name": "image",
      "mimeType": "image/png",
      "bufferView": 48
    },
    {
      "name": "emissive image",
      "mimeType": "image/png",
      "bufferView": 49
    }
  ],
  "materials": [
    {
      "name": "material",
      "pbrMetallicRoughness": {
        "baseColorTexture": {
          "index": 0
        },
        "baseColorFactor": [
          1,
          1,
          1,
          1
        ],
        "metallicFactor": 0,
        "roughnessFactor": 1
      },
      "emissiveTexture": {
        "index": 1
      },
      "emissiveFactor": [
        0,
        0,
        0
      ],
      "alphaMode": "OPAQUE",
      "doubleSided": true,
      "extensions": {
        "KHR_materials_unlit": {}
      }
    }
  ],
  "meshes": [
    {
      "name": "mesh_0",
      "primitives": [
        {
          "attributes": {
            "POSITION": 0,
            "TEXCOORD_0": 1
          },
          "indices": 2,
          "material": 0,
          "mode": 4
        }
      ]
    },
    {
      "name": "mesh_1",
      "primitives": [
        {
          "attributes": {
            "POSITION": 3,
            "TEXCOORD_0": 4
          },
          "indices": 5,
          "material": 0,
          "mode": 4
        }
      ]
    },
    {
      "name": "mesh_2",
      "primitives": [
        {
          "attributes": {
            "POSITION": 6,
            "TEXCOORD_0": 7
          },
          "indices": 8,
          "material": 0,
          "mode": 4
        }
      ]
    },
    {
      "name": "mesh_3",
      "primitives": [
        {
          "attributes": {
            "POSITION": 9,
            "TEXCOORD_0": 10
          },
          "indices": 11,
          "material": 0,
          "mode": 4
        }
      ]
    },
    {
      "name": "mesh_4",
      "primitives": [
        {
          "attributes": {
            "POSITION": 12,
            "TEXCOORD_0": 13
          },
          "indices": 14,
          "material": 0,
          "mode": 4
        }
      ]
    },
    {
      "name": "mesh_5",
      "primitives": [
        {
          "attributes": {
            "POSITION": 15,
            "TEXCOORD_0": 16
          },
          "indices": 17,
          "material": 0,
          "mode": 4
        }
      ]
    },
    {
      "name": "mesh_6",
      "primitives": [
        {
          "attributes": {
            "POSITION": 18,
            "TEXCOORD_0": 19
          },
          "indices": 20,
          "material": 0,
          "mode": 4
        }
      ]
    },
    {
      "name": "mesh_7",
      "primitives": [
        {
          "attributes": {
            "POSITION": 21,
            "TEXCOORD_0": 22
          },
          "indices": 23,
          "material": 0,
          "mode": 4
        }
      ]
    },
    {
      "name": "mesh_8",
      "primitives": [
        {
          "attributes": {
            "POSITION": 24,
            "TEXCOORD_0": 25
          },
          "indices": 26,
          "material": 0,
          "mode": 4
        }
      ]
    },
    {
      "name": "mesh_9",
      "primitives": [
        {
          "attributes": {
            "POSITION": 27,
            "TEXCOORD_0": 28
          },
          "indices": 29,
          "material": 0,
          "mode": 4
        }
      ]
    },
    {
      "name": "mesh_10",
      "primitives": [
        {
          "attributes": {
            "POSITION": 30,
            "TEXCOORD_0": 31
          },
          "indices": 32,
          "material": 0,
          "mode": 4
        }
      ]
    },
    {
      "name": "mesh_11",
      "primitives": [
        {
          "attributes": {
            "POSITION": 33,
            "TEXCOORD_0": 34
          },
          "indices": 35,
          "material": 0,
          "mode": 4
        }
      ]
    },
    {
      "name": "mesh_12",
      "primitives": [
        {
          "attributes": {
            "POSITION": 36,
            "TEXCOORD_0": 37
          },
          "indices": 38,
          "material": 0,
          "mode": 4
        }
      ]
    },
    {
      "name": "mesh_13",
      "primitives": [
        {
          "attributes": {
            "POSITION": 39,
            "TEXCOORD_0": 40
          },
          "indices": 41,
          "material": 0,
          "mode": 4
        }
      ]
    },
    {
      "name": "mesh_14",
      "primitives": [
        {
          "attributes": {
            "POSITION": 42,
            "TEXCOORD_0": 43
          },
          "indices": 44,
          "material": 0,
          "mode": 4
        }
      ]
    },
    {
      "name": "mesh_15",
      "primitives": [
        {
          "attributes": {
            "POSITION": 45,
            "TEXCOORD_0": 46
          },
          "indices": 47,
          "material": 0,
          "mode": 4
        }
      ]
    }
  ],
  "nodes": [
    {
      "name": "Root",
      "rotation": [
        0,
        0,
        0,
        1
      ],
      "scale": [
        1,
        1,
        1
      ],
      "translation": [
        0,
        0,
        0
      ],
      "children": [
        1,
        3
      ]
    },
    {
      "name": "Root",
      "rotation": [
        0,
        0,
        0,
        1
      ],
      "scale": [
        1,
        1,
        1
      ],
      "translation": [
        0,
        0,
        0
      ],
      "children": [
        2
      ]
    },
    {
      "name": "Bone",
      "rotation": [
        0,
        -0.11117500066757202,
        0,
        0.9938008189201355
      ],
      "scale": [
        1,
        1,
        1
      ],
      "translation": [
        76.67770385742188,
        0.012619934976100922,
        9.656526565551758
      ]
    },
    {
      "name": "Root",
      "rotation": [
        0,
        0,
        0,
        1
      ],
      "scale": [
        1,
        1,
        1
      ],
      "translation": [
        0,
        0,
        0
      ],
      "children": [
        4
      ]
    },
    {
      "name": "Group",
      "rotation": [
        -0.007990901358425617,
        0.027669958770275116,
        -0.00022119985078461468,
        0.9995851516723633
      ],
      "scale": [
        1,
        1,
        1
      ],
      "translation": [
        18.955835342407227,
        1.4188013076782227,
        -5.626104354858398
      ],
      "children": [
        5,
        6,
        7,
        8,
        9,
        10,
        11,
        12,
        13,
        14,
        15,
        16,
        17,
        18,
        19,
        20,
        21
      ]
    },
    {
      "name": "Object",
      "mesh": 0,
      "rotation": [
        -0.5169997215270996,
        0.4550110697746277,
        -0.40925702452659607,
        0.5984981656074524
      ],
      "scale": [
        1,
        1,
        1
      ],
      "translation": [
        -21.359289169311523,
        18.98687171936035,
        8.639389038085938
      ]
    },
    {
      "name": "Object-1",
      "rotation": [
        0,
        0,
        0,
        1
      ],
      "scale": [
        1,
        1,
        1
      ],
      "translation": [
        -126.36328125,
        0,
        -25.89309310913086
      ]
    },
    {
      "name": "Body",
      "mesh": 1,
      "rotation": [
        0.1511632204055786,
        -5.213150799932009e-9,
        0.008375247940421104,
        0.9884747266769409
      ],
      "scale": [
        1,
        1,
        1
      ],
      "translation": [
        -5.804276943206787,
        17.772260665893555,
        -4.02705192565918
      ]
    },
    {
      "name": "Head",
      "mesh": 2,
      "rotation": [
        0.03407891094684601,
        0.15938381850719452,
        -0.0010536718182265759,
        0.9866277575492859
      ],
      "scale": [
        1,
        1,
        1
      ],
      "translation": [
        -11.847774505615234,
        23.41287612915039,
        -4.308720588684082
      ]
    },
    {
      "name": "Left foot",
      "mesh": 3,
      "rotation": [
        -0.00020056767971254885,
        0.1851409524679184,
        0.0012028852943331003,
        0.9827135801315308
      ],
      "scale": [
        1,
        1,
        1
      ],
      "translation": [
        0.10862350463867188,
        -0.008237719535827637,
        -0.8280003070831299
      ]
    },
    {
      "name": "Left lower leg",
      "mesh": 4,
      "rotation": [
        0.132051482796669,
        0.23721575736999512,
        -0.005141898524016142,
        0.9624298214912415
      ],
      "scale": [
        1,
        1,
        1
      ],
      "translation": [
        -1.0742743015289307,
        2.614454507827759,
        -1.2417659759521484
      ]
    },
    {
      "name": "Left upper leg",
      "mesh": 5,
      "rotation": [
        -0.06336063891649246,
        0.14530989527702332,
        0.009325250051915646,
        0.9873121380805969
      ],
      "scale": [
        1,
        1,
        1
      ],
      "translation": [
        -0.4610562324523926,
        5.713253498077393,
        -0.6644531488418579
      ]
    },
    {
      "name": "Right foot",
      "mesh": 6,
      "rotation": [
        -0.0003159496991429478,
        -0.3312760591506958,
        -0.002317659091204405,
        0.9435322880744934
      ],
      "scale": [
        1,
        1,
        1
      ],
      "translation": [
        -3.5850062370300293,
        0.004037022590637207,
        -2.9062671661376953
      ]
    },
    {
      "name": "Right lower leg",
      "mesh": 7,
      "rotation": [
        0.15665315091609955,
        -0.31186074018478394,
        0.01792839914560318,
        0.9369542002677917
      ],
      "scale": [
        1,
        1,
        1
      ],
      "translation": [
        -3.671241521835327,
        3.0712890625,
        -3.7131659984588623
      ]
    },
    {
      "name": "Right upper leg",
      "mesh": 8,
      "rotation": [
        -0.1281237006187439,
        -0.21536390483379364,
        -0.018938472494482994,
        0.9679073691368103
      ],
      "scale": [
        1,
        1,
        1
      ],
      "translation": [
        -5.103560447692871,
        5.447429656982422,
        -1.780941367149353
      ]
    },
    {
      "name": "Hip",
      "mesh": 9,
      "rotation": [
        -0.10898315161466599,
        -2.230714635231834e-8,
        -0.00603824807330966,
        0.9940279126167297
      ],
      "scale": [
        1,
        1,
        1
      ],
      "translation": [
        -6.046878814697266,
        10.282760620117188,
        -2.1538937091827393
      ]
    },
    {
      "name": "Right hand",
      "mesh": 10,
      "rotation": [
        -0.550048828125,
        0,
        0,
        0.8351324200630188
      ],
      "scale": [
        1,
        1,
        1
      ],
      "translation": [
        -10,
        12.560245513916016,
        6.622583389282227
      ]
    },
    {
      "name": "Right upper arm",
      "mesh": 11,
      "rotation": [
        -0.22918273508548737,
        0,
        0,
        0.9733834862709045
      ],
      "scale": [
        1,
        1,
        1
      ],
      "translation": [
        -9,
        19.190513610839844,
        -0.5389269590377808
      ]
    },
    {
      "name": "Right lower arm",
      "mesh": 12,
      "rotation": [
        -0.5839252471923828,
        0,
        0,
        0.8118076920509338
      ],
      "scale": [
        1,
        1,
        1
      ],
      "translation": [
        -9,
        15.623706817626953,
        5.009468078613281
      ]
    },
    {
      "name": "Left hand",
      "mesh": 13,
      "rotation": [
        -0.6653099656105042,
        0.003943989519029856,
        -0.03112524002790451,
        0.7459122538566589
      ],
      "scale": [
        1,
        1,
        1
      ],
      "translation": [
        4.193327903747559,
        14.103610038757324,
        6.017820358276367
      ]
    },
    {
      "name": "Left upper arm",
      "mesh": 14,
      "rotation": [
        0.2126525342464447,
        0.0005839778459630907,
        0.00423338683322072,
        0.9771185517311096
      ],
      "scale": [
        1,
        1,
        1
      ],
      "translation": [
        5.011691570281982,
        21.791526794433594,
        -1.6964807510375977
      ]
    },
    {
      "name": "Left lower arm",
      "mesh": 15,
      "rotation": [
        -0.45914125442504883,
        0.002836864208802581,
        -0.008962730877101421,
        0.88831627368927
      ],
      "scale": [
        1,
        1,
        1
      ],
      "translation": [
        4.879944801330566,
        16.052154541015625,
        3.166226863861084
      ]
    }
  ],
  "samplers": [
    {
      "wrapS": 33071,
      "wrapT": 33071,
      "magFilter": 9728,
      "minFilter": 9728
    }
  ],
  "scene": 0,
  "scenes": [
    {
      "nodes": [
        0
      ]
    }
  ],
  "textures": [
    {
      "name": "texture",
      "sampler": 0,
      "source": 0
    },
    {
      "name": "emissive texture",
      "sampler": 0,
      "source": 1
    }
  ]
}