{
  "asset": {
    "generator": "ArenaPro Web VCode Exporter",
    "version": "2.0"
  },
  "extensionsUsed": [
    "KHR_materials_unlit"
  ],
  "accessors": [
    {
      "name": "positions_0",
      "componentType": 5126,
      "count": 88,
      "type": "VEC3",
      "bufferView": 0,
      "byteOffset": 0,
      "min": [
        23,
        2,
        20
      ],
      "max": [
        27,
        15,
        21
      ]
    },
    {
      "name": "texcoords_0",
      "componentType": 5126,
      "count": 88,
      "type": "VEC2",
      "bufferView": 1,
      "byteOffset": 0,
      "min": [
        0.18421052631578946,
        0.027777777777777776
      ],
      "max": [
        0.9736842105263158,
        0.9722222222222222
      ]
    },
    {
      "name": "indices_0",
      "componentType": 5121,
      "count": 132,
      "type": "SCALAR",
      "bufferView": 2,
      "byteOffset": 0,
      "min": [
        0
      ],
      "max": [
        87
      ]
    },
    {
      "name": "positions_1",
      "componentType": 5126,
      "count": 404,
      "type": "VEC3",
      "bufferView": 3,
      "byteOffset": 0,
      "min": [
        16,
        0,
        17
      ],
      "max": [
        23,
        25,
        24
      ]
    },
    {
      "name": "texcoords_1",
      "componentType": 5126,
      "count": 404,
      "type": "VEC2",
      "bufferView": 4,
      "byteOffset": 0,
      "min": [
        0.02631578947368421,
        0.027777777777777776
      ],
      "max": [
        0.8947368421052632,
        0.9722222222222222
      ]
    },
    {
      "name": "indices_1",
      "componentType": 5123,
      "count": 606,
      "type": "SCALAR",
      "bufferView": 5,
      "byteOffset": 0,
      "min": [
        0
      ],
      "max": [
        403
      ]
    },
    {
      "name": "positions_2",
      "componentType": 5126,
      "count": 224,
      "type": "VEC3",
      "bufferView": 6,
      "byteOffset": 0,
      "min": [
        18,
        18,
        18
      ],
      "max": [
        23,
        23,
        23
      ]
    },
    {
      "name": "texcoords_2",
      "componentType": 5126,
      "count": 224,
      "type": "VEC2",
      "bufferView": 7,
      "byteOffset": 0,
      "min": [
        0.15789473684210525,
        0.027777777777777776
      ],
      "max": [
        0.9736842105263158,
        0.9722222222222222
      ]
    },
    {
      "name": "indices_2",
      "componentType": 5121,
      "count": 336,
      "type": "SCALAR",
      "bufferView": 8,
      "byteOffset": 0,
      "min": [
        0
      ],
      "max": [
        223
      ]
    },
    {
      "name": "positions_3",
      "componentType": 5126,
      "count": 224,
      "type": "VEC3",
      "bufferView": 9,
      "byteOffset": 0,
      "min": [
        18,
        18,
        18
      ],
      "max": [
        23,
        23,
        23
      ]
    },
    {
      "name": "texcoords_3",
      "componentType": 5126,
      "count": 224,
      "type": "VEC2",
      "bufferView": 10,
      "byteOffset": 0,
      "min": [
        0.15789473684210525,
        0.027777777777777776
      ],
      "max": [
        0.9736842105263158,
        0.9722222222222222
      ]
    },
    {
      "name": "indices_3",
      "componentType": 5121,
      "count": 336,
      "type": "SCALAR",
      "bufferView": 11,
      "byteOffset": 0,
      "min": [
        0
      ],
      "max": [
        223
      ]
    },
    {
      "name": "positions_4",
      "componentType": 5126,
      "count": 224,
      "type": "VEC3",
      "bufferView": 12,
      "byteOffset": 0,
      "min": [
        18,
        18,
        18
      ],
      "max": [
        23,
        23,
        23
      ]
    },
    {
      "name": "texcoords_4",
      "componentType": 5126,
      "count": 224,
      "type": "VEC2",
      "bufferView": 13,
      "byteOffset": 0,
      "min": [
        0.15789473684210525,
        0.027777777777777776
      ],
      "max": [
        0.9736842105263158,
        0.9722222222222222
      ]
    },
    {
      "name": "indices_4",
      "componentType": 5121,
      "count": 336,
      "type": "SCALAR",
      "bufferView": 14,
      "byteOffset": 0,
      "min": [
        0
      ],
      "max": [
        223
      ]
    },
    {
      "name": "positions_5",
      "componentType": 5126,
      "count": 224,
      "type": "VEC3",
      "bufferView": 15,
      "byteOffset": 0,
      "min": [
        18,
        18,
        18
      ],
      "max": [
        23,
        23,
        23
      ]
    },
    {
      "name": "texcoords_5",
      "componentType": 5126,
      "count": 224,
      "type": "VEC2",
      "bufferView": 16,
      "byteOffset": 0,
      "min": [
        0.15789473684210525,
        0.027777777777777776
      ],
      "max": [
        0.9736842105263158,
        0.9722222222222222
      ]
    },
    {
      "name": "indices_5",
      "componentType": 5121,
      "count": 336,
      "type": "SCALAR",
      "bufferView": 17,
      "byteOffset": 0,
      "min": [
        0
      ],
      "max": [
        223
      ]
    },
    {
      "name": "positions_6",
      "componentType": 5126,
      "count": 216,
      "type": "VEC3",
      "bufferView": 18,
      "byteOffset": 0,
      "min": [
        11,
        0,
        19
      ],
      "max": [
        20,
        40,
        20
      ]
    },
    {
      "name": "texcoords_6",
      "componentType": 5126,
      "count": 216,
      "type": "VEC2",
      "bufferView": 19,
      "byteOffset": 0,
      "min": [
        0.02631578947368421,
        0.027777777777777776
      ],
      "max": [
        0.8421052631578947,
        0.9722222222222222
      ]
    },
    {
      "name": "indices_6",
      "componentType": 5121,
      "count": 324,
      "type": "SCALAR",
      "bufferView": 20,
      "byteOffset": 0,
      "min": [
        0
      ],
      "max": [
        215
      ]
    }
  ],
  "bufferViews": [
    {
      "name": "bufferView_positions_0",
      "buffer": 0,
      "byteLength": 1056,
      "byteOffset": 0,
      "byteStride": 12,
      "target": 34962
    },
    {
      "name": "bufferView_texcoords_0",
      "buffer": 0,
      "byteLength": 704,
      "byteOffset": 1056,
      "byteStride": 8,
      "target": 34962
    },
    {
      "name": "bufferView_indices_0",
      "buffer": 0,
      "byteLength": 132,
      "byteOffset": 1760,
      "target": 34963
    },
    {
      "name": "bufferView_positions_1",
      "buffer": 0,
      "byteLength": 4848,
      "byteOffset": 1892,
      "byteStride": 12,
      "target": 34962
    },
    {
      "name": "bufferView_texcoords_1",
      "buffer": 0,
      "byteLength": 3232,
      "byteOffset": 6740,
      "byteStride": 8,
      "target": 34962
    },
    {
      "name": "bufferView_indices_1",
      "buffer": 0,
      "byteLength": 1212,
      "byteOffset": 9972,
      "target": 34963
    },
    {
      "name": "bufferView_positions_2",
      "buffer": 0,
      "byteLength": 2688,
      "byteOffset": 11184,
      "byteStride": 12,
      "target": 34962
    },
    {
      "name": "bufferView_texcoords_2",
      "buffer": 0,
      "byteLength": 1792,
      "byteOffset": 13872,
      "byteStride": 8,
      "target": 34962
    },
    {
      "name": "bufferView_indices_2",
      "buffer": 0,
      "byteLength": 336,
      "byteOffset": 15664,
      "target": 34963
    },
    {
      "name": "bufferView_positions_3",
      "buffer": 0,
      "byteLength": 2688,
      "byteOffset": 16000,
      "byteStride": 12,
      "target": 34962
    },
    {
      "name": "bufferView_texcoords_3",
      "buffer": 0,
      "byteLength": 1792,
      "byteOffset": 18688,
      "byteStride": 8,
      "target": 34962
    },
    {
      "name": "bufferView_indices_3",
      "buffer": 0,
      "byteLength": 336,
      "byteOffset": 20480,
      "target": 34963
    },
    {
      "name": "bufferView_positions_4",
      "buffer": 0,
      "byteLength": 2688,
      "byteOffset": 20816,
      "byteStride": 12,
      "target": 34962
    },
    {
      "name": "bufferView_texcoords_4",
      "buffer": 0,
      "byteLength": 1792,
      "byteOffset": 23504,
      "byteStride": 8,
      "target": 34962
    },
    {
      "name": "bufferView_indices_4",
      "buffer": 0,
      "byteLength": 336,
      "byteOffset": 25296,
      "target": 34963
    },
    {
      "name": "bufferView_positions_5",
      "buffer": 0,
      "byteLength": 2688,
      "byteOffset": 25632,
      "byteStride": 12,
      "target": 34962
    },
    {
      "name": "bufferView_texcoords_5",
      "buffer": 0,
      "byteLength": 1792,
      "byteOffset": 28320,
      "byteStride": 8,
      "target": 34962
    },
    {
      "name": "bufferView_indices_5",
      "buffer": 0,
      "byteLength": 336,
      "byteOffset": 30112,
      "target": 34963
    },
    {
      "name": "bufferView_positions_6",
      "buffer": 0,
      "byteLength": 2592,
      "byteOffset": 30448,
      "byteStride": 12,
      "target": 34962
    },
    {
      "name": "bufferView_texcoords_6",
      "buffer": 0,
      "byteLength": 1728,
      "byteOffset": 33040,
      "byteStride": 8,
      "target": 34962
    },
    {
      "name": "bufferView_indices_6",
      "buffer": 0,
      "byteLength": 324,
      "byteOffset": 34768,
      "target": 34963
    },
    {
      "name": "bufferView_image",
      "buffer": 0,
      "byteLength": 831,
      "byteOffset": 35092
    },
    {
      "name": "bufferView_emissive_image",
      "buffer": 0,
      "byteLength": 522,
      "byteOffset": 35923
    }
  ],
  "buffers": [
    {
      "name": "u1tr4npXFvMLYw8iwJ9w0Ea9VPX3ZfdzLCgh7BuNdJc",
      "byteLength": 36448,
      "uri": "data:application/octet-stream;base64,"
    }
  ],
  "images": [
    {
      "name": "image",
      "mimeType": "image/png",
      "bufferView": 21
    },
    {
      "name": "emissive image",
      "mimeType": "image/png",
      "bufferView": 22
    }
  ],
  "materials": [
    {
      "name": "material",
      "pbrMetallicRoughness": {
        "baseColorTexture": {
          "index": 0
        },
        "baseColorFactor": [
          1,
          1,
          1,
          1
        ],
        "metallicFactor": 0,
        "roughnessFactor": 1
      },
      "emissiveTexture": {
        "index": 1
      },
      "emissiveFactor": [
        0,
        0,
        0
      ],
      "alphaMode": "OPAQUE",
      "doubleSided": true,
      "extensions": {
        "KHR_materials_unlit": {}
      }
    }
  ],
  "meshes": [
    {
      "name": "mesh_0",
      "primitives": [
        {
          "attributes": {
            "POSITION": 0,
            "TEXCOORD_0": 1
          },
          "indices": 2,
          "material": 0,
          "mode": 4
        }
      ]
    },
    {
      "name": "mesh_1",
      "primitives": [
        {
          "attributes": {
            "POSITION": 3,
            "TEXCOORD_0": 4
          },
          "indices": 5,
          "material": 0,
          "mode": 4
        }
      ]
    },
    {
      "name": "mesh_2",
      "primitives": [
        {
          "attributes": {
            "POSITION": 6,
            "TEXCOORD_0": 7
          },
          "indices": 8,
          "material": 0,
          "mode": 4
        }
      ]
    },
    {
      "name": "mesh_3",
      "primitives": [
        {
          "attributes": {
            "POSITION": 9,
            "TEXCOORD_0": 10
          },
          "indices": 11,
          "material": 0,
          "mode": 4
        }
      ]
    },
    {
      "name": "mesh_4",
      "primitives": [
        {
          "attributes": {
            "POSITION": 12,
            "TEXCOORD_0": 13
          },
          "indices": 14,
          "material": 0,
          "mode": 4
        }
      ]
    },
    {
      "name": "mesh_5",
      "primitives": [
        {
          "attributes": {
            "POSITION": 15,
            "TEXCOORD_0": 16
          },
          "indices": 17,
          "material": 0,
          "mode": 4
        }
      ]
    },
    {
      "name": "mesh_6",
      "primitives": [
        {
          "attributes": {
            "POSITION": 18,
            "TEXCOORD_0": 19
          },
          "indices": 20,
          "material": 0,
          "mode": 4
        }
      ]
    }
  ],
  "nodes": [
    {
      "name": "Root",
      "rotation": [
        0,
        0,
        0,
        1
      ],
      "scale": [
        1,
        1,
        1
      ],
      "translation": [
        0,
        0,
        0
      ],
      "children": [
        1,
        2
      ]
    },
    {
      "name": "Root",
      "rotation": [
        0,
        0,
        0,
        1
      ],
      "scale": [
        1,
        1,
        1
      ],
      "translation": [
        0,
        0,
        0
      ]
    },
    {
      "name": "Root",
      "rotation": [
        0,
        0,
        0,
        1
      ],
      "scale": [
        1,
        1,
        1
      ],
      "translation": [
        0,
        0,
        0
      ],
      "children": [
        3,
        4,
        5,
        6,
        7,
        8,
        9
      ]
    },
    {
      "name": "Object-3",
      "mesh": 0,
      "rotation": [
        0.013734236359596252,
        -0.012889888137578964,
        0.997479259967804,
        0.06841311603784561
      ],
      "scale": [
        1.0000005960464478,
        1.000001072883606,
        0.9999992251396179
      ],
      "translation": [
        49.35429000854492,
        11.28525161743164,
        -15.53764533996582
      ]
    },
    {
      "name": "Object",
      "mesh": 1,
      "rotation": [
        0.982613742351532,
        0.18566158413887024,
        -0.00018354090570937842,
        0.0000346794658980798
      ],
      "scale": [
        0.9999999403953552,
        1.0000022649765015,
        1.0000025033950806
      ],
      "translation": [
        -14.888971328735352,
        64.32766723632812,
        26.340198516845703
      ]
    },
    {
      "name": "Object-1",
      "mesh": 2,
      "rotation": [
        0.16290587186813354,
        0.21271517872810364,
        0.962918758392334,
        0.031644292175769806
      ],
      "scale": [
        1.000001311302185,
        1.0000027418136597,
        1.000001072883606
      ],
      "translation": [
        27.555816650390625,
        54.5736083984375,
        -28.094280242919922
      ]
    },
    {
      "name": "Object-1",
      "mesh": 3,
      "rotation": [
        0.8499846458435059,
        0.18217405676841736,
        -0.4068455398082733,
        0.2807408273220062
      ],
      "scale": [
        0.9999995231628418,
        1.0000004768371582,
        0.9999992847442627
      ],
      "translation": [
        -0.7002429962158203,
        73.04081726074219,
        28.10411834716797
      ]
    },
    {
      "name": "Object-1",
      "mesh": 4,
      "rotation": [
        0.8499846458435059,
        0.18217405676841736,
        -0.4068455398082733,
        0.2807408273220062
      ],
      "scale": [
        0.9999995231628418,
        1.0000004768371582,
        0.9999992847442627
      ],
      "translation": [
        -0.5196323394775391,
        81.51400756835938,
        26.904438018798828
      ]
    },
    {
      "name": "Object-1",
      "mesh": 5,
      "rotation": [
        0.7508139610290527,
        0.22896644473075867,
        0.6195322871208191,
        -0.00569604616612196
      ],
      "scale": [
        0.9999995827674866,
        1,
        0.9999988675117493
      ],
      "translation": [
        -19.2988338470459,
        55.52589797973633,
        -16.63469696044922
      ]
    },
    {
      "name": "Object-2",
      "mesh": 6,
      "rotation": [
        0.982613742351532,
        0.18566158413887024,
        -0.00018354090570937842,
        0.0000346794658980798
      ],
      "scale": [
        0.9999999403953552,
        1.0000022649765015,
        1.0000025033950806
      ],
      "translation": [
        -6.132133483886719,
        42.01404571533203,
        25.147781372070312
      ]
    }
  ],
  "samplers": [
    {
      "wrapS": 33071,
      "wrapT": 33071,
      "magFilter": 9728,
      "minFilter": 9728
    }
  ],
  "scene": 0,
  "scenes": [
    {
      "nodes": [
        0
      ]
    }
  ],
  "textures": [
    {
      "name": "texture",
      "sampler": 0,
      "source": 0
    },
    {
      "name": "emissive texture",
      "sampler": 0,
      "source": 1
    }
  ]
}